o Object.1
v 0.28310632705688477 0.34606361389160156 1.3258774280548096
v 0.3259422779083252 0.30607903003692627 1.3387733697891235
v 0.07235801219940186 0.3860085606575012 1.2812731266021729
v 0.24112677574157715 0.38605374097824097 1.317907691001892
v 0.15674090385437012 0.42603105306625366 1.2995476722717285
v 0.23373615741729736 0.42605477571487427 1.3191494941711426
v 0.15716767311096191 0.4660336375236511 1.3019678592681885
v 0.029519081115722656 0.505993127822876 1.268291711807251
v 0.07192540168762207 0.5060057640075684 1.278681993484497
v -0.14095669984817505 0.3459373712539673 1.2219756841659546
v -0.14095887541770935 0.4059373736381531 1.2219116687774658
v -0.14835023880004883 0.46593838930130005 1.2231323719024658
v -0.14096254110336304 0.5059373378753662 1.2218050956726074
v -0.06021958589553833 0.5059686899185181 1.2483679056167603
v -0.055293500423431396 0.5059678554534912 1.2475115060806274
v -0.14053577184677124 0.5459398627281189 1.2242252826690674
v 0.6306140422821045 0.026169180870056152 1.4129817485809326
v 0.6664875745773315 0.026188254356384277 1.4295824766159058
v 0.6664861440658569 0.06618821620941162 1.4295399188995361
v 0.6660563945770264 0.10618555545806885 1.4270341396331787
v 0.6236472129821777 0.18617284297943115 1.4165587425231934
v 0.3713715672492981 -0.0016387701034545898 1.133280634880066
v 0.4895981550216675 0.0033437013626098633 1.1127216815948486
v 0.49644935131073 0.0033860206604003906 1.1521308422088623
v 0.5388597249984741 -0.014163732528686523 1.10417640209198
v 0.47620755434036255 -0.014067888259887695 1.1962684392929077
v 0.5648775696754456 -0.014081001281738281 1.180853247642517
v 0.35251569747924805 0.01599407196044922 1.2583400011062622
v 0.552024245262146 -0.014035820960998535 1.2236875295639038
v 0.35636913776397705 0.02601778507232666 1.2804969549179077
v 0.5170032978057861 -0.00398707389831543 1.2703652381896973
v 0.4407535791397095 0.026040315628051758 1.298814058303833
v 0.5632635354995728 -0.00895071029663086 1.3029283285140991
v 0.5681897401809692 -0.013951539993286133 1.3020771741867065
v 0.5684006214141846 0.026080846786499023 1.3324477672576904
v 0.5873563289642334 -0.013911008834838867 1.339345097541809
v 0.606522798538208 -0.013870596885681152 1.3766130208969116
v 0.41247642040252686 0.06611490249633789 1.3696620464324951
v 0.45359522104263306 0.14611971378326416 1.3725775480270386
v 0.6622070074081421 -0.01383817195892334 1.4049947261810303
v 0.6626352071762085 -0.013835549354553223 1.4074578285217285
v 0.5821016430854797 0.06616556644439697 1.4112226963043213
v 0.5392671823501587 0.06615018844604492 1.398369550704956
v 0.5392613410949707 0.22615015506744385 1.3981987237930298
v 0.5227686166763306 0.26614177227020264 1.3908729553222656
v 0.41118305921554565 0.30610692501068115 1.3620166778564453
v 0.4223199486732483 0.3061133623123169 1.3676929473876953
v 0.45358937978744507 0.30611956119537354 1.3724067211151123
v 0.22058677673339844 0.010927200317382812 1.2000813484191895
v 0.2925536632537842 0.0008730888366699219 1.1469805240631104
v 0.29940474033355713 0.005915403366088867 1.1863840818405151
v 0.2668467164039612 0.015963435173034668 1.2326337099075317
v 0.016690552234649658 0.02591407299041748 1.1949124336242676
v 0.10482263565063477 0.025944232940673828 1.2201907634735107
v 0.14390945434570312 0.025951862335205078 1.2260828018188477
v 0.18631577491760254 0.02596461772918701 1.2364729642868042
v 0.15675407648086548 0.06603121757507324 1.2999320030212402
v 0.31995701789855957 0.04354202747344971 1.3045705556869507
v 0.3268073797225952 0.06608438491821289 1.343955636024475
v 0.28354179859161377 0.1460665464401245 1.3285539150238037
v 0.047625601291656494 0.2659958600997925 1.2704765796661377
v 0.3131065368652344 0.02349984645843506 1.2651830911636353
v -0.062127888202667236 0.043425679206848145 1.2085959911346436
v -0.014155805110931396 0.06597268581390381 1.2509820461273193
v -0.015441864728927612 0.1059647798538208 1.2435503005981445
v -0.1261710226535797 0.14593541622161865 1.2196199893951416


vn -0.6966332197189331 -0.7069950103759766 0.12190230190753937
vn 0.2352784425020218 -0.028842810541391373 -0.9714999198913574
vn 0.2566806375980377 0.026921436190605164 -0.9661211967468262
vn 0.2283732146024704 0.0052654617466032505 -0.9735593795776367
vn 0.20907117426395416 0.03557620942592621 -0.9772530198097229
vn 0.0 0.0 0.0
vn 0.2379751056432724 -0.0010296396212652326 -0.971270740032196
vn 0.0 0.0 0.0
vn 0.0 0.0 0.0
vn 0.25132301449775696 0.03675258159637451 -0.9672052264213562
vn 0.27024880051612854 0.025927603244781494 -0.9624413251876831
vn 0.24532754719257355 -0.00021091535745654255 -0.9694401621818542
vn 0.26908040046691895 0.014682205393910408 -0.963005781173706
vn 0.2930060923099518 0.05462797358632088 -0.9545485973358154
vn 0.2353413999080658 -0.02302827127277851 -0.97163987159729
vn 0.25135287642478943 0.05577964335680008 -0.9662869572639465
vn 0.23568394780158997 0.052705757319927216 -0.9703994989395142
vn 0.39123234152793884 0.029885491356253624 -0.9198065996170044
vn 0.21204257011413574 -0.029973367229104042 -0.9768006205558777
vn 0.13014982640743256 -0.06060125678777695 -0.9896405935287476
vn 0.23921579122543335 0.0009273451869376004 -0.9709660410881042
vn -0.012198318727314472 0.9899343848228455 -0.14100025594234467
vn 0.07221143692731857 0.9972962737083435 -0.013624744489789009
vn 0.1257559210062027 0.9913228154182434 -0.038269560784101486
vn 0.29721763730049133 0.9510025978088379 -0.08517980575561523
vn 0.3646864593029022 0.9311151504516602 -0.005333022214472294
vn 0.27039724588394165 0.9626476764678955 -0.013956725597381592
vn 0.01137216854840517 0.9821648001670837 -0.18767781555652618
vn 0.28683093190193176 0.9566284418106079 -0.05089201405644417
vn 0.11015383154153824 0.8815946578979492 -0.4589737355709076
vn 0.1595720648765564 0.9824632406234741 -0.09645082801580429
vn 0.11825141310691833 0.9492992758750916 -0.291285902261734
vn 0.25480175018310547 0.8514629602432251 -0.45835232734680176
vn 0.7931751608848572 0.44564899802207947 -0.41505444049835205
vn 0.32713833451271057 0.6514216065406799 -0.6845659017562866
vn 0.8411628007888794 0.3240312337875366 -0.4329536557197571
vn 0.6863441467285156 0.4422806203365326 -0.5773383378982544
vn 0.053710829466581345 0.5744731426239014 -0.8167592287063599
vn 0.25687524676322937 0.10113492608070374 -0.9611383080482483
vn 0.42180272936820984 0.4821152687072754 -0.7678849697113037
vn 0.48941856622695923 0.5254290103912354 -0.6959839463233948
vn 0.4006694555282593 0.3400745987892151 -0.8507720828056335
vn 0.49087393283843994 0.3927789628505707 -0.7776679992675781
vn 0.0 0.0 0.0
vn 0.0 0.0 0.0
vn 0.2516196072101593 -0.008602932095527649 -0.9677879810333252
vn 0.2791785001754761 0.013914397917687893 -0.9601383805274963
vn 0.0 0.0 0.0
vn 0.034295789897441864 0.9859614372253418 -0.1634131819009781
vn -0.002744592260569334 0.9885132908821106 -0.15110938251018524
vn -0.003019345458596945 0.9901655912399292 -0.13986730575561523
vn 0.04310603812336922 0.982160747051239 -0.183035746216774
vn 0.12441811710596085 0.86020827293396 -0.4945320188999176
vn 0.1245066449046135 0.8515979051589966 -0.5091944932937622
vn 0.09723445028066635 0.8675521016120911 -0.487748920917511
vn 0.12676018476486206 0.869114339351654 -0.4780921936035156
vn 0.21069899201393127 0.35088497400283813 -0.9124065041542053
vn 0.1745157390832901 0.7169010639190674 -0.6749793291091919
vn 0.3714103400707245 0.12598955631256104 -0.9198808670043945
vn 0.24598979949951172 0.03311741352081299 -0.968706488609314
vn 0.25294020771980286 2.9764418286504224e-05 -0.9674818515777588
vn 0.0 0.0 0.0
vn 0.2580917775630951 0.633385419845581 -0.7295283079147339
vn 0.33016347885131836 0.09820272028446198 -0.9388015270233154
vn 0.287326842546463 0.055319707840681076 -0.95623379945755
vn 0.2467425912618637 0.10689607262611389 -0.9631673693656921


f 1//1 2//2 4//4
f 7//7 5//5 3//3
f 3//3 10//10 11//11
f 3//3 11//11 12//12
f 13//13 3//3 12//12
f 13//13 12//12 16//16
f 14//14 3//3 13//13
f 15//15 3//3 14//14
f 7//7 3//3 15//15
f 14//14 13//13 16//16
f 18//18 17//17 21//21
f 19//19 18//18 21//21
f 20//20 19//19 21//21
f 32//32 22//22 50//50
f 32//32 24//24 22//22
f 24//24 23//23 22//22
f 25//25 23//23 24//24
f 32//32 26//26 24//24
f 24//24 26//26 31//31
f 27//27 25//25 24//24
f 31//31 26//26 32//32
f 29//29 27//27 31//31
f 27//27 24//24 31//31
f 28//28 30//30 32//32
f 32//32 33//33 31//31
f 33//33 29//29 31//31
f 34//34 29//29 33//33
f 33//33 35//35 34//34
f 34//34 35//35 36//36
f 37//37 36//36 35//35
f 37//37 35//35 42//42
f 32//32 30//30 58//58
f 33//33 32//32 35//35
f 38//38 32//32 58//58
f 38//38 35//35 32//32
f 35//35 38//38 39//39
f 39//39 43//43 35//35
f 43//43 39//39 47//47
f 17//17 41//41 42//42
f 42//42 41//41 40//40
f 42//42 40//40 37//37
f 43//43 42//42 35//35
f 17//17 42//42 21//21
f 42//42 43//43 21//21
f 51//51 50//50 49//49
f 52//52 51//51 49//49
f 52//52 28//28 51//51
f 54//54 53//53 57//57
f 55//55 54//54 57//57
f 56//56 55//55 57//57
f 58//58 56//56 57//57
f 58//58 60//60 59//59
f 58//58 57//57 60//60
f 57//57 61//61 60//60
f 46//46 60//60 61//61
f 51//51 32//32 50//50
f 28//28 32//32 51//51
f 30//30 56//56 58//58
f 59//59 38//38 58//58
f 38//38 59//59 39//39
f 59//59 60//60 39//39
f 47//47 39//39 60//60
f 46//46 47//47 60//60
f 5//5 61//61 3//3
f 4//4 61//61 5//5
f 2//2 46//46 61//61
f 2//2 61//61 4//4
f 65//65 63//63 66//66
f 63//63 65//65 64//64
f 65//65 66//66 10//10
f 3//3 65//65 10//10
f 57//57 53//53 63//63
f 64//64 57//57 63//63
f 61//61 57//57 64//64
f 61//61 64//64 65//65
f 3//3 61//61 65//65


