o Object.1
v 0.6857650279998779 -0.013815760612487793 1.4237372875213623
v 0.6433588266372681 -0.013828396797180176 1.4133472442626953
v 0.6442136764526367 0.026176810264587402 1.418230414390564
v 0.7069700956344604 -0.013840556144714355 1.3997509479522705
v 0.7118947505950928 0.026158690452575684 1.398851752281189
v 0.751305103302002 -0.0138472318649292 1.3920433521270752
v 0.7611572742462158 -0.013848662376403809 1.3903305530548096
v 0.7315990924835205 0.026155710220336914 1.3954261541366577
v 0.7975651025772095 -0.01381075382232666 1.4246008396148682
v 0.8095583915710449 -0.013799071311950684 1.4352035522460938
v 0.6446404457092285 0.06617939472198486 1.420650839805603
v 0.7168194055557251 0.06615793704986572 1.397952675819397
v 0.7628670930862427 0.06616175174713135 1.4000972509384155
v 0.6870452165603638 0.10619211196899414 1.4309982061386108
v 0.7192809581756592 0.10615742206573486 1.3974817991256714
v 0.6109050512313843 0.14617371559143066 1.4162797927856445
v 0.6446375846862793 0.14617955684661865 1.4205653667449951
v 0.608440637588501 0.18617403507232666 1.4166653156280518
v 0.5629522800445557 -0.014122366905212402 1.1405887603759766
v 0.5487116575241089 -0.004163503646850586 1.102453351020813
v 0.5555629730224609 -0.006621241569519043 1.1418651342391968
v 0.5747295618057251 -0.01408088207244873 1.1791410446166992
v 0.5367075204849243 -0.003988385200500488 1.2669403553009033
v 0.5558744668960571 -0.01394808292388916 1.3042188882827759
v 0.5873562097549438 -0.013909459114074707 1.3393456935882568
v 0.5602612495422363 0.026094555854797363 1.3440132141113281
v 0.5456986427307129 0.026067018508911133 1.3186326026916504
v 0.5898193120956421 -0.01390981674194336 1.3389174938201904
v 0.6163748502731323 -0.01387035846710205 1.3749008178710938
v 0.6139103174209595 0.026129961013793945 1.375286340713501
v 0.5504084825515747 0.03609609603881836 1.3457152843475342
v 0.5966683626174927 0.046132445335388184 1.3782621622085571
v 0.640467643737793 -0.01383066177368164 1.4113123416900635
v 0.6030906438827515 0.06617212295532227 1.4151867628097534
v 0.7208890914916992 0.06615185737609863 1.3921700716018677
v 0.5598263740539551 0.10615408420562744 1.3998279571533203
v 0.6026595830917358 0.1461695432662964 1.4126384258270264
v 0.5598233938217163 0.18615424633026123 1.3997424840927124


vn -0.20355908572673798 -0.2279454618692398 -0.9521578550338745
vn -0.02758823335170746 -0.16443349421024323 -0.9860022664070129
vn -0.3010963797569275 0.2417031228542328 -0.9224535226821899
vn -0.5559389591217041 0.04979386180639267 -0.8297302722930908
vn -0.5559398531913757 0.04979521036148071 -0.8297297954559326
vn 0.025141648948192596 0.09652721136808395 -0.9950127601623535
vn 0.0 0.0 0.0
vn -0.11919841170310974 0.0317666232585907 -0.9923622012138367
vn 0.0 0.0 0.0
vn 0.0 0.0 0.0
vn 0.1855458766222 0.010660676285624504 -0.9825778007507324
vn -0.3464839458465576 0.05860042944550514 -0.9362236857414246
vn 0.025141648948192596 0.09652721136808395 -0.9950127601623535
vn -0.2135111391544342 0.17973318696022034 -0.9602649807929993
vn -0.7202522158622742 0.03616877272725105 -0.6927687525749207
vn 0.12560081481933594 0.08137668669223785 -0.9887377023696899
vn 0.21045003831386566 -0.0067892917431890965 -0.9775810241699219
vn 0.12601080536842346 0.017323223873972893 -0.991877555847168
vn 0.3619838058948517 0.9321843385696411 0.00042293756268918514
vn 0.0 0.0 0.0
vn 0.7171852588653564 0.6905707120895386 0.09358112514019012
vn 0.1522132009267807 0.9872026443481445 -0.04756168648600578
vn 0.3619838058948517 0.9321843385696411 0.00042293756268918514
vn 0.7072335481643677 0.4578644931316376 -0.5386844277381897
vn 0.6219360828399658 0.49229323863983154 -0.6089686155319214
vn 0.6116173267364502 0.412539541721344 -0.6750817894935608
vn 0.7731822729110718 0.45271095633506775 -0.4441191554069519
vn 0.6484495997428894 0.5466108918190002 -0.5298392176628113
vn 0.685797929763794 0.23082812130451202 -0.6902170777320862
vn 0.7571883797645569 0.32235482335090637 -0.5681137442588806
vn 0.4986533522605896 0.5980191230773926 -0.627469539642334
vn 0.5068144798278809 0.5511908531188965 -0.6628180742263794
vn 0.8963194489479065 0.30887502431869507 -0.31813159584999084
vn 0.49973437190055847 0.15145353972911835 -0.8528348803520203
vn -0.7904510498046875 -0.2569303810596466 -0.5560341477394104
vn 0.2505163848400116 -0.029475267976522446 -0.9676635265350342
vn 0.18297845125198364 0.1648859828710556 -0.9691911339759827
vn 0.0 0.0 0.0


f 12//12 1//1 2//2
f 12//12 2//2 3//3
f 1//1 5//5 4//4
f 1//1 12//12 5//5
f 14//14 12//12 3//3
f 14//14 3//3 11//11
f 13//13 6//6 8//8
f 17//17 11//11 34//34
f 14//14 11//11 17//17
f 14//14 15//15 12//12
f 17//17 16//16 18//18
f 22//22 19//19 23//23
f 19//19 21//21 23//23
f 24//24 27//27 26//26
f 24//24 26//26 25//25
f 26//26 28//28 25//25
f 28//28 26//26 29//29
f 26//26 30//30 29//29
f 26//26 27//27 31//31
f 32//32 26//26 31//31
f 30//30 26//26 32//32
f 33//33 29//29 30//30
f 8//8 4//4 5//5
f 32//32 34//34 30//30
f 30//30 34//34 33//33
f 35//35 8//8 12//12
f 8//8 5//5 12//12
f 17//17 34//34 36//36
f 37//37 17//17 36//36
f 37//37 16//16 17//17


