o Object.1
v -4.15214729309082 1.25800621509552 -4.592808246612549
v -4.1037983894348145 1.2581422328948975 -4.588496685028076
v -4.123793125152588 1.2582257986068726 -4.562875270843506
v -4.1472368240356445 1.2580622434616089 -4.584096908569336
v -4.097616195678711 1.2584465742111206 -4.53171443939209
v -4.112843036651611 1.250954508781433 -4.523082256317139
v -4.439839839935303 1.2797179222106934 -4.614437103271484
v -4.389788627624512 1.2769577503204346 -4.6885552406311035
v -4.370145320892334 1.27718186378479 -4.653711318969727
v -4.385346412658691 1.2774240970611572 -4.599224090576172
v -4.350478172302246 1.2674061059951782 -4.618816375732422
v -4.33085298538208 1.2751301527023315 -4.584011077880859
v -4.380898475646973 1.2753902673721313 -4.509880065917969
v -4.311197757720947 1.270354151725769 -4.549141883850098
v -4.326416492462158 1.278096318244934 -4.494692802429199
v -4.306779384613037 1.280820369720459 -4.459861755371094
v -4.341623306274414 1.2808383703231812 -4.440217971801758
v -4.271923065185547 1.2758023738861084 -4.479479789733887
v -4.45068359375 1.297691822052002 -4.5166015625
v -4.435398101806641 1.280184268951416 -4.525105953216553
v -4.424507141113281 1.29791259765625 -4.485440731048584
v -4.396111488342285 1.2806323766708374 -4.455418586730957
v -4.411341667175293 1.2933744192123413 -4.400994777679443
v -4.406442642211914 1.2984304428100586 -4.392309188842773
v -4.378643989562988 1.2985916137695312 -4.373542785644531
v -4.356818675994873 1.278580665588379 -4.38571834564209
v -4.511842250823975 1.337254285812378 -4.574215888977051
v -4.529295921325684 1.332029104232788 -4.610261917114258
v -4.712592124938965 1.3374316692352295 -4.4466938972473145
v -4.633081912994385 1.337507724761963 -4.468559265136719
v -4.594507217407227 1.317531943321228 -4.4815673828125
v -4.647055149078369 1.337763786315918 -4.411893844604492
v -4.679402828216553 1.3203102350234985 -4.387805938720703
v -4.609714031219482 1.3202741146087646 -4.427092552185059
v -4.55966854095459 1.3200137615203857 -4.501223564147949
v -4.470336437225342 1.3202017545700073 -4.505666732788086
v -4.590059280395508 1.3154982328414917 -4.392223358154297
v -4.481223106384277 1.3379411697387695 -4.453723907470703
v -4.651206970214844 1.3381321430206299 -4.337806701660156
v -4.60527229309082 1.3207402229309082 -4.337761878967285
v -4.513846397399902 1.3381924629211426 -4.3894147872924805
v -4.431020736694336 1.308150053024292 -4.435914993286133
v -4.6204729080200195 1.3209824562072754 -4.283274173736572
v -4.550790309906006 1.323446273803711 -4.322574138641357
v -4.470247745513916 1.3384041786193848 -4.368076324462891
v -4.446262836456299 1.3258919715881348 -4.38151741027832
v -4.572559833526611 1.3386917114257812 -4.264480113983154
v -4.600823879241943 1.3187066316604614 -4.248417854309082
v -4.537321090698242 1.3386001586914062 -4.2986955642700195
v -4.463836669921875 1.2972302436828613 -4.601021766662598
v -4.4507269859313965 1.2974576950073242 -4.56249475479126
v -4.609304428100586 1.2952849864959717 -4.9150543212890625
v -4.581761360168457 1.2676832675933838 -4.947624206542969
v -4.549073219299316 1.2956342697143555 -4.874393463134766
v -4.531490325927734 1.2957570552825928 -4.8584771156311035
v -4.45314884185791 1.2708191871643066 -4.882392406463623
v -4.4335174560546875 1.276043176651001 -4.847574234008789
v -4.4183220863342285 1.2783010005950928 -4.902073860168457
v -4.499569892883301 1.2961211204528809 -4.80185604095459
v -4.483574390411377 1.2813034057617188 -4.773468971252441
v -4.413891792297363 1.2837672233581543 -4.812768459320068
v -4.496633052825928 1.2965443134307861 -4.720285415649414
v -4.429086685180664 1.281509518623352 -4.758268356323242
v -4.374587535858154 1.2767155170440674 -4.743042469024658
v -4.826300144195557 1.3357189893722534 -4.729844093322754
v -4.8758416175842285 1.3205692768096924 -4.7362565994262695
v -4.856227874755859 1.3332931995391846 -4.701476573944092
v -4.771320343017578 1.325514793395996 -4.795212745666504
v -4.736499309539795 1.3354966640472412 -4.814907073974609
v -4.85377836227417 1.3358211517333984 -4.697134017944336
v -4.664546012878418 1.335927963256836 -4.763635158538818
v -4.68198823928833 1.3257027864456177 -4.799655914306641
v -4.641028881072998 1.335754632949829 -4.808461666107178
v -4.64715576171875 1.3306846618652344 -4.819324493408203
v -4.610101699829102 1.3358995914459229 -4.794328212738037
v -4.575960159301758 1.3364968299865723 -4.693041801452637
v -4.5140533447265625 1.3142873048782349 -4.6646599769592285
v -4.642748832702637 1.3461506366729736 -4.730070114135742
v -4.657955646514893 1.3488928079605103 -4.675595760345459
v -4.762495040893555 1.3514471054077148 -4.616677761077881
v -4.777707576751709 1.356689214706421 -4.562215805053711
v -4.708024978637695 1.3591530323028564 -4.601515769958496
v -4.485701084136963 1.296772837638855 -4.680531024932861
v -4.577419281005859 1.310648798942566 -4.8585100173950195
v -4.5381269454956055 1.3085970878601074 -4.788809299468994
v -4.539129257202148 1.3369170427322388 -4.62770938873291
v -3.5489096641540527 1.204491138458252 -5.070298194885254
v -3.494410276412964 1.1996972560882568 -5.05507230758667
v -3.4595894813537598 1.2096790075302124 -5.074767112731934
v -3.4399521350860596 1.2124029397964478 -5.03993558883667
v -3.4551355838775635 1.2051453590393066 -4.985410213470459
v -3.4203147888183594 1.2151269912719727 -5.0051045417785645
v -3.4203639030456543 1.2173928022384644 -5.051010608673096
v -3.365797519683838 1.2028331756591797 -4.989840507507324
v -3.350614070892334 1.2100909948349 -5.044366359710693
v -3.4506874084472656 1.2031115293502808 -4.896066188812256
v -3.4855377674102783 1.2056297063827515 -4.876435279846191
v -3.4158549308776855 1.208093523979187 -4.915735244750977
v -3.380992889404297 1.2005754709243774 -4.935340404510498
v -3.346177816390991 1.2130571603775024 -4.955047607421875
v -3.3113040924072266 1.2005393505096436 -4.974627494812012
v -3.29610276222229 1.2002971172332764 -5.029114723205566
v -3.9017841815948486 1.199205756187439 -4.963169097900391
v -3.7624125480651855 1.2016334533691406 -5.041755676269531
v -3.727585792541504 1.2091152667999268 -5.061437129974365
v -3.6578850746154785 1.2040791511535645 -5.100698947906494
v -3.723137617111206 1.2070815563201904 -4.97209358215332
v -3.6185927391052246 1.2020273208618164 -5.030998229980469
v -3.8428778648376465 1.2098779678344727 -4.8586883544921875
v -3.7731597423553467 1.1973419189453125 -4.897911548614502
v -3.6838629245758057 1.2125295400619507 -4.902431488037109
v -3.5793001651763916 1.1999754905700684 -4.961297988891602
v -3.6990463733673096 1.2052719593048096 -4.84790563583374
v -3.594501495361328 1.2002177238464355 -4.906810760498047
v -3.559657096862793 1.2001996040344238 -4.926454067230225
v -3.7839303016662598 1.2030502557754517 -4.754118919372559
v -3.7142298221588135 1.1980141401290894 -4.793380260467529
v -3.6793971061706543 1.202996015548706 -4.81304931640625
v -3.609696626663208 1.1979598999023438 -4.852310657501221
v -3.574875831604004 1.2079417705535889 -4.872005462646484
v -3.540025472640991 1.2054237127304077 -4.891635894775391
v -3.7294485569000244 1.2057563066482544 -4.738930702209473
v -3.659748077392578 1.200720191001892 -4.778192520141602
v -3.624903678894043 1.2007020711898804 -4.797835826873779
v -3.5552148818969727 1.2006659507751465 -4.837122917175293
v -3.520376205444336 1.2031477689743042 -4.856779098510742
v -3.6033856868743896 1.1992851495742798 -5.08547306060791
v -3.892888069152832 1.1951383352279663 -4.784481048583984
v -3.858055591583252 1.200120210647583 -4.804150104522705
v -3.923313856124878 1.205622673034668 -4.6755571365356445
v -3.868814468383789 1.2008286714553833 -4.660331726074219
v -3.9036412239074707 1.1933469772338867 -4.640649795532227
v -3.8339757919311523 1.203310489654541 -4.679987907409668
v -3.9344921112060547 1.2167224884033203 -4.944842338562012
v -3.9354422092437744 1.2167375087738037 -4.941436767578125
v -3.9169793128967285 1.1969480514526367 -4.908668518066406
v -3.897347927093506 1.202172040939331 -4.873850345611572
v -3.9280452728271484 1.2162505388259888 -5.040311813354492
v -3.8865890502929688 1.2014634609222412 -5.017668724060059
v -3.871381998062134 1.1987214088439941 -5.0721435546875
v -3.816905975341797 1.2039272785186768 -5.056968688964844
v -3.747211456298828 1.2013912200927734 -5.096242904663086
v -4.617808818817139 0.9347682595252991 -5.01125955581665
v -4.629069805145264 0.9747441411018372 -5.010908126831055
v -4.620358467102051 0.9747396111488342 -5.015819072723389
v -4.619981288909912 0.8147421479225159 -5.015002727508545
v -4.618753433227539 0.8147561550140381 -5.012825012207031
v -4.620152473449707 0.887241005897522 -5.0153727531433105


vn 0.0 0.0 0.0
vn 0.0 0.0 0.0
vn 0.002350111435547343 -0.9999841787769348 0.005110691935553387
vn 0.2955250949387172 -0.91542986605934 -0.2732271556563162
vn 0.29787520637426457 -1.9154140448362749 -0.2681164637207628
vn 0.2955250949387172 -0.91542986605934 -0.2732271556563162
vn -1.3940425994388104 -2.445671074745099 0.2315743788952724
vn -0.21538946946701368 -0.968148773707557 0.1276531566835381
vn -0.8496330345597815 -1.9447948559949795 -0.9347861042230872
vn 0.15116299609856051 -0.9533530269812431 -0.6852169976627651
vn -0.26088871647158507 -1.9243799485312976 0.0866068819812165
vn -0.12226463857377362 -1.9444336312334296 0.14476131376649154
vn -0.0786311510936109 -2.9892779468252675 0.15900601542674808
vn -0.07964554059879261 -1.9810365991140921 -0.01342075943469645
vn -0.16736155225314614 -2.9741699513341886 0.284465611202636
vn -0.04212043919031255 -1.9876442259057852 0.17919510295120789
vn -0.2542217476280219 -1.962538163031637 -0.01510155515799809
vn -0.1502177918808587 -1.979913356233212 0.23953646236953013
vn -0.5689817898131719 -1.5504185391617833 0.7631808645854068
vn -1.016319912362929 -1.2568792166289704 0.7607752288782293
vn -1.3086666241069471 -0.9712624687651266 0.6787261009890583
vn -1.118572787419876 -2.0654437051478842 0.8569526384304303
vn -0.6213366793521266 -2.663560911831107 0.7153484463943223
vn -0.6950120652603935 -1.4233436736696592 1.2205667178876256
vn -0.3712580405843786 -0.7434149278827539 0.5563287807605568
vn -0.595174746411739 -1.668917436240728 0.5080475637215702
vn -0.3808207697702078 -0.9246487024795814 0.0005641936308156577
vn 0.0 0.0 0.0
vn 0.28266273736805747 -0.8665816155019869 -0.41126400350330067
vn -0.6332238879443832 -0.7731531978243315 0.03551957813107299
vn 0.0 0.0 0.0
vn -0.10753442495381382 -1.894095377370463 -0.3743480573303807
vn -0.030186848688517953 -1.69165181496933 0.05925092979334595
vn -0.8998132211761194 -1.7367899760310639 0.053803097879929096
vn 0.6344730003452184 -1.8945331799518863 0.048003745499495196
vn 0.7004163150701126 -0.6176152613280389 0.3577266757711855
vn 0.009045110131904732 -1.9100884913681733 0.1863751860663444
vn 0.16238306782826306 -1.4517648323426564 0.47903091328381403
vn -0.3524378156272447 -0.9310840120324454 -0.09418146661345442
vn -0.27846243162288487 -2.881854794413856 -0.011973098278759697
vn 0.6540468262696262 -2.886372961305047 0.0431995291593799
vn -0.5380332472418495 -0.8341495710146176 0.12130423751262853
vn -0.08245952400136213 -0.9964213082742938 -0.018574264949479564
vn 0.32367485811250835 -1.8372978248601255 0.6034468614871001
vn 0.0 0.0 0.0
vn -0.5380332472418495 -0.8341495710146176 0.12130423751262853
vn 0.9031705030298254 -1.6963127439664465 0.31022766958775516
vn 0.4764316209571785 -1.8243478958220374 -0.06524603070223597
vn 0.3442793580712848 -0.868386156418703 0.35689943534051155
vn -1.0036221029477985 -0.8453420709594663 -0.6917341804503662
vn -1.5435023884231076 -1.2688831418417081 0.04659711092235389
vn 0.0 0.0 0.0
vn 0.0 0.0 0.0
vn 0.0 0.0 0.0
vn 0.0 0.0 0.0
vn 0.2847710631700967 -1.966488655328885 0.13448337819940998
vn 0.1827680565868706 -1.972942486887184 0.26350271745972514
vn 0.22152098529940967 -0.9749213257643569 0.021374322020771507
vn -1.2958271258479632 -1.510252707535491 -0.058163373481412706
vn -0.1492072790489087 -0.977121810944069 1.1136011388702447
vn -0.0163790842990417 -0.9956736561257318 -0.09146417929847137
vn -0.34526330617420853 -1.947235790851137 0.2842462580636436
vn -0.4672689709994285 -1.9382089923008234 1.3790156208041902
vn -0.14625292100623652 -1.9747606732693117 0.06512892208163415
vn 0.6037980481379734 -0.5346050739501267 0.5912912412437318
vn 0.0 0.0 0.0
vn 0.6037980481379734 -0.5346050739501267 0.5912912412437318
vn 0.6037980481379734 -0.5346050739501267 0.5912912412437318
vn 0.0 0.0 0.0
vn 0.0 0.0 0.0
vn 0.22865301410770786 -0.9599703808299728 0.16178586795087282
vn 0.22865301410770786 -0.9599703808299728 0.16178586795087282
vn -0.23180706352513458 -0.8248109596620237 0.5157056971968272
vn -0.5507647787615071 -1.5399136732949985 1.1377138039333463
vn -0.5917522610842099 -1.7510074725588423 0.6279530769075871
vn 0.0 0.0 0.0
vn -0.3599451975590752 -0.9261965128968187 0.11224737971075985
vn 0.0 0.0 0.0
vn 0.0 0.0 0.0
vn 0.0 0.0 0.0
vn 0.0 0.0 0.0
vn 0.0 0.0 0.0
vn 0.0 0.0 0.0
vn 0.0 0.0 0.0
vn -0.6789029127954477 -1.6412992265297937 0.7342554864472788
vn 0.0 0.0 0.0
vn 0.0 0.0 0.0
vn 0.23338186163451663 -1.9669397662842623 -0.013600036365006056
vn 0.2428911648941797 -0.9681193510724475 -0.06122747827088312
vn 0.46447167182975196 -2.931962992653128 -0.03256460095294881
vn 0.13417045534677316 -2.789333233014668 -0.8581716013603838
vn -0.06908385019382118 -1.8500841305377462 -0.42759327256666296
vn 0.0 0.0 0.0
vn -0.27627088057018906 -2.8623394059123557 0.4706830837235907
vn -0.2984979486508 -1.9472899180589534 -0.34232030626620774
vn 0.0858361560460966 -1.9892255094958804 0.028619244226942862
vn 0.022428205112810788 -1.9961230536150676 -0.053344733385848137
vn -0.017511346874277828 -1.9738050175701387 0.09339020900442513
vn 0.013108186378353232 -1.9177316072723471 -0.19444242627792213
vn 0.01961614719162305 -1.862562667492175 0.03274116784835501
vn -0.17673187563329204 -1.926138662703949 0.34263432304133973
vn -0.0401700751315047 -0.9991699553997173 -0.00676500483785266
vn 0.03726590187843883 -2.9920072689078125 -0.18760101555117686
vn 0.2265843291218804 -2.9356644412412947 -0.36614486682206016
vn -0.036189923955009855 -1.952860064754324 -0.281838472299252
vn -0.08245939083882865 -0.9964212591625968 -0.018577490447160908
vn 0.23166040762905593 -2.9471707606832163 0.09987954246352627
vn -0.05281115061545208 -2.996023744185455 0.13145005259993736
vn -0.10055648951498575 -2.9058818019159336 0.2611055898903918
vn 0.20136092251953905 -2.9157769379920992 0.23141104429621012
vn -0.154095939385554 -2.8946005701235964 -0.3687458599670894
vn 0.967667155107378 -0.004907615907579155 -0.5097845589612608
vn 0.05440113577587187 -2.9777204690540473 -0.10695664296222693
vn -0.07614077286315406 -2.9332861416918248 0.47840530247725244
vn 1.805472993532279 -0.9922455069292891 -0.8690592395832797
vn 0.12535291379793803 -2.981120399760561 0.24474643214707065
vn 0.032311348229684234 -2.959174738484079 0.13636903551864016
vn 0.13127717009698875 -2.9799106248966156 -0.2685677705396933
vn 0.014714578880137955 -2.924211317611367 -0.2747691779277299
vn 0.12685483497199826 -2.9175901318439186 -0.2581914263009482
vn 0.8146597080584614 -1.993385021967015 -0.5893900950781599
vn 0.050133547790965446 -1.9883149301869558 0.1744237980669698
vn -0.019070440175086856 -1.98802418374505 0.09404669753998758
vn 0.0047068065931800615 -1.99607362192454 0.01018671092387246
vn -0.0016200017270580694 -1.9797532418028214 -0.1259038925499436
vn -0.008598292166051773 -1.9785434655723997 -0.2650597896343589
vn -0.16912656260434503 -2.992219149728492 0.038087825321414914
vn -0.04187831063828095 -2.960346870097969 -0.12929068681181535
vn 0.17709042413941048 -1.9476213744730326 -0.3658520945548543
vn 0.011484115799333575 -0.9412622130546144 -0.3374812014910417
vn 0.09863707711629854 -1.9370424533868364 -0.3087396932218902
vn 0.011484115799333575 -0.9412622130546144 -0.3374812014910417
vn 0.1472789042103288 -1.99299677519108 0.07283293141783179
vn -0.5425733337346609 -0.8193349874582139 -0.18521435108248188
vn -0.5781072637629067 -0.8005663435345669 -0.1577514538261345
vn -0.586859205699985 -1.7887237145798545 -0.004557414904262647
vn 0.16463255001664723 -1.9648543333445343 0.02669952605521783
vn -0.27654920961279345 -0.9538972667958587 -0.11662134908295951
vn -0.5995782899362714 -2.900830907140707 -0.20046742460156916
vn 0.2804729398510083 -1.0027721892799761 -0.9096674782825254
vn 0.3096891262205472 -0.9601579357345336 -1.2540879759108992
vn 0.0 0.0 0.0
vn 0.0 0.0 0.0
vn 0.0 0.0 0.0
vn 0.0 0.0 0.0
vn 0.0 0.0 0.0
vn 0.0 0.0 0.0
vn 0.0 0.0 0.0


f 3//3 5//5 4//4
f 5//5 6//6 4//4
f 7//7 9//9 11//11
f 7//7 11//11 10//10
f 10//10 11//11 12//12
f 10//10 12//12 7//7
f 7//7 15//15 13//13
f 7//7 12//12 14//14
f 7//7 14//14 15//15
f 15//15 14//14 18//18
f 13//13 15//15 16//16
f 13//13 16//16 17//17
f 15//15 18//18 16//16
f 51//51 20//20 19//19
f 19//19 22//22 21//21
f 46//46 21//21 23//23
f 23//23 21//21 22//22
f 46//46 23//23 24//24
f 25//25 24//24 26//26
f 26//26 24//24 23//23
f 29//29 32//32 40//40
f 29//29 40//40 33//33
f 32//32 30//30 40//40
f 40//40 30//30 34//34
f 35//35 27//27 41//41
f 41//41 27//27 36//36
f 40//40 34//34 37//37
f 38//38 41//41 36//36
f 39//39 33//33 40//40
f 37//37 35//35 41//41
f 37//37 41//41 40//40
f 46//46 38//38 42//42
f 39//39 40//40 43//43
f 41//41 44//44 40//40
f 40//40 47//47 48//48
f 40//40 48//48 43//43
f 40//40 44//44 47//47
f 44//44 49//49 47//47
f 7//7 50//50 9//9
f 7//7 51//51 50//50
f 20//20 51//51 7//7
f 20//20 7//7 13//13
f 20//20 13//13 19//19
f 19//19 13//13 22//22
f 22//22 13//13 17//17
f 22//22 17//17 23//23
f 23//23 17//17 26//26
f 56//56 58//58 57//57
f 59//59 56//56 60//60
f 60//60 56//56 57//57
f 57//57 61//61 60//60
f 60//60 62//62 59//59
f 60//60 63//63 62//62
f 60//60 61//61 64//64
f 60//60 64//64 63//63
f 9//9 62//62 8//8
f 63//63 64//64 62//62
f 67//67 68//68 65//65
f 74//74 71//71 72//72
f 75//75 73//73 74//74
f 74//74 85//85 75//75
f 85//85 77//77 75//75
f 108//108 88//88 91//91
f 88//88 89//89 90//90
f 88//88 90//90 91//91
f 91//91 90//90 92//92
f 90//90 95//95 92//92
f 92//92 95//95 94//94
f 92//92 94//94 91//91
f 95//95 102//102 94//94
f 108//108 91//91 96//96
f 108//108 96//96 97//97
f 91//91 98//98 96//96
f 91//91 99//99 98//98
f 91//91 94//94 100//100
f 91//91 100//100 99//99
f 94//94 102//102 101//101
f 94//94 101//101 100//100
f 105//105 106//106 127//127
f 104//104 107//107 103//103
f 104//104 105//105 107//107
f 103//103 107//107 110//110
f 107//107 105//105 114//114
f 105//105 127//127 114//114
f 127//127 108//108 112//112
f 127//127 112//112 114//114
f 110//110 107//107 111//111
f 107//107 114//114 111//111
f 109//109 110//110 117//117
f 117//117 110//110 113//113
f 110//110 111//111 113//113
f 114//114 112//112 115//115
f 117//117 113//113 118//118
f 113//113 111//111 119//119
f 111//111 114//114 120//120
f 111//111 120//120 119//119
f 114//114 115//115 121//121
f 114//114 121//121 120//120
f 116//116 117//117 122//122
f 116//116 122//122 133//133
f 117//117 118//118 123//123
f 117//117 123//123 122//122
f 118//118 113//113 124//124
f 118//118 124//124 123//123
f 113//113 119//119 124//124
f 119//119 120//120 125//125
f 119//119 125//125 124//124
f 120//120 121//121 126//126
f 120//120 126//126 125//125
f 127//127 88//88 108//108
f 112//112 108//108 115//115
f 115//115 108//108 121//121
f 121//121 108//108 97//97
f 121//121 97//97 126//126
f 130//130 128//128 131//131
f 130//130 131//131 132//132
f 128//128 133//133 131//131
f 135//135 134//134 136//136
f 136//136 134//134 103//103
f 136//136 103//103 110//110
f 136//136 110//110 137//137
f 137//137 110//110 109//109
f 137//137 109//109 129//129
f 129//129 109//109 117//117
f 129//129 117//117 128//128
f 128//128 117//117 116//116
f 128//128 116//116 133//133
f 138//138 140//140 139//139
f 138//138 139//139 103//103
f 139//139 140//140 104//104
f 139//139 104//104 103//103
f 140//140 141//141 104//104
f 141//141 105//105 104//104


