o Object.1
v -1.5113472938537598 1.1724696159362793 2.0941457748413086
v -1.5300328731536865 1.1701070070266724 2.147545337677002
v -1.4043434858322144 1.1832554340362549 2.264557361602783
v -1.4419304132461548 1.1655904054641724 2.2383339405059814
v -1.4058945178985596 1.168108344078064 2.220975160598755
v -2.0903148651123047 0.9952688813209534 2.5512046813964844
v -2.0842013359069824 0.9829184412956238 2.5927085876464844
v -2.0452117919921875 0.7058701515197754 3.4630136489868164
v -1.9979078769683838 0.7058936953544617 3.4402408599853516
v -2.0629022121429443 0.6660538911819458 3.529968500137329
v -2.062236785888672 0.6661549806594849 3.560168504714966
v -2.0631489753723145 0.6658614873886108 3.471820831298828
v -2.0569777488708496 0.6260113716125488 3.513415575027466
v -2.0391242504119873 0.7060197591781616 3.504476308822632
v -2.032377004623413 0.7110230326652527 3.501206636428833
v -2.0692131519317627 0.664475679397583 3.055776834487915
v -2.058457612991333 0.6648381948471069 3.1588082313537598
v -2.0586249828338623 0.6648747324943542 3.169987201690674
v -2.055879592895508 0.6252793073654175 3.290919780731201
v -2.0803964138031006 0.7046805024147034 3.1248040199279785
v -2.02901554107666 0.7052921652793884 3.2776427268981934
v -2.044386625289917 0.7196983098983765 3.1074039936065674
v -2.0110316276550293 0.7228009700775146 3.268909454345703
v -2.065643310546875 0.665420651435852 3.339841365814209
v -2.0657267570495605 0.7054203748703003 3.3397092819213867
v -2.0730435848236084 0.624098539352417 2.9440348148345947
v -2.094153881072998 0.7042341232299805 2.998246669769287
v -2.0750505924224854 0.7110109329223633 2.7670507431030273
v -2.0763909816741943 0.7113032937049866 2.856482744216919
v -2.0417110919952393 0.7216134667396545 2.9285314083099365
v -2.074951410293579 0.6635112762451172 2.767207384109497
v -2.0939676761627197 0.7032085061073303 2.6874027252197266
v -2.088047742843628 0.7033946514129639 2.740044593811035
v -2.0737102031707764 0.7107185125350952 2.6776182651519775
v -2.0942375659942627 0.7042523622512817 3.003836154937744
v -2.0430514812469482 0.7219058871269226 3.0179636478424072
v -2.0885226726531982 0.6620392203330994 2.329805850982666
v -2.080610752105713 0.6627758145332336 2.547964572906494
v -2.115473985671997 0.7022362351417542 2.406424045562744
v -2.1056883335113525 0.689823567867279 2.4267382621765137
v -2.088301658630371 0.6724788546562195 2.462836742401123
v -2.08903431892395 0.7026248574256897 2.5074539184570312
v -2.083198070526123 0.7028293013572693 2.565685272216797
v -2.0836169719696045 0.7029206156730652 2.593632698059082
v -2.08111834526062 0.6231513023376465 2.662139415740967
v -2.079033136367798 0.663170337677002 2.6665124893188477
v -2.0910449028015137 0.703063428401947 2.6416022777557373
v -2.0705792903900146 0.3461529016494751 3.5655622482299805
v -2.0685770511627197 0.4661531448364258 3.564081907272339
v -2.065570831298828 0.426008403301239 3.518413543701172
v -2.0611491203308105 0.46601033210754395 3.5161125659942627
v -2.0634851455688477 0.5060089230537415 3.5170650482177734
v -2.061399459838867 0.5860094428062439 3.515716552734375
v -2.069397449493408 0.30542123317718506 3.343198299407959
v -2.0650486946105957 0.3804228901863098 3.3407821655273438
v -2.070131778717041 0.4245409369468689 3.076674461364746
v -2.066967010498047 0.42483556270599365 3.16393780708313
v -2.072812557220459 0.4251255989074707 3.2555389404296875
v -2.0652260780334473 0.4654221534729004 3.340501546859741
v -2.06256103515625 0.47233736515045166 3.1616122722625732
v -2.0679709911346436 0.5849804878234863 3.2081258296966553
v -2.0641417503356934 0.4654318690299988 3.3427538871765137
v -2.060971975326538 0.5054607391357422 3.349379539489746
v -2.073115825653076 0.3035237193107605 2.7706480026245117
v -2.078955888748169 0.4235108494758606 2.7701683044433594
v -2.0728774070739746 0.4641363024711609 2.9557418823242188
v -2.0766282081604004 0.5039510130882263 2.901883602142334
v -2.077444553375244 0.5740966796875 2.94636869430542
v -2.0697786808013916 0.34351587295532227 2.76609468460083
v -2.073376417160034 0.5507197380065918 2.6781463623046875
v -2.0895400047302246 0.3029201626777649 2.5982062816619873
v -2.088608741760254 0.38218748569488525 2.375446319580078
v -2.083191394805908 0.3824833631515503 2.461625099182129
v -2.092527151107788 0.4220389127731323 2.3327667713165283
v -2.0904414653778076 0.50203937292099 2.331418514251709
v -2.0878894329071045 0.47498035430908203 2.463488817214966
v -2.08601975440979 0.5420413017272949 2.3291175365448
v -2.0828700065612793 0.42313337326049805 2.658294200897217
v -2.0694832801818848 0.025569438934326172 3.388838529586792
v -2.0633957386016846 0.025719046592712402 3.4303014278411865
v -2.0658152103424072 0.10571718215942383 3.431121826171875
v -2.0636463165283203 0.14571821689605713 3.429905414581299
v -2.0638132095336914 0.22571754455566406 3.4296412467956543
v -2.0716607570648193 0.10600733757019043 3.5227227210998535
v -2.0670878887176514 0.07350993156433105 3.5206613540649414
v -2.0671868324279785 0.12100958824157715 3.5205044746398926
v -2.070742607116699 0.2659793496131897 3.51326847076416
v -2.0719947814941406 0.2660062313079834 3.5221948623657227
v -2.0674686431884766 0.2560085654258728 3.520059108734131
v -2.0684876441955566 -0.014136791229248047 3.477318286895752
v -2.062483549118042 0.026012420654296875 3.518649101257324
v -2.064814329147339 0.14572679996490479 3.4332423210144043
v -2.0583958625793457 0.22601330280303955 3.515820264816284
v -2.078977584838867 0.02468562126159668 3.1270484924316406
v -2.0778098106384277 -0.015304327011108398 3.1294331550598145
v -2.0773117542266846 -0.015166759490966797 3.1708121299743652
v -2.0757293701171875 -0.015019536018371582 3.2144436836242676
v -2.075812816619873 0.02498018741607666 3.2143115997314453
v -2.0727272033691406 0.02504587173461914 3.232248544692993
v -2.069725275039673 0.02512979507446289 3.255774736404419
v -2.075807809829712 0.06471443176269531 3.133674144744873
v -2.0621390342712402 0.06542634963989258 3.3407373428344727
v -2.0710463523864746 0.10439586639404297 3.0340991020202637
v -2.069385051727295 0.10477221012115479 3.147057294845581
v -2.075979709625244 0.1049795150756836 3.21404767036438
v -2.062222480773926 0.10542595386505127 3.3406052589416504
v -2.0646419525146484 0.1854243278503418 3.3414254188537598
v -2.0623061656951904 0.10544419288635254 3.3461947441101074
v -2.060220718383789 0.1454634666442871 3.3505678176879883
v -2.0637245178222656 0.2654333710670471 3.343414068222046
v -2.0811233520507812 -0.016551494598388672 2.7536840438842773
v -2.0802903175354004 -0.0164870023727417 2.772705078125
v -2.0764553546905518 -0.016338586807250977 2.8152523040771484
v -2.0829710960388184 -0.015902280807495117 2.951569080352783
v -2.078465700149536 0.02408146858215332 2.943678855895996
v -2.076883554458618 -0.015752673149108887 2.993032217025757
v -2.0792195796966553 0.0242459774017334 2.9939844608306885
v -2.07631254196167 0.0316007137298584 2.9481592178344727
v -2.074127674102783 0.0641016960144043 2.946967601776123
v -2.07204270362854 0.06413936614990234 2.957062244415283
v -2.0764377117156982 0.09160041809082031 2.9479613304138184
v -2.0766305923461914 0.18409967422485352 2.94765567779541
v -2.0699517726898193 0.22385549545288086 2.869354486465454
v -2.0741169452667236 0.26351428031921387 2.7685275077819824
v -2.0732884407043457 0.26382607221603394 2.8624649047851562
v -2.0789499282836914 -0.016779422760009766 2.6832728385925293
v -2.0775344371795654 0.06336736679077148 2.726640224456787
v -2.0867950916290283 0.18336200714111328 2.730581760406494
v -2.075301170349121 -0.015605330467224121 3.0366640090942383
v -2.077637195587158 0.024393320083618164 3.03761625289917
v -2.098534107208252 -0.01792466640472412 2.34865140914917
v -2.0967841148376465 -0.017813920974731445 2.381103992462158
v -2.1029553413391113 0.022036314010620117 2.3395090103149414
v -2.0868983268737793 -1.5974044799804688e-05 2.4650564193725586
v -2.083026885986328 -0.01736748218536377 2.507661819458008
v -2.0914554595947266 -0.017252564430236816 2.5477888584136963
v -2.092707395553589 -0.01722574234008789 2.556715488433838
v -2.078279733657837 -0.016925573348999023 2.638556480407715
v -2.0873734951019287 0.02306962013244629 2.6427621841430664
v -2.1007862091064453 0.062037110328674316 2.3382928371429443
v -2.086367130279541 0.14279472827911377 2.558523654937744
v -2.0920262336730957 0.18204069137573242 2.3335587978363037
v -2.085026502609253 0.18248379230499268 2.463369607925415
v -2.0882747173309326 0.22218871116638184 2.375974655151367
v -2.0896148681640625 0.2624625563621521 2.4596848487854004


vn 0.0 0.0 0.0
vn 0.0 0.0 0.0
vn 0.0 0.0 0.0
vn 0.0 0.0 0.0
vn 0.0 0.0 0.0
vn 0.0 0.0 0.0
vn 0.0 0.0 0.0
vn -1.8048849912240517 0.8412229563916036 0.14552368835652743
vn 0.0 0.0 0.0
vn 0.0 0.0 0.0
vn -1.8371135301371868 0.6058930528266431 -0.18577862523983377
vn -2.957813614422069 0.07432625397646382 0.28328009577432867
vn -2.9247831531691517 0.07550624048537494 0.07566706823831826
vn -1.7545151995775168 0.9383365561215788 0.1368765976398211
vn 0.0 0.0 0.0
vn -1.927631980568354 -0.2736810853104722 0.3711070796885541
vn -2.9902126468350234 0.008261030036598657 0.16835081724068926
vn -2.902157368139514 0.5124176420534252 0.020007389272010373
vn -1.97786419648211 0.04704867863070821 -0.07585962837815358
vn -1.273397356494694 0.7809675289847784 0.42496158176012494
vn -2.166063741878283 1.5087351913395621 -0.13419533653225246
vn -0.34231000918153026 0.18349977696959396 -0.5500420824633756
vn 0.0 0.0 0.0
vn -1.984962661368225 -0.06667424033860589 -0.14602162777858335
vn 0.0 0.0 0.0
vn -1.9834788432479142 0.08360749362517458 -0.06963522041711233
vn -1.090249760983635 2.7851190718612893 -0.012233188253910156
vn -0.9794249241343332 1.7436488952431364 -0.020380090792808017
vn -0.7928234741470801 1.8247318717114156 -0.0006517939571271877
vn -0.324055673863287 0.946004703276502 -0.007938615480577808
vn -1.2196965643670619 -0.2842900299865338 -0.3520040678843012
vn -2.1952994358754108 1.1189774889949065 0.3487576715013838
vn -1.486910179579421 0.875361587602571 0.06453181701834966
vn -0.8225958472212107 1.8141756579340103 0.023912506272084213
vn -1.3165215273703132 0.824339675721138 -0.022400658646120418
vn 0.0 0.0 0.0
vn -1.7574059973833345 -0.6714575168295259 0.055612513977383815
vn -2.9905778645062338 -0.1390176206580325 0.05529856445852052
vn -0.8058956461807962 -0.5914500144943887 0.026815812898813275
vn -1.5635249360869272 -1.2420352519409126 0.07912936652482663
vn -0.757629289906131 -0.650585237446524 0.052313553626013365
vn 0.0 0.0 0.0
vn 0.0 0.0 0.0
vn -0.9755814655462705 -0.15988617424197887 -0.15058955929563822
vn -2.979440324153653 -0.09580292572067549 -0.1550527135866393
vn -1.5928581498315715 0.11351200216362643 -0.279254127616514
vn -1.8766109592906683 -0.16033643876767886 0.2831680327584617
vn 0.0 0.0 0.0
vn 0.0 0.0 0.0
vn -2.980158200951214 0.10596217765201797 -0.2781629403423551
vn -1.9916793383392464 0.053322758528347954 0.010500550008685597
vn -1.9977638758298735 -0.032141105112962615 -0.029836218555305546
vn -1.9759677586872693 0.12263546363507266 -0.20803929317797204
vn -2.0886125936079742 -0.10067668147467515 -1.0269012701512061
vn -2.0299490808541747 -0.026439438577041747 -0.46728291114840154
vn -1.9940538979389675 0.053333658972651826 0.04512331498493485
vn -2.9870164816912474 0.12915659928930823 -0.03892423160592788
vn -2.9385830940697675 0.26025837631294907 -0.006904723768390922
vn -1.986558147223486 0.18113259591878536 0.08994038516454317
vn -1.9825332100582909 0.04910682652993571 -0.1972010232689725
vn -2.97606263959168 0.1975562697806659 0.15605686503519606
vn -0.9010255102201312 -0.0004480188715802687 0.4337658691179413
vn -2.9772409216482445 0.08042312956665405 -0.08736211597592176
vn -1.9907575019843142 0.03284437423667014 0.07128693779005522
vn -2.9776796895052646 -0.13998183519272062 -0.147296413327429
vn -2.995960896716463 -0.11706896209655468 0.09196619312544693
vn -1.2196965643670619 -0.2842900299865338 -0.3520040678843012
vn -2.9821745382264577 0.05860816668600542 -0.056980587506548386
vn -1.6255066620560423 0.014947059472032419 -0.6123780518319397
vn -2.7872926142535626 -0.1349875859788397 0.19395427223506354
vn -2.990492648649088 0.11832519731259172 0.08455277467104615
vn -1.993988241373529 -0.0036591455502002204 0.152520452764677
vn -2.9924549168501304 0.0027263317131772406 -0.02728016636836035
vn -1.9937982140675483 0.025489174300432727 0.15227461713594104
vn -1.991458716965354 0.06126426605299648 0.051033563745275984
vn -2.9939630183579875 -0.06324152054287566 -0.0615863370234398
vn -1.9921095198954175 0.14890534127921243 0.046595737548571006
vn -2.894017264202357 0.004552507989083764 0.5501660396035505
vn -0.05797010479378928 -0.32068538371984395 -0.27457275589851665
vn 0.9301327831780614 0.6644980054737969 -0.13895801618967013
vn -1.9962724593382797 -0.07654898850778506 -0.05590877418680276
vn -0.9974537957323976 0.056704455568076746 -0.04324962540601377
vn 0.9999131555372966 -0.012676583399769268 -0.0036035561262036018
vn -0.43373758549480684 -0.0038793714785299895 -0.9010308859334771
vn -0.9998855358048332 -0.002132273782044591 -0.014978941778379941
vn -1.43362312129964 -0.0060116452605745805 -0.9160098277118571
vn -2.814282870911823 -0.610636868733954 0.06909442022474388
vn -0.9896307734265087 0.03644943618570625 -0.13893297264866353
vn -0.9555535293735392 -0.29327979300166457 0.030073501935655014
vn 0.0 0.0 0.0
vn 0.0 0.0 0.0
vn 0.02931449966927413 -0.15143314560327592 -0.20028824203909415
vn -1.865156801417044 -0.553609598320122 0.3538794313912527
vn 0.0 0.0 0.0
vn -1.8986299100454227 0.06781815992215531 0.4455326359704355
vn -0.9966869815795077 0.07298089239001158 0.03590055843420013
vn -0.995187359037802 -0.002399616042385932 -0.09796102415866327
vn -1.957495217678491 0.21398266882068917 0.06678815488574567
vn -1.9551929007190203 0.3202418359870805 0.22299423769688215
vn -0.9951801561540906 1.1118098095458908 0.03233828244836347
vn -0.901032169479345 -0.00044578033238641495 0.43375203843122245
vn -1.046674617152306 -0.40115281575967343 -0.1481275914088322
vn -0.9780095988101293 0.11799332008423132 0.17197325678939115
vn -2.898766780704859 0.04039027877007143 0.48450944655167794
vn -2.9903184797405755 0.06940114138273167 0.20299705249677133
vn -0.9936490697781445 -0.03116043187600365 0.10812286351336196
vn -2.9839118588948788 -0.050939567861718986 0.2365926483664737
vn -2.9840342701593796 -0.0029032802535096693 -0.2230946330569842
vn -1.9912164738549538 -0.04090826199875212 0.010671585076530245
vn -2.9635005637460985 -0.1189146442602903 -0.07558516861101784
vn -1.9978513563237592 0.08062759667061667 -0.026862060763150463
vn -0.9432861147229732 -0.320610470181582 0.08614076956228459
vn -1.9368668871803147 -0.21808968215157284 0.03832093450633115
vn -0.9799011375703673 0.13870732177577813 0.14336680045983755
vn -2.1900955464430485 0.2752968281932427 0.9598797155479512
vn -1.9957977601191175 -0.1170742301862352 0.021609260113147892
vn -2.986407296747419 0.19508074823616625 0.1581190685337568
vn -1.9010196586213108 0.35897786709585366 0.31112518968390945
vn -1.1745930374316647 0.020695104485145326 1.2975135683997463
vn -1.9560817879818702 0.08429549818169149 -0.28914091647829837
vn -2.986036536074961 0.005470954349461057 0.011933377444820092
vn -2.87207783778337 0.16486868217870962 0.7135316916048817
vn -1.981053500131135 -0.10832095681409842 -0.22397472316160383
vn 0.0 0.0 0.0
vn -1.9786804988548141 -0.17287873794345016 -0.17760170773538955
vn -1.9628440397028835 -0.2814314988255001 0.13130797629711094
vn -2.9690687090579004 -0.2196180134404168 0.31447253464340197
vn -1.9850782841974266 0.16679318253382358 0.17751251545961666
vn -0.9975873295609785 -0.05912776474848524 0.0363789408208015
vn -0.9979225464486182 0.05342094441536124 0.03601102591257499
vn -0.9901677467893719 -0.08395184426561991 0.11189245310770242
vn -0.9932351495363493 0.04312458106835364 0.1078156214710316
vn -0.9889355498681736 0.057781297417889795 0.1366301572700501
vn -2.9834859251301755 -0.06248739767282252 0.22222793558766638
vn -1.7883951229102282 -0.5402962675548084 -0.05753470400757574
vn -0.795159973373879 -0.583420848623162 -0.16535032547860734
vn -1.8664710671276599 0.15987883473588388 0.04082893877140731
vn -0.9753328551280405 -0.22030131347280277 -0.013897949127217195
vn -2.950801779534024 -0.12835631071236578 0.10878041336026763
vn -1.9847014562875334 0.13257795602424832 0.19006908946516618
vn -1.5548250133455497 -0.7936565973732236 -0.32892864007935463
vn -1.9917262700193163 0.07301387555470568 0.14321518641878767
vn -0.5533138931197956 -0.7460225593827186 -0.2664568528071937
vn -1.9956817402100733 0.05219649545262754 0.020757333945950057
vn -2.9977204703829536 0.00038055102221636397 -0.013977728035293933


f 8//8 12//12 14//14
f 24//24 12//12 8//8
f 11//11 12//12 13//13
f 14//14 12//12 11//11
f 68//68 16//16 35//35
f 16//16 68//68 17//17
f 19//19 21//21 18//18
f 20//20 18//18 21//21
f 21//21 19//19 24//24
f 18//18 20//20 22//22
f 22//22 20//20 21//21
f 27//27 33//33 26//26
f 68//68 27//27 26//26
f 27//27 68//68 35//35
f 28//28 33//33 29//29
f 29//29 33//33 27//27
f 29//29 27//27 30//30
f 31//31 33//33 32//32
f 32//32 33//33 34//34
f 34//34 33//33 28//28
f 27//27 35//35 30//30
f 77//77 38//38 41//41
f 37//37 77//77 41//41
f 45//45 44//44 38//38
f 39//39 37//37 40//40
f 40//40 37//37 41//41
f 47//47 44//44 45//45
f 46//46 47//47 45//45
f 45//45 32//32 46//46
f 92//92 50//50 55//55
f 62//62 55//55 63//63
f 55//55 50//50 63//63
f 51//51 63//63 50//50
f 52//52 63//63 51//51
f 53//53 63//63 52//52
f 24//24 63//63 12//12
f 12//12 63//63 53//53
f 13//13 12//12 53//53
f 11//11 13//13 53//53
f 55//55 58//58 110//110
f 59//59 58//58 55//55
f 56//56 65//65 57//57
f 65//65 56//56 66//66
f 56//56 57//57 60//60
f 57//57 58//58 59//59
f 59//59 60//60 57//57
f 68//68 56//56 60//60
f 17//17 68//68 60//60
f 61//61 60//60 59//59
f 55//55 54//54 92//92
f 63//63 19//19 59//59
f 18//18 17//17 60//60
f 18//18 60//60 61//61
f 19//19 61//61 59//59
f 19//19 18//18 61//61
f 19//19 63//63 24//24
f 69//69 64//64 65//65
f 45//45 69//69 65//65
f 67//67 45//45 65//65
f 67//67 65//65 66//66
f 67//67 66//66 68//68
f 66//66 56//56 68//68
f 70//70 69//69 45//45
f 31//31 67//67 33//33
f 67//67 26//26 33//33
f 67//67 68//68 26//26
f 67//67 32//32 45//45
f 67//67 31//31 32//32
f 72//72 73//73 142//142
f 73//73 74//74 142//142
f 76//76 73//73 71//71
f 38//38 76//76 71//71
f 73//73 75//75 74//74
f 73//73 76//76 75//75
f 38//38 71//71 78//78
f 77//77 75//75 76//76
f 38//38 77//77 76//76
f 71//71 69//69 78//78
f 64//64 69//69 71//71
f 78//78 69//69 70//70
f 78//78 70//70 45//45
f 38//38 78//78 45//45
f 108//108 79//79 80//80
f 109//109 108//108 82//82
f 86//86 85//85 84//84
f 87//87 89//89 88//88
f 108//108 85//85 81//81
f 81//81 85//85 86//86
f 93//93 89//89 87//87
f 92//92 93//93 87//87
f 50//50 87//87 88//88
f 92//92 87//87 50//50
f 95//95 96//96 104//104
f 104//104 96//96 97//97
f 98//98 104//104 97//97
f 99//99 80//80 100//100
f 101//101 95//95 104//104
f 104//104 99//99 102//102
f 99//99 100//100 102//102
f 99//99 104//104 98//98
f 102//102 100//100 80//80
f 104//104 102//102 105//105
f 65//65 104//104 105//105
f 104//104 65//65 103//103
f 105//105 102//102 106//106
f 107//107 105//105 106//106
f 57//57 65//65 105//105
f 57//57 105//105 107//107
f 79//79 102//102 80//80
f 102//102 79//79 108//108
f 107//107 109//109 83//83
f 110//110 107//107 92//92
f 92//92 107//107 83//83
f 57//57 107//107 58//58
f 58//58 107//107 110//110
f 55//55 110//110 54//54
f 54//54 110//110 92//92
f 111//111 112//112 115//115
f 115//115 112//112 113//113
f 113//113 114//114 115//115
f 115//115 114//114 116//116
f 117//117 115//115 116//116
f 119//119 115//115 118//118
f 120//120 118//118 117//117
f 117//117 118//118 115//115
f 115//115 119//119 121//121
f 121//121 120//120 122//122
f 122//122 120//120 117//117
f 127//127 115//115 121//121
f 121//121 122//122 123//123
f 64//64 128//128 121//121
f 123//123 122//122 125//125
f 125//125 122//122 65//65
f 127//127 126//126 111//111
f 111//111 115//115 127//127
f 127//127 121//121 128//128
f 117//117 116//116 129//129
f 130//130 117//117 129//129
f 117//117 104//104 103//103
f 130//130 104//104 117//117
f 122//122 117//117 103//103
f 65//65 122//122 103//103
f 65//65 64//64 125//125
f 131//131 132//132 134//134
f 131//131 134//134 133//133
f 134//134 132//132 135//135
f 139//139 136//136 137//137
f 134//134 136//136 139//139
f 135//135 136//136 134//134
f 139//139 137//137 138//138
f 134//134 140//140 133//133
f 143//143 139//139 128//128
f 139//139 143//143 134//134
f 134//134 143//143 140//140
f 141//141 143//143 128//128
f 143//143 142//142 140//140
f 143//143 144//144 142//142
f 141//141 144//144 143//143
f 145//145 141//141 128//128
f 144//144 141//141 145//145
f 71//71 145//145 128//128
f 126//126 139//139 138//138
f 139//139 127//127 128//128
f 144//144 72//72 142//142
f 144//144 145//145 73//73
f 72//72 144//144 73//73
f 73//73 145//145 71//71
f 139//139 126//126 127//127
f 64//64 71//71 128//128


