o Object.1
v 2.0538978576660156 1.5102925300598145 -0.4989456534385681
v 2.02759051322937 1.5899639129638672 -0.4390677809715271
v 2.053299903869629 1.5777148008346558 -0.4786939024925232
v 2.013019561767578 1.650058388710022 -0.4790847897529602
v 2.053697109222412 1.64536714553833 -0.5184336304664612
v 1.891772747039795 1.5492103099822998 -0.38146883249282837
v 1.8921834230422974 1.529287338256836 -0.40154141187667847
v 1.955925703048706 1.5092331171035767 -0.3205491900444031
v 1.9708545207977295 1.5267910957336426 -0.3202340006828308
v 1.9331434965133667 1.5897200107574463 -0.4731404185295105
v 1.9382672309875488 1.5897681713104248 -0.48055607080459595
v 1.8907105922698975 1.6290366649627686 -0.3361735939979553
v 1.8911845684051514 1.6141326427459717 -0.3612263798713684
v 1.9310306310653687 1.651787519454956 -0.36042100191116333
v 1.9703810214996338 1.646789312362671 -0.3197816014289856
v 1.931704044342041 1.6494410037994385 -0.4004247784614563
v 2.0123279094696045 1.509772777557373 -0.404623806476593
v 2.0123772621154785 1.5498201847076416 -0.41697078943252563
v 1.9912686347961426 1.5895211696624756 -0.35966044664382935
v 1.973015546798706 1.6524031162261963 -0.479739248752594
v 2.0550360679626465 1.1902685165405273 -0.49265366792678833
v 2.053859233856201 1.2675659656524658 -0.4398689866065979
v 2.0548112392425537 1.3103241920471191 -0.5071988701820374
v 2.0435352325439453 1.3500258922576904 -0.43972402811050415
v 2.0448622703552246 1.3503327369689941 -0.519712507724762
v 2.0538320541381836 1.390169620513916 -0.46690303087234497
v 2.030879259109497 1.3899767398834229 -0.4397805333137512
v 1.971325159072876 1.2391419410705566 -0.2813243269920349
v 1.9585509300231934 1.3090922832489014 -0.2812679409980774
v 1.971248984336853 1.4267926216125488 -0.32061129808425903
v 1.73321533203125 1.4413211345672607 -0.4445222020149231
v 1.7325420379638672 1.4436676502227783 -0.4045185446739197
v 1.6934030055999756 1.4687323570251465 -0.46258002519607544
v 1.7345819473266602 1.4316282272338867 -0.524548351764679
v 1.7725262641906738 1.4463226795196533 -0.40384501218795776
v 1.771872639656067 1.443669319152832 -0.36386018991470337
v 1.8517723083496094 1.466479778289795 -0.36244696378707886
v 1.8938459157943726 1.4445955753326416 -0.48185020685195923
v 1.8944995403289795 1.447249174118042 -0.5218351483345032
v 1.9660820960998535 1.469272494316101 -0.3205340504646301
v 1.9846842288970947 1.1893446445465088 -0.3212994933128357
v 1.9768695831298828 1.2693142890930176 -0.3211222290992737
v 2.0126564502716064 1.2371041774749756 -0.36065787076950073
v 2.0127768516540527 1.2696613073349 -0.3755330443382263
v 1.989715814590454 1.3495150804519653 -0.36060720682144165
v 1.999556541442871 1.3895533084869385 -0.3602902293205261
v 2.0123531818389893 1.4297068119049072 -0.3874278664588928
v 1.994241714477539 1.4695327281951904 -0.36007148027420044
v 1.6936184167861938 1.5088181495666504 -0.4849258065223694
v 1.8691020011901855 1.5090467929840088 -0.3619961142539978
v 1.892635464668274 1.5093741416931152 -0.4241134524345398
v 1.9085872173309326 1.509653091430664 -0.48135608434677124
v 1.93403959274292 1.5098555088043213 -0.5084370970726013
v 1.9442455768585205 1.5099422931671143 -0.5207692980766296
v 2.030431032180786 0.8699747920036316 -0.4417833685874939
v 2.0562567710876465 0.8702636957168579 -0.49136096239089966
v 2.0397984981536865 1.0300111770629883 -0.44101375341415405
v 2.0837771892547607 0.9904837012290955 -0.5204475522041321
v 2.0603013038635254 1.0702418088912964 -0.48052507638931274
v 2.0494813919067383 1.110048770904541 -0.44054609537124634
v 2.070805549621582 1.1104334592819214 -0.5202024579048157
v 2.026163339614868 1.1498074531555176 -0.40077465772628784
v 2.055649995803833 1.1503746509552002 -0.5203006863594055
v 1.9526300430297852 0.9090691804885864 -0.28290098905563354
v 1.9598133563995361 0.9890971779823303 -0.2824748158454895
v 1.972203016281128 1.0166453123092651 -0.2821635603904724
v 1.972078800201416 1.0691636800765991 -0.2869648337364197
v 1.9720747470855713 1.0491447448730469 -0.2820410132408142
v 1.9719563722610474 1.0791443586349487 -0.28192776441574097
v 1.9716801643371582 1.1491433382034302 -0.281663715839386
v 1.9691805839538574 1.1491336822509766 -0.28170520067214966
v 2.0149357318878174 0.8698014616966248 -0.41203683614730835
v 2.014582395553589 0.9172624945640564 -0.4018591046333313
v 2.0140061378479004 0.9896942377090454 -0.38408809900283813
v 2.013514518737793 1.019607424736023 -0.36147814989089966
v 2.0058183670043945 1.0695774555206299 -0.3614141345024109
v 2.0132088661193848 1.0971063375473022 -0.36118584871292114
v 2.0129106044769287 1.109548568725586 -0.3461410403251648
v 2.0520708560943604 0.7903605699539185 -0.5217415690422058
v 2.036409616470337 0.7901488542556763 -0.48199623823165894
v 2.051913261413574 0.8303599953651428 -0.5215906500816345
v 1.9315534830093384 0.5489872097969055 -0.28463250398635864
v 1.9339783191680908 0.5890156030654907 -0.28943926095962524
v 1.933779001235962 0.6290053725242615 -0.2867887616157532
v 1.9336782693862915 0.6439955830574036 -0.28423255681991577
v 1.964902639389038 0.6694185137748718 -0.36362844705581665
v 1.9335600137710571 0.6739951372146606 -0.2841194272041321
v 1.9748518466949463 0.6819571852684021 -0.3634151816368103
v 1.9333922863006592 0.7164945006370544 -0.28395920991897583
v 1.94658362865448 0.7091965675354004 -0.3237740397453308
v 1.974137306213379 0.7893884778022766 -0.3455125689506531
v 2.017442226409912 0.5500940084457397 -0.4882327914237976
v 1.9857209920883179 0.6296502947807312 -0.4034416079521179
v 1.9977457523345947 0.7496969699859619 -0.4027814269065857
v 1.9817688465118408 0.8294841051101685 -0.3627343773841858
v 2.0150935649871826 0.8298020958900452 -0.41218775510787964
v 1.9253171682357788 0.2289629578590393 -0.28596383333206177
v 1.9356554746627808 0.26911622285842896 -0.3156425356864929
v 1.9771344661712646 0.22957909107208252 -0.39511770009994507
v 1.9353731870651245 0.3090869188308716 -0.30799275636672974
v 1.976901888847351 0.30959707498550415 -0.39981526136398315
v 1.9769256114959717 0.324616014957428 -0.4047580361366272
v 1.9293694496154785 0.4689788222312927 -0.2849755883216858
v 1.9344183206558228 0.5090455412864685 -0.29723984003067017
v 1.9758225679397583 0.5095269680023193 -0.38156336545944214
v 1.9821419715881348 0.26963621377944946 -0.40488237142562866
v 2.0184974670410156 0.23005086183547974 -0.47694164514541626
v 2.0179905891418457 0.39007723331451416 -0.48383694887161255
v 2.017749786376953 0.4300574064254761 -0.4786868691444397
v 1.7017223834991455 0.22613340616226196 0.23039096593856812
v 1.6990647315979004 0.2661229968070984 0.23050040006637573
v 2.0278890132904053 -0.049733638763427734 -0.5253662467002869
v 2.022573947906494 0.030245840549468994 -0.5251474976539612
v 2.024915933609009 0.0702548623085022 -0.5249552130699158
v 2.021595001220703 0.11009114980697632 -0.4848514199256897
v 2.0197885036468506 0.10273504257202148 -0.5249156355857849
v 1.9364030361175537 0.06910967826843262 -0.31389719247817993
v 1.9206334352493286 0.1489446759223938 -0.2863486409187317
v 1.9359296560287476 0.18910789489746094 -0.3134445548057556
v 1.980431318283081 0.0696294903755188 -0.40567833185195923
v 1.9960927963256836 0.06984114646911621 -0.44542330503463745
v 2.0167534351348877 0.07007229328155518 -0.48508530855178833
v 1.9667962789535522 0.18942570686340332 -0.3654387593269348
v 1.887284517288208 0.028513431549072266 -0.2073523998260498
v 1.853105068206787 0.10806959867477417 -0.12510228157043457
v 1.8531465530395508 0.10807925462722778 -0.12760186195373535
v 1.7985056638717651 0.14741438627243042 -0.008340060710906982
v 1.7697736024856567 0.18705761432647705 0.056344807147979736
v 1.7801868915557861 0.18719232082366943 0.03151440620422363
v 1.6877875328063965 -0.05393040180206299 0.2315855622291565
v 1.6879868507385254 -0.09392011165618896 0.22893506288528442
v 1.7058322429656982 -0.013699948787689209 0.18953311443328857
v 1.726335048675537 0.02653050422668457 0.15002185106277466
v 1.6869903802871704 0.10602885484695435 0.2421875
v 1.686301589012146 0.18594133853912354 0.2649860382080078
v 1.7277554273605347 0.22647017240524292 0.16831523180007935
v 1.733044981956482 0.2265567183494568 0.1509007215499878
v 1.7668673992156982 0.22698980569839478 0.07145196199417114
v 2.021685838699341 -0.4097861647605896 -0.5193496346473694
v 2.0243101119995117 -0.40974777936935425 -0.5268071293830872
v 2.0210719108581543 -0.36989229917526245 -0.49170273542404175
v 2.0314931869506836 -0.3297197222709656 -0.5263808369636536
v 2.0202078819274902 -0.12987661361694336 -0.49579674005508423
v 2.023205280303955 -0.1297518014907837 -0.5257509350776672
v 1.8410181999206543 -0.41121381521224976 -0.32982462644577026
v 1.8590134382247925 -0.41103070974349976 -0.3595297932624817
v 1.9002517461776733 -0.4105878472328186 -0.43385475873947144
v 1.9406605958938599 -0.41033655405044556 -0.45818692445755005
v 1.9389210939407349 -0.3481826186180115 -0.3679642081260681
v 1.927210807800293 -0.251029908657074 -0.2877742648124695
v 1.9660325050354004 -0.2505773901939392 -0.36713987588882446
v 1.963059425354004 -0.13058888912200928 -0.36672884225845337
v 1.6917872428894043 -0.37329262495040894 0.06540244817733765
v 1.7157273292541504 -0.41290730237960815 -0.011863470077514648
v 1.7280677556991577 -0.37285929918289185 -0.011505126953125
v 1.7545490264892578 -0.41245490312576294 -0.09122925996780396
v 1.7752925157546997 -0.4122045636177063 -0.13589060306549072
v 1.7908709049224854 -0.4120120406150818 -0.17063653469085693
v 1.806532382965088 -0.41180044412612915 -0.21038168668746948
v 1.8161243200302124 -0.37181955575942993 -0.19506698846817017
v 1.8213725090026855 -0.3717426657676697 -0.20998185873031616
v 1.7978997230529785 -0.332588255405426 -0.010191917419433594
v 1.8142738342285156 -0.3447229266166687 -0.08997851610183716
v 1.8755431175231934 -0.3316832184791565 -0.1689234972000122
v 1.8702282905578613 -0.25170379877090454 -0.16870486736297607
v 1.86741304397583 -0.17171472311019897 -0.16844463348388672
v 1.8171114921569824 -0.41162723302841187 -0.24521058797836304
v 1.7307112216949463 -0.33334892988204956 0.12120950222015381
v 1.6910426616668701 -0.36345571279525757 0.10793411731719971
v 1.7359178066253662 -0.3332814574241638 0.1087944507598877
v 1.6889498233795166 -0.2538411021232605 0.20833444595336914
v 1.7039639949798584 -0.17370730638504028 0.1888880729675293
v 1.6881446838378906 -0.13391953706741333 0.22878426313400269


vn 0.0 0.0 0.0
vn 0.0 0.0 0.0
vn 0.0 0.0 0.0
vn 0.0 0.0 0.0
vn 0.0 0.0 0.0
vn 0.0 0.0 0.0
vn 0.0 0.0 0.0
vn 0.0 0.0 0.0
vn 0.0 0.0 0.0
vn 0.0 0.0 0.0
vn 0.0 0.0 0.0
vn 0.0 0.0 0.0
vn 0.0 0.0 0.0
vn 0.0 0.0 0.0
vn 0.0 0.0 0.0
vn 0.0 0.0 0.0
vn 0.0 0.0 0.0
vn 0.0 0.0 0.0
vn 0.0 0.0 0.0
vn 0.0 0.0 0.0
vn -0.9428830899672445 -0.07417835025721055 -0.3247599898493344
vn 0.0 0.0 0.0
vn -0.9690448240096436 -0.24629736748637482 -0.017021628282878606
vn -0.9690448240096436 -0.24629736748637482 -0.017021628282878606
vn -0.9690448240096436 -0.24629736748637482 -0.017021628282878606
vn 0.0 0.0 0.0
vn 0.0 0.0 0.0
vn 0.0 0.0 0.0
vn 0.0 0.0 0.0
vn 0.0 0.0 0.0
vn -0.5864426110164013 -1.7994598176025662 0.02086146491573615
vn -0.5146008217833439 -1.8055042787293587 0.1591297695848403
vn -1.1697523316301104 -1.616569605821099 0.1250656053128652
vn -0.49695128663764676 -1.7897732485906137 0.20829397726958238
vn 0.006454654087302142 -1.9867010825268459 0.054026096098079165
vn 0.26063102195819515 -0.9291697679348789 0.26213548548197346
vn 2.011567802136873 -1.5980419675804258 0.9571313753173651
vn 1.8589865924709104 -1.4323033686536868 0.19541695290696456
vn 1.7070618454747182 -1.7245544247596112 0.6953974957242198
vn 0.0 0.0 0.0
vn 0.0 0.0 0.0
vn 0.0 0.0 0.0
vn 0.0 0.0 0.0
vn 0.0 0.0 0.0
vn 0.0 0.0 0.0
vn 0.0 0.0 0.0
vn 0.0 0.0 0.0
vn 0.0 0.0 0.0
vn 0.0 0.0 0.0
vn 0.873403496295951 -0.35906075182332886 0.3290010777460682
vn 1.8185294907185297 -0.5250142948839271 0.6271726697594656
vn 0.9448911124117108 -1.2151879895247448 0.25736412410090753
vn 0.0038949055759076893 -0.9999851424630356 -0.0038137335692346934
vn 0.0038949055759076893 -0.9999851424630356 -0.0038137335692346934
vn 0.0 0.0 0.0
vn -0.9632574440227963 0.2207485294824349 -0.1529875265046531
vn 0.0 0.0 0.0
vn -0.9320827657118371 -0.10008618399637843 -0.34814432874314594
vn -1.8749658556790816 -0.17426453425358898 -0.6729043185924803
vn 0.0 0.0 0.0
vn -0.9320827657118371 -0.10008618399637843 -0.34814432874314594
vn 0.0 0.0 0.0
vn 0.0 0.0 0.0
vn 0.0 0.0 0.0
vn 0.0 0.0 0.0
vn 0.0 0.0 0.0
vn 0.0 0.0 0.0
vn 0.0 0.0 0.0
vn 0.0 0.0 0.0
vn 0.0 0.0 0.0
vn 0.0 0.0 0.0
vn 0.0 0.0 0.0
vn 0.0 0.0 0.0
vn 0.0 0.0 0.0
vn 0.0 0.0 0.0
vn 0.0 0.0 0.0
vn 0.0 0.0 0.0
vn 0.0 0.0 0.0
vn -0.9303699836204004 -0.0022823383107592322 -0.3666148994653806
vn -1.8936274276431968 0.21846619117167568 -0.5196024259700337
vn -0.9632574440227963 0.2207485294824349 -0.1529875265046531
vn 0.0 0.0 0.0
vn 0.0 0.0 0.0
vn 0.0 0.0 0.0
vn 0.0 0.0 0.0
vn -0.8889916045079664 0.02355248482915707 -0.4573174035314247
vn 0.0 0.0 0.0
vn 0.0 0.0 0.0
vn 0.0 0.0 0.0
vn 0.0 0.0 0.0
vn 0.0 0.0 0.0
vn 0.0 0.0 0.0
vn 0.0 0.0 0.0
vn 0.0 0.0 0.0
vn 0.0 0.0 0.0
vn 0.0 0.0 0.0
vn 0.0 0.0 0.0
vn 0.0 0.0 0.0
vn 0.0 0.0 0.0
vn -0.9027499431677184 -0.13318635328411987 -0.4090280374369938
vn -0.9027499431677184 -0.13318635328411987 -0.4090280374369938
vn -0.8889916045079664 0.02355248482915707 -0.4573174035314247
vn 0.0 0.0 0.0
vn 0.0 0.0 0.0
vn 0.0 0.0 0.0
vn 0.0 0.0 0.0
vn 0.0 0.0 0.0
vn 0.0 0.0 0.0
vn -0.8889916045079664 0.02355248482915707 -0.4573174035314247
vn -2.7271351557436487 -0.07580035737347599 -1.2340274839320977
vn -0.8852721261570731 -0.05757102451968729 -0.4614963052778308
vn -2.9540147337366927 -0.010101006633363276 -0.43678359279724843
vn -1.972764236388196 -0.007672756216602128 -0.27898926696131054
vn -1.96319009337059 -0.09738933604246389 -0.12698313575886624
vn -1.9579613413936796 -0.03674585506504101 -0.12563496846337208
vn -0.985119406836245 -0.1556031846302576 0.07298906224583832
vn 0.0 0.0 0.0
vn 0.0 0.0 0.0
vn 0.0 0.0 0.0
vn -2.7256323737919272 0.008607059101198888 -1.2523908784247744
vn -1.8170209278723841 -0.010415239907870471 -0.8285618563398828
vn -2.8377791756586674 0.1864950524319922 -0.8605257741905287
vn 0.0 0.0 0.0
vn -0.9032672213354603 -0.02091178355997303 -0.4285685758070199
vn -1.8179077724203503 0.0344995552559491 -0.8325209183098623
vn 0.0 0.0 0.0
vn -2.72660348180005 0.025354483026015912 -1.250795470609515
vn -2.7737821554680107 0.029229981018415715 -1.1321213483472004
vn -0.9214851029188028 -0.036974046061237775 -0.3866498739384057
vn -1.8514163405222157 0.04083844152446517 -0.7553739178319492
vn -1.795088706339965 0.05204069792905825 -0.8770459765276164
vn -2.7554062130540147 0.07700313598317335 -1.181128153963263
vn -2.726275988963368 0.22118063103087662 -1.2090240785375015
vn -1.7708856208286283 0.17431161952627366 -0.9063289274772048
vn -1.8127505244835478 -0.022076980678902243 -0.8336844210064037
vn -1.8778076914599673 0.07523876170301017 -0.6765296807250909
vn -1.8760184871051284 0.06592659857992302 -0.6816579352197407
vn -0.9401728199170204 0.05855092343915927 -0.3356290482864966
vn -0.8948541641271873 0.08035115315899538 -0.41799224902313026
vn 0.0 0.0 0.0
vn -1.8551807763253763 1.1868896566251987 -1.874615471258723
vn -1.9085300662256233 -0.030574826360029037 -0.5044509126121565
vn -2.7954252283897496 -0.03089162175132107 -0.9664468798759372
vn -1.9875252875936984 0.017729336082958395 -0.19880995732299042
vn -1.1776246120470042 1.5154669599761847 -0.5183895793109393
vn -1.0040456253608308 1.6030037081106854 -0.5779630132841156
vn -0.8967465274145123 1.192400234490837 -1.0340842584432743
vn -0.531614608945267 0.4769022119581407 -0.6999644189424227
vn -2.295737796076719 1.0335004056417765 -0.9358148368757606
vn -2.676344316360047 0.20963011012731422 -1.2891261945007348
vn -2.599709925251985 0.27953324117220624 -1.416295432138627
vn -2.7218028361919306 -0.0221911679439307 -1.260238073684113
vn -1.3188244454097238 1.1413474668148123 -0.6182109326701113
vn -1.7363268443730917 0.5424697046723619 -0.8310882478070039
vn -1.7341747121551478 0.5403844784816274 -0.8369995976702684
vn -0.8825951075660321 0.23248341610212303 -0.4086286056286212
vn -1.7507857665827986 0.5424186845706426 -0.7961658412013848
vn -1.743303312226454 0.6512796934572194 -0.7305559343654607
vn -0.9062377875511257 0.3222449133001942 -0.2736627272147064
vn -1.5206585103877461 2.4702389486825442 -0.6951001017565659
vn -1.198258779337587 1.3502995015416654 -0.6902068768777156
vn -2.267205977973226 1.079702838435996 -0.9254257159123948
vn -1.6929780834887138 0.29372681144646384 -0.8562248260413811
vn -1.9254723218445813 1.6376726364637109 -0.6968371843590806
vn -2.6961357953888676 -0.00943669304113899 -1.3128927651092341
vn -1.8181744206263581 -0.013572074792196069 -0.8317344538676446
vn -1.637565874642122 0.8159729257062381 -0.7441857115602126
vn -2.0636232314123766 1.575256275421257 -0.9279166619960013
vn -0.7879435447365457 1.4607268328710348 -0.9582546903629554
vn -2.231129001135171 0.9547576038390759 -1.0650072020322594
vn -1.7672462177992754 0.10533318987704396 -0.9304043311935752
vn -2.738496393183653 0.05407527454864802 -1.2217465147628426
vn -0.9042512941639799 0.01260063856476124 -0.4285236934848995


f 23//23 24//24 25//25
f 33//33 31//31 32//32
f 32//32 31//31 38//38
f 32//32 38//38 35//35
f 31//31 34//34 39//39
f 31//31 39//39 38//38
f 36//36 35//35 38//38
f 36//36 38//38 37//37
f 38//38 39//39 52//52
f 39//39 54//54 52//52
f 34//34 31//31 33//33
f 50//50 37//37 51//51
f 37//37 38//38 51//51
f 51//51 38//38 52//52
f 52//52 54//54 53//53
f 59//59 21//21 61//61
f 58//58 59//59 61//61
f 81//81 79//79 80//80
f 81//81 80//80 56//56
f 102//102 101//101 100//100
f 102//102 86//86 109//109
f 136//136 110//110 111//111
f 112//112 144//144 143//143
f 143//143 122//122 112//112
f 113//113 112//112 122//122
f 114//114 122//122 115//115
f 114//114 113//113 122//122
f 115//115 116//116 114//114
f 121//121 143//143 120//120
f 122//122 143//143 121//121
f 124//124 172//172 125//125
f 124//124 120//120 172//172
f 125//125 172//172 127//127
f 129//129 127//127 128//128
f 132//132 131//131 130//130
f 127//127 172//172 132//132
f 132//132 130//130 134//134
f 133//133 132//132 134//134
f 133//133 127//127 132//132
f 133//133 134//134 135//135
f 128//128 127//127 133//133
f 110//110 133//133 135//135
f 110//110 135//135 111//111
f 136//136 133//133 110//110
f 137//137 133//133 136//136
f 138//138 133//133 137//137
f 138//138 128//128 133//133
f 139//139 141//141 151//151
f 142//142 139//139 151//151
f 142//142 151//151 152//152
f 142//142 152//152 143//143
f 144//144 142//142 143//143
f 145//145 167//167 149//149
f 146//146 145//145 149//149
f 141//141 146//146 149//149
f 147//147 146//146 141//141
f 148//148 147//147 141//141
f 151//151 149//149 150//150
f 152//152 151//151 150//150
f 150//150 120//120 152//152
f 148//148 141//141 139//139
f 151//151 141//141 149//149
f 143//143 152//152 120//120
f 155//155 154//154 153//153
f 155//155 153//153 160//160
f 155//155 156//156 154//154
f 157//157 156//156 155//155
f 160//160 157//157 155//155
f 158//158 157//157 160//160
f 160//160 159//159 158//158
f 160//160 153//153 169//169
f 162//162 163//163 160//160
f 164//164 160//160 163//163
f 161//161 160//160 164//164
f 165//165 163//163 162//162
f 165//165 164//164 163//163
f 166//166 165//165 172//172
f 120//120 165//165 166//166
f 167//167 159//159 160//160
f 161//161 167//167 160//160
f 149//149 167//167 161//161
f 161//161 164//164 149//149
f 149//149 164//164 165//165
f 150//150 149//149 165//165
f 120//120 150//150 165//165
f 172//172 120//120 166//166
f 169//169 171//171 168//168
f 165//165 170//170 168//168
f 172//172 168//168 171//171
f 172//172 171//171 131//131
f 172//172 131//131 173//173
f 168//168 160//160 169//169
f 170//170 160//160 168//168
f 170//170 162//162 160//160
f 165//165 162//162 170//170
f 165//165 168//168 172//172
f 173//173 131//131 132//132
f 172//172 173//173 132//132


