o Object.1
v 1.6859030723571777 0.7676569223403931 2.3680248260498047
v 1.7252498865127563 0.7652220726013184 2.4086716175079346
v 1.886199951171875 0.7785969376564026 2.348849296569824
v 1.845913052558899 0.7608594298362732 2.370640277862549
v 1.8465603590011597 0.7634698152542114 2.3306527137756348
v 1.8348158597946167 0.5888740420341492 3.090083122253418
v 1.8746596574783325 0.5765151977539062 3.1032066345214844
v 2.670147657394409 0.2990855574607849 3.4580841064453125
v 2.6710116863250732 0.29923051595687866 3.4055912494659424
v 2.722076654434204 0.2591923475265503 3.5038349628448486
v 2.7493669986724854 0.2592785358428955 3.5167860984802246
v 2.6699957847595215 0.25903087854385376 3.477973699569702
v 2.7099616527557373 0.21917253732681274 3.491023302078247
v 2.7099361419677734 0.29922664165496826 3.471240997314453
v 2.7100372314453125 0.30424731969833374 3.4637556076049805
v 2.295431137084961 0.2578567862510681 3.2967798709869385
v 2.392340898513794 0.2581881284713745 3.333380937576294
v 2.402257204055786 0.25821828842163086 3.3385448455810547
v 2.5115954875946045 0.21856367588043213 3.390242338180542
v 2.3520870208740234 0.29799824953079224 3.3378288745880127
v 2.5117344856262207 0.2986454367637634 3.360461711883545
v 2.3526787757873535 0.31310850381851196 3.297874927520752
v 2.511986255645752 0.31620049476623535 3.3405113220214844
v 2.5509185791015625 0.2586559057235718 3.4210047721862793
v 2.550741195678711 0.2986553907394409 3.421112060546875
v 2.193864107131958 0.21753156185150146 3.2499899864196777
v 2.2328040599823 0.2975887060165405 3.293358087539673
v 2.034733772277832 0.3045350909233093 3.172600269317627
v 2.1140637397766113 0.30477583408355713 3.2139124870300293
v 2.1940078735351562 0.315126895904541 3.215257167816162
v 2.034944534301758 0.25703567266464233 3.1724724769592285
v 1.9550669193267822 0.29673218727111816 3.1537647247314453
v 2.0047717094421387 0.29690343141555786 3.172086000442505
v 1.9554039239883423 0.304294228553772 3.1312880516052246
v 2.237762212753296 0.2976038455963135 3.2959401607513428
v 2.2733378410339355 0.3153676986694336 3.2565693855285645
v 1.637924313545227 0.25576967000961304 2.988408327102661
v 1.83645498752594 0.2564060091972351 3.079190731048584
v 1.6942921876907349 0.2958628535270691 3.046955108642578
v 1.7168443202972412 0.2834617495536804 3.0472922325134277
v 1.7569161653518677 0.2661375403404236 3.0479040145874023
v 1.7964481115341187 0.29625755548477173 3.06864070892334
v 1.8511109352111816 0.2964438796043396 3.0895438194274902
v 1.875901460647583 0.2965189814567566 3.1024539470672607
v 1.938294529914856 0.21671855449676514 3.1307644844055176
v 1.9431164264678955 0.2567399740219116 3.1309545040130615
v 1.915442943572998 0.2966187000274658 3.1306090354919434
v 2.7506215572357178 -0.0607447624206543 3.5259246826171875
v 2.7501304149627686 0.05926060676574707 3.523747444152832
v 2.710684061050415 0.019147634506225586 3.5004844665527344
v 2.7105889320373535 0.05916088819503784 3.4955925941467285
v 2.7103703022003174 0.09915345907211304 3.498199701309204
v 2.710056781768799 0.1791592836380005 3.495915174484253
v 2.5524327754974365 -0.1013529896736145 3.4250361919403076
v 2.55218243598938 -0.026340246200561523 3.420238494873047
v 2.313828468322754 0.017909228801727295 3.3064215183258057
v 2.3932406902313232 0.01816380023956299 3.3427343368530273
v 2.4724884033203125 0.018390774726867676 3.3890459537506104
v 2.5518054962158203 0.058658599853515625 3.4204671382904053
v 2.3931124210357666 0.06567692756652832 3.337862968444824
v 2.4321961402893066 0.1782820224761963 3.3638205528259277
v 2.554305076599121 0.0586695671081543 3.42050838470459
v 2.561626672744751 0.09870195388793945 3.42073917388916
v 2.0390408039093018 -0.10294848680496216 3.17154598236084
v 2.035926580429077 0.017025113105773926 3.1768267154693604
v 2.2044901847839355 0.05756378173828125 3.2547240257263184
v 2.154649257659912 0.09739899635314941 3.234010696411133
v 2.1940035820007324 0.16751843690872192 3.254855155944824
v 2.0364460945129395 -0.06294625997543335 3.1666131019592285
v 1.956113576889038 0.14429640769958496 3.1308579444885254
v 1.8775519132614136 -0.10349637269973755 3.108877658843994
v 1.6788312196731567 -0.024106264114379883 3.0083119869232178
v 1.758284568786621 -0.02384471893310547 3.0421252250671387
v 1.638906478881836 0.01575911045074463 2.992762565612793
v 1.6385927200317383 0.09576493501663208 2.990478038787842
v 1.7577919960021973 0.06864023208618164 3.047373056411743
v 1.6384975910186768 0.13577806949615479 2.985586166381836
v 1.9341821670532227 0.01669931411743164 3.1301445960998535
v 2.593339681625366 -0.38122880458831787 3.444939613342285
v 2.6331281661987305 -0.3810877799987793 3.458096981048584
v 2.6327321529388428 -0.3010958433151245 3.4608116149902344
v 2.6325957775115967 -0.2610893249511719 3.4584193229675293
v 2.6322410106658936 -0.18109047412872314 3.458634376525879
v 2.711979866027832 -0.3008688688278198 3.5071229934692383
v 2.7122061252593994 -0.33335447311401367 3.5020365715026855
v 2.7119956016540527 -0.2858550548553467 3.502163887023926
v 2.7038536071777344 -0.14089006185531616 3.5024304389953613
v 2.7112700939178467 -0.14087092876434326 3.5075531005859375
v 2.7113966941833496 -0.15085697174072266 3.5025269985198975
v 2.6728880405426025 -0.4209805727005005 3.483644723892212
v 2.7124991416931152 -0.3808401823043823 3.4969093799591064
v 2.635054349899292 -0.2610851526260376 3.4609603881835938
v 2.7116944789886475 -0.18082892894744873 3.492447853088379
v 2.355102777481079 -0.3819925785064697 3.336000919342041
v 2.3577797412872314 -0.4219810962677002 3.335934638977051
v 2.394986391067505 -0.4218648672103882 3.3540499210357666
v 2.4346923828125 -0.42173755168914795 3.372206449508667
v 2.4345149993896484 -0.3817380666732788 3.372313976287842
v 2.451930284500122 -0.38167500495910645 3.3776016235351562
v 2.4743034839630127 -0.3815969228744507 3.3854711055755615
v 2.362424373626709 -0.34196019172668457 3.3362321853637695
v 2.5536208152770996 -0.34132909774780273 3.4168920516967773
v 2.2755415439605713 -0.30221378803253174 3.287405014038086
v 2.377244710922241 -0.30189502239227295 3.3365867137908936
v 2.4341602325439453 -0.3017392158508301 3.3725290298461914
v 2.553443431854248 -0.30132973194122314 3.4169998168945312
v 2.5530474185943604 -0.2213376760482788 3.4197144508361816
v 2.558401346206665 -0.3013145923614502 3.419581651687622
v 2.563223361968994 -0.26129305362701416 3.419771671295166
v 2.555192232131958 -0.14132773876190186 3.419970750808716
v 2.020462989807129 -0.42303192615509033 3.170356273651123
v 2.037837028503418 -0.42297589778900146 3.1781435012817383
v 2.0775842666625977 -0.4228416681289673 3.193800449371338
v 2.1964969635009766 -0.4224942922592163 3.260767936706543
v 2.191443681716919 -0.3824961185455322 3.2532942295074463
v 2.2362852096557617 -0.42235326766967773 3.273925304412842
v 2.2360668182373047 -0.38236069679260254 3.2765321731567383
v 2.1964097023010254 -0.3749743700027466 3.25339674949646
v 2.1963067054748535 -0.3424677848815918 3.2509844303131104
v 2.206264019012451 -0.3424307107925415 3.2536487579345703
v 2.196143627166748 -0.3149750232696533 3.2535581588745117
v 2.1957333087921143 -0.22247636318206787 3.2538065910339355
v 2.1287240982055664 -0.1826627254486084 3.2128078937530518
v 2.0367186069488525 -0.14295893907546997 3.1713974475860596
v 2.1210477352142334 -0.14269626140594482 3.212791919708252
v 1.9585069417953491 -0.42321670055389404 3.136831283569336
v 1.9978582859039307 -0.3430904150009155 3.155202865600586
v 1.9971613883972168 -0.22311973571777344 3.1655240058898926
v 2.275991439819336 -0.4222259521484375 3.292081594467163
v 2.275773048400879 -0.38223326206207275 3.2946887016296387
v 1.6506507396697998 -0.42422568798065186 3.0042428970336914
v 1.6804405450820923 -0.4241284132003784 3.017235279083252
v 1.6404746770858765 -0.3842700719833374 3.004185676574707
v 1.7598986625671387 -0.4063533544540405 3.0460963249206543
v 1.7997236251831055 -0.42371904850006104 3.061706066131592
v 1.831807255744934 -0.4236452579498291 3.08723783493042
v 1.839223861694336 -0.423626184463501 3.092360734939575
v 1.91884183883667 -0.42333710193634033 3.1161751747131348
v 1.9184999465942383 -0.383365273475647 3.126281499862671
v 1.64033842086792 -0.3442636728286743 3.001793384552002
v 1.8435959815979004 -0.26359236240386963 3.087873935699463
v 1.6399707794189453 -0.22423768043518066 2.992117404937744
v 1.7591303586959839 -0.22384893894195557 3.0440871715545654
v 1.679540753364563 -0.1841040849685669 3.0078816413879395
v 1.7537351846694946 -0.14387887716293335 3.046719551086426


vn 0.0 0.0 0.0
vn 0.0 0.0 0.0
vn 0.0 0.0 0.0
vn 0.0 0.0 0.0
vn 0.0 0.0 0.0
vn 0.0 0.0 0.0
vn 0.0 0.0 0.0
vn -0.6799481836837179 0.8369756938241981 1.680352481126302
vn 0.0 0.0 0.0
vn 0.0 0.0 0.0
vn -0.9903792891878836 0.6017590323744249 1.5600140433178347
vn -1.07354678241892 0.06735423270157549 2.7708120915114147
vn -1.2442822941922405 0.06873170906502682 2.648177579679649
vn -0.6651368546753411 0.9342129794659662 1.6316776879998576
vn 0.0 0.0 0.0
vn -0.5327778306183598 -0.27832636054024623 1.888668692746704
vn -1.190758650818826 0.001277589884526073 2.7480668869394456
vn -1.2841201278216174 0.5057133020857913 2.603993761549276
vn -0.9549663128492235 0.04253223386643302 1.7338219514619324
vn -0.19177842712247845 0.7777948591136555 1.3305252182201306
vn -1.0923274188004515 1.5038031816652468 1.8792320684811408
vn -0.6452486411735587 0.1830082147768164 0.059655472944208476
vn 0.0 0.0 0.0
vn -1.0208006030668724 -0.07117414208013015 1.7084328118290073
vn 0.0 0.0 0.0
vn -0.9519493378713496 0.0790727179148884 1.7417132745392871
vn -0.5015274789184998 2.7825852312826673 0.9753854784266859
vn -0.458487529290118 1.741388439076391 0.8702617363344402
vn -0.3571989302219577 1.8228936071602502 0.7125174368366318
vn -0.15300898092699636 0.9452456403570146 0.2882688521879174
vn -0.861534082932873 -0.28690532433343585 0.9316013231947045
vn -0.6735782827330892 1.1137240378367608 2.1210864386027235
vn -0.6097411721871006 0.8718918171466297 1.3599108090300416
vn -0.3485932959341451 1.812256141731198 0.7501185089570457
vn -0.61104264673492 0.8213096394989776 1.1685216730739807
vn 0.0 0.0 0.0
vn -0.7381843050971796 -0.6755415402926918 1.5940961192400072
vn -1.2918807773679228 -0.14593877733009591 2.6973482665214075
vn -0.33718449025612685 -0.5933190037876327 0.7309440329294487
vn -0.6298931459629514 -1.2456822717541252 1.4300461781717457
vn -0.2927086557068246 -0.6523632679664925 0.6991021452422971
vn 0.0 0.0 0.0
vn 0.0 0.0 0.0
vn -0.5720877706531213 -0.16205387847908498 0.8040237080702457
vn -1.4749124781311655 -0.10258718142278994 2.5931433325733115
vn -0.9640999759282599 0.10999165046688565 1.2986468412656629
vn -0.5885522391484075 -0.16481747763058996 1.8038843402570008
vn 0.0 0.0 0.0
vn 0.0 0.0 0.0
vn -1.585351498577229 0.09924421578353894 2.539048379390028
vn -0.8839860408417208 0.04872671775351746 1.7849186278310105
vn -0.9227198121237568 -0.03673034663723504 1.7720674302076844
vn -1.0722935762338683 0.11819378674388478 1.67301752709092
vn -1.8545750293128813 -0.10493832546993084 1.405881032900873
vn -1.3280729180188546 -0.03087492673741328 1.6046326607701118
vn -0.8541056777131373 0.04870734242984569 1.8025711615726732
vn -1.3746446710795233 0.12228530463233978 2.6525202345046317
vn -1.3243760273426466 0.25348501355141273 2.6238955723942716
vn -0.8107560812099271 0.17650304359759966 1.8162688447872988
vn -1.0655187670899267 0.044644685166855914 1.683572348778752
vn -1.195499259399473 0.1906147483416039 2.730343881313597
vn -0.01639979252013389 -0.0027648765331966443 0.9998616915669151
vn -1.413522328979586 0.07361012253166588 2.621943871530772
vn -0.829229939290425 0.028216522276109865 1.8113138145576761
vn -1.4671646011626545 -0.14676189177187082 2.594948867610795
vn -1.2615372850303868 -0.12402838724736974 2.718655003241768
vn -0.861534082932873 -0.28690532433343585 0.9316013231947045
vn -1.3885782746840212 0.05176208371391611 2.639926803132729
vn -1.2764305517685486 0.011531729798501159 1.1781679239190024
vn -1.0767881496589982 -0.14152213292032928 2.577849193716444
vn -1.26583819097008 0.11138378879935742 2.710985604655079
vn -0.7580533061965735 -0.008339126372444019 1.8505540815598576
vn -1.366608925212976 -0.004157493932699728 2.662311123647413
vn -0.7582089430088486 0.020809229518222037 1.8503391338760307
vn -0.847662176140989 0.05664656737600465 1.8029212971464332
vn -1.3979100556731578 -0.07011031450347463 2.6481198461934308
vn -0.8519689138536609 0.14428810320508106 1.8017141792040448
vn -0.8063552741842642 -0.0024160430977783467 2.833342594055838
vn -0.27123266405585933 -0.32067631844242434 -0.07208602263481478
vn 0.2926400816663782 0.6667137197903144 -0.8921101760837383
vn -0.9453278159467944 -0.08111989393863209 1.758937939173216
vn -0.48607694143674324 0.05442399002387534 0.8722197179113654
vn 0.44528407912334533 -0.010373329087391478 -0.8953292595034069
vn -0.9998549729044207 -0.00438738070064865 -0.016455517278042734
vn -0.46187003376277536 -0.004424377084880909 0.8869365799195472
vn -1.461725006667196 -0.008811757785529558 0.8704810626415045
vn -1.2001933122375577 -0.617149324614612 2.544904166635979
vn -0.568048992039199 0.03424299874084292 0.8222820438757522
vn -0.40155043071347496 -0.2955004923561692 0.8668544921790996
vn 0.0 0.0 0.0
vn 0.0 0.0 0.0
vn -0.16577898756790588 -0.15125962894615202 -0.11638575767673975
vn -0.5199886912236714 -0.5581032958484877 1.8244620036603398
vn 0.0 0.0 0.0
vn -0.4534158557023877 0.06319462344881437 1.8969167601879837
vn -0.41500644939196424 0.07066311903347354 0.9070702125919119
vn -0.5339321777733625 -0.004640714148701935 0.8455145730916673
vn -0.8184315786165284 0.2094371321583291 1.7799827462470845
vn -0.6778414890222294 0.3156209978458548 1.8482356435998941
vn -0.41808223025765706 1.109505604429898 0.906520989471794
vn -0.016448637770262953 -0.002763116995408078 0.9998608940747569
vn -0.6016457547439718 -0.4034817712317027 0.8681110027222599
vn -0.2850379021321878 0.11564233289233167 0.9515147109694627
vn -0.8671606229282818 0.03344234956201992 2.808220975463926
vn -1.159868912923554 0.06239303665318379 2.763844921128195
vn -0.349032203274008 -0.03350966560873323 0.9365114112430677
vn -1.126906168750583 -0.057941460933849546 2.7729096763209307
vn -1.537844918632413 -0.009675038943139612 2.5669390426542646
vn -0.8835698739318489 -0.04550428736852921 1.7843675721509222
vn -1.3967306906325836 -0.125704918797932 2.614484897451795
vn -0.920160483225005 0.07603384921614767 1.7737406649575356
vn -0.34593686777395527 -0.3228191155982927 0.8809741778957435
vn -0.834388377898296 -0.22256403162430471 1.7477867530206201
vn -0.3114663622970124 0.13636888102900388 0.9404213063538934
vn -0.12457173104230207 0.26972369268586227 2.388590899041935
vn -0.875804360887704 -0.12166984008442122 1.7931940599074232
vn -1.1982997556196668 0.18810189362569985 2.7405080827304182
vn -0.5747970416094778 0.35442221068594637 1.839438292693562
vn 0.6328224651627156 0.017281792555011048 1.6318267192173068
vn -1.1358382112292111 0.0799411167221278 1.618779604053144
vn -1.3286817716985806 -0.0014189635848906451 2.674170855446153
vn -0.6505872612815167 0.1578546249477556 2.887375900446514
vn -1.0886945905884602 -0.11276723222137229 1.6698796765240824
vn 0.0 0.0 0.0
vn -1.0461454560737713 -0.17734008605407536 1.688412683278881
vn -0.7628899130898394 -0.2860318783197272 1.812563658434781
vn -1.0505469247291586 -0.22663544534492608 2.7941870356496583
vn -0.731815820499683 0.16211961093049873 1.8541923503215068
vn -0.41490769641157804 -0.06144394985664341 0.9077864531289569
vn -0.415448867848681 0.051100819564249444 0.9081800176413878
vn -0.34407445609257326 -0.08629134531865103 0.9349687547654719
vn -0.34916203360230186 0.04077474466502347 0.9361748204732956
vn -0.32148970627915285 0.05543120568411547 0.9452892415514678
vn -1.1395485894563633 -0.06948202609346073 2.766058853963795
vn -0.8532839737213831 -0.544382343798325 1.5713537333094116
vn -0.5041219401190813 -0.5851570884633485 0.635178912836116
vn -0.8007773812286281 0.15556383140614746 1.6868532953415414
vn -0.4497708551712064 -0.2225438347074257 0.8649742305249768
vn -1.2262423139634708 -0.13522587707536987 2.6858116773809044
vn -0.720406236212938 0.12790166688558974 1.8594082898153321
vn -0.9909483552860422 -0.7970490390524375 1.2402970098817119
vn -0.7653975013749537 0.06834271038296605 1.844535438513261
vn -0.48592558045185064 -0.747139906248666 0.3733151929997754
vn -0.8766128407281009 0.04758456319805724 1.7930940981799854
vn -1.357079248281286 -0.006520335553184455 2.672979059241832


f 8//8 12//12 14//14
f 24//24 12//12 8//8
f 11//11 12//12 13//13
f 14//14 12//12 11//11
f 68//68 16//16 35//35
f 16//16 68//68 17//17
f 19//19 21//21 18//18
f 20//20 18//18 21//21
f 21//21 19//19 24//24
f 18//18 20//20 22//22
f 22//22 20//20 21//21
f 27//27 33//33 26//26
f 68//68 27//27 26//26
f 27//27 68//68 35//35
f 28//28 33//33 29//29
f 29//29 33//33 27//27
f 29//29 27//27 30//30
f 31//31 33//33 32//32
f 32//32 33//33 34//34
f 34//34 33//33 28//28
f 27//27 35//35 30//30
f 77//77 38//38 41//41
f 37//37 77//77 41//41
f 45//45 44//44 38//38
f 39//39 37//37 40//40
f 40//40 37//37 41//41
f 47//47 44//44 45//45
f 46//46 47//47 45//45
f 45//45 32//32 46//46
f 92//92 50//50 55//55
f 62//62 55//55 63//63
f 55//55 50//50 63//63
f 51//51 63//63 50//50
f 52//52 63//63 51//51
f 53//53 63//63 52//52
f 24//24 63//63 12//12
f 12//12 63//63 53//53
f 13//13 12//12 53//53
f 11//11 13//13 53//53
f 55//55 58//58 110//110
f 59//59 58//58 55//55
f 56//56 65//65 57//57
f 65//65 56//56 66//66
f 56//56 57//57 60//60
f 57//57 58//58 59//59
f 59//59 60//60 57//57
f 68//68 56//56 60//60
f 17//17 68//68 60//60
f 61//61 60//60 59//59
f 55//55 54//54 92//92
f 63//63 19//19 59//59
f 18//18 17//17 60//60
f 18//18 60//60 61//61
f 19//19 61//61 59//59
f 19//19 18//18 61//61
f 19//19 63//63 24//24
f 69//69 64//64 65//65
f 45//45 69//69 65//65
f 67//67 45//45 65//65
f 67//67 65//65 66//66
f 67//67 66//66 68//68
f 66//66 56//56 68//68
f 70//70 69//69 45//45
f 31//31 67//67 33//33
f 67//67 26//26 33//33
f 67//67 68//68 26//26
f 67//67 32//32 45//45
f 67//67 31//31 32//32
f 72//72 73//73 142//142
f 73//73 74//74 142//142
f 76//76 73//73 71//71
f 38//38 76//76 71//71
f 73//73 75//75 74//74
f 73//73 76//76 75//75
f 38//38 71//71 78//78
f 77//77 75//75 76//76
f 38//38 77//77 76//76
f 71//71 69//69 78//78
f 64//64 69//69 71//71
f 78//78 69//69 70//70
f 78//78 70//70 45//45
f 38//38 78//78 45//45
f 108//108 79//79 80//80
f 109//109 108//108 82//82
f 86//86 85//85 84//84
f 87//87 89//89 88//88
f 108//108 85//85 81//81
f 81//81 85//85 86//86
f 93//93 89//89 87//87
f 92//92 93//93 87//87
f 50//50 87//87 88//88
f 92//92 87//87 50//50
f 95//95 96//96 104//104
f 104//104 96//96 97//97
f 98//98 104//104 97//97
f 99//99 80//80 100//100
f 101//101 95//95 104//104
f 104//104 99//99 102//102
f 99//99 100//100 102//102
f 99//99 104//104 98//98
f 102//102 100//100 80//80
f 104//104 102//102 105//105
f 65//65 104//104 105//105
f 104//104 65//65 103//103
f 105//105 102//102 106//106
f 107//107 105//105 106//106
f 57//57 65//65 105//105
f 57//57 105//105 107//107
f 79//79 102//102 80//80
f 102//102 79//79 108//108
f 107//107 109//109 83//83
f 110//110 107//107 92//92
f 92//92 107//107 83//83
f 57//57 107//107 58//58
f 58//58 107//107 110//110
f 55//55 110//110 54//54
f 54//54 110//110 92//92
f 111//111 112//112 115//115
f 115//115 112//112 113//113
f 113//113 114//114 115//115
f 115//115 114//114 116//116
f 117//117 115//115 116//116
f 119//119 115//115 118//118
f 120//120 118//118 117//117
f 117//117 118//118 115//115
f 115//115 119//119 121//121
f 121//121 120//120 122//122
f 122//122 120//120 117//117
f 127//127 115//115 121//121
f 121//121 122//122 123//123
f 64//64 128//128 121//121
f 123//123 122//122 125//125
f 125//125 122//122 65//65
f 127//127 126//126 111//111
f 111//111 115//115 127//127
f 127//127 121//121 128//128
f 117//117 116//116 129//129
f 130//130 117//117 129//129
f 117//117 104//104 103//103
f 130//130 104//104 117//117
f 122//122 117//117 103//103
f 65//65 122//122 103//103
f 65//65 64//64 125//125
f 131//131 132//132 134//134
f 131//131 134//134 133//133
f 134//134 132//132 135//135
f 139//139 136//136 137//137
f 134//134 136//136 139//139
f 135//135 136//136 134//134
f 139//139 137//137 138//138
f 134//134 140//140 133//133
f 143//143 139//139 128//128
f 139//139 143//143 134//134
f 134//134 143//143 140//140
f 141//141 143//143 128//128
f 143//143 142//142 140//140
f 143//143 144//144 142//142
f 141//141 144//144 143//143
f 145//145 141//141 128//128
f 144//144 141//141 145//145
f 71//71 145//145 128//128
f 126//126 139//139 138//138
f 139//139 127//127 128//128
f 144//144 72//72 142//142
f 144//144 145//145 73//73
f 72//72 144//144 73//73
f 73//73 145//145 71//71
f 139//139 126//126 127//127
f 64//64 71//71 128//128


