o Object.1
v 2.0365772247314453 -0.38973283767700195 -0.5264892578125
v 2.0232419967651367 -0.3499417304992676 -0.48655080795288086
v 2.0230679512023926 -0.30994224548339844 -0.4863990545272827
v 2.0337297916412354 -0.30974507331848145 -0.5262273550033569
v 1.698964238166809 -0.5519475936889648 -0.33018577098846436
v 1.933113694190979 -0.4704798460006714 -0.4485056400299072
v 1.939551830291748 -0.35057520866394043 -0.41543078422546387
v 1.732872486114502 -0.5932337045669556 0.0477718710899353
v 1.7075445652008057 -0.5934181213378906 0.06735402345657349
v 1.692481517791748 -0.5784826278686523 0.06716179847717285
v 1.6951237916946411 -0.5753648281097412 -0.09280556440353394
v 1.7180122137069702 -0.5126147270202637 -0.13218927383422852
v 1.7721002101898193 -0.4931415319442749 0.06881201267242432
v 1.6924729347229004 -0.4333401918411255 0.03021693229675293
v 1.697003960609436 -0.43285632133483887 -0.0922236442565918
v 1.6945457458496094 -0.4328573942184448 -0.0947648286819458
v 1.7008302211761475 -0.43253660202026367 -0.17217063903808594
v 1.6958091259002686 -0.42755818367004395 -0.17223477363586426
v 1.783144235610962 -0.392183780670166 -0.17064952850341797
v 1.817965030670166 -0.35203468799591064 -0.16991686820983887
v 1.8547468185424805 -0.3120001554489136 -0.13664746284484863
v 1.8859446048736572 -0.3115915060043335 -0.2086392641067505
v 1.8169820308685303 -0.47181153297424316 -0.23040473461151123
v 1.704228162765503 -0.5941907167434692 0.2673249840736389
v 1.6894789934158325 -0.594197154045105 0.25207817554473877
v 1.7037184238433838 -0.5937378406524658 0.14730077981948853
v 1.69142746925354 -0.5937432050704956 0.13459515571594238
v 1.7694470882415771 -0.4937596321105957 0.2287888526916504
v 1.6905896663665771 -0.448793888092041 0.1476430892944336
v 1.7149994373321533 -0.3136887550354004 0.14856994152069092
v 1.6901333332061768 -0.3437957763671875 0.1480412483215332
v 1.7331600189208984 -0.3134593963623047 0.10886621475219727
v 2.0833096504211426 -0.7895334959030151 -0.5272586345672607
v 2.1027183532714844 -0.7495452165603638 -0.5017788410186768
v 2.10304594039917 -0.7294489145278931 -0.5266995429992676
v 2.0221335887908936 -0.66994708776474 -0.4878056049346924
v 1.743783712387085 -0.8884885311126709 -0.5332721471786499
v 1.7737030982971191 -0.8708603382110596 -0.532707691192627
v 1.9827269315719604 -0.910220742225647 -0.46188342571258545
v 1.743011713027954 -0.8636434078216553 -0.4931831359863281
v 1.7036916017532349 -0.8661602735519409 -0.5338507890701294
v 1.860365390777588 -0.8312093019485474 -0.34108972549438477
v 1.9096825122833252 -0.8305809497833252 -0.4502851963043213
v 1.6986730098724365 -0.7522149085998535 -0.2609541416168213
v 1.701711654663086 -0.7520784139633179 -0.29340803623199463
v 2.0134940147399902 -0.8298327326774597 -0.5285723209381104
v 1.6957539319992065 -0.8730143308639526 -0.053939223289489746
v 1.697412133216858 -0.8726280927658081 -0.15392470359802246
v 1.6979176998138428 -0.9125502109527588 -0.17407339811325073
v 1.7745027542114258 -0.8929802179336548 0.027301311492919922
v 1.7738394737243652 -0.8931347131729126 0.06729555130004883
v 1.7934136390686035 -0.9125959873199463 -0.05247253179550171
v 1.8158233165740967 -0.8924998044967651 -0.052023231983184814
v 1.81690514087677 -0.912267804145813 -0.11209028959274292
v 1.7337501049041748 -0.8332685232162476 0.056860506534576416
v 1.7343671321868896 -0.8606520891189575 0.026760518550872803
v 1.6966578960418701 -0.8327639102935791 -0.11877810955047607
v 1.713231086730957 -0.8323327302932739 -0.21351534128189087
v 1.698265790939331 -0.8398967981338501 -0.2137928009033203
v 1.7342272996902466 -0.7925459146499634 -0.13300186395645142
v 1.8053697347640991 -0.7519376277923584 -0.21167665719985962
v 1.735806941986084 -0.7527097463607788 -0.08781522512435913
v 1.7358789443969727 -0.7501906156539917 -0.09280496835708618
v 1.6991198062896729 -0.9122700691223145 -0.2465628981590271
v 1.7352702617645264 -0.6101926565170288 -0.09227412939071655
v 1.732274055480957 -0.9136918783187866 0.16654133796691895
v 1.7318553924560547 -0.8937697410583496 0.18661415576934814
v 1.707261562347412 -0.8337233066558838 0.14643234014511108
v 1.7318847179412842 -0.8337030410766602 0.1693442463874817
v 1.7325894832611084 -0.8335388898849487 0.12685030698776245
v 1.7045879364013672 -0.7937345504760742 0.14654260873794556
v 1.7107279300689697 -0.6338596343994141 0.1872679591178894
v 1.6901869773864746 -0.6615995168685913 0.22682583332061768
v 1.7301595211029053 -0.6564280986785889 0.2275087833404541
v 1.6905786991119385 -0.5989459753036499 0.18706870079040527
v 1.7306489944458008 -0.616274356842041 0.1876661777496338
v 1.7319755554199219 -0.6159652471542358 0.10767793655395508
v 2.024709939956665 -1.1097853183746338 -0.5294678211212158
v 2.023350954055786 -0.9499425292015076 -0.4888671636581421
v 1.828432321548462 -1.1515363454818726 -0.29284965991973877
v 1.8608406782150269 -1.1313974857330322 -0.2922344207763672
v 1.8959224224090576 -1.1512471437454224 -0.291729211807251
v 1.9001497030258179 -1.1263805627822876 -0.25155723094940186
v 1.9184191226959229 -1.1511507034301758 -0.2913557291030884
v 1.9438591003417969 -1.1503688097000122 -0.468456506729126
v 1.9441561698913574 -1.132782220840454 -0.490886926651001
v 1.9041056632995605 -1.1104443073272705 -0.49396538734436035
v 1.8999106884002686 -1.0713815689086914 -0.2513487935066223
v 1.9410240650177002 -1.0709495544433594 -0.31817495822906494
v 1.702841877937317 -1.0715625286102295 -0.4296431541442871
v 1.703169345855713 -1.0514663457870483 -0.45456361770629883
v 1.7424629926681519 -1.071478009223938 -0.406482458114624
v 1.780832290649414 -1.0316452980041504 -0.3181793689727783
v 1.8375734090805054 -1.0710420608520508 -0.41240453720092773
v 1.704289436340332 -1.0036580562591553 -0.534372091293335
v 1.7816463708877563 -1.0089333057403564 -0.37308621406555176
v 1.7843430042266846 -1.018315076828003 -0.5331008434295654
v 1.9016770124435425 -0.990890383720398 -0.3785269260406494
v 1.7014840841293335 -0.9692765474319458 -0.3742624521255493
v 1.7018307447433472 -0.9917182922363281 -0.3893454074859619
v 1.8215562105178833 -0.9512240886688232 -0.38220274448394775
v 1.9827005863189697 -1.1905057430267334 -0.38795578479766846
v 1.9836541414260864 -1.1902837753295898 -0.4454474449157715
v 2.0140480995178223 -1.1099827289581299 -0.48963963985443115
v 2.0057120323181152 -1.0701699256896973 -0.4496183395385742
v 2.019014835357666 -0.9498093724250793 -0.5289444923400879
v 1.7032999992370605 -0.9288138151168823 -0.4940934181213379
v 1.8436245918273926 -1.232078194618225 -0.13288557529449463
v 1.8592420816421509 -1.2218595743179321 -0.1725928783416748
v 1.8866075277328491 -1.191742181777954 -0.17202270030975342
v 1.8920961618423462 -1.1515668630599976 -0.21178221702575684
v 1.9222657680511475 -1.1914377212524414 -0.2114359736442566
v 1.9390130043029785 -1.1715176105499268 -0.17107540369033813
v 1.899968147277832 -1.1514477729797363 -0.2341545820236206
v 1.6953516006469727 -0.9331678152084351 -0.014172494411468506
v 1.7373247146606445 -0.9300329685211182 -0.13348162174224854
v 1.7760032415390015 -0.9326705932617188 -0.052838802337646484
v 1.6926984786987305 -0.9337857961654663 0.14580434560775757
v 1.7099947929382324 -1.4714378118515015 -0.45607292652130127
v 1.8250973224639893 -1.498444676399231 -0.45426833629608154
v 1.8643087148666382 -1.4709283113479614 -0.41350603103637695
v 1.9042484760284424 -1.4582570791244507 -0.4127945899963379
v 1.9416221380233765 -1.4662036895751953 -0.2521823048591614
v 1.9777913093566895 -1.4307453632354736 -0.3314570188522339
v 1.9671294689178467 -1.4309427738189697 -0.2916288375854492
v 1.982873558998108 -1.4307045936584473 -0.33637332916259766
v 1.984149694442749 -1.4379148483276367 -0.41139090061187744
v 1.7847119569778442 -1.408617615699768 -0.4545910358428955
v 1.9861273765563965 -1.4705580472946167 -0.37147843837738037
v 1.7370383739471436 -1.513179898262024 0.03428542613983154
v 1.6986560821533203 -1.5405032634735107 -0.05646979808807373
v 1.7013092041015625 -1.53988516330719 -0.2164466381072998
v 1.7553646564483643 -1.5129117965698242 -0.015416920185089111
v 1.6964921951293945 -1.5009673833847046 0.0636644959449768
v 1.7863595485687256 -1.473082184791565 0.0652625560760498
v 1.8483407497406006 -1.47236168384552 -0.05372411012649536
v 1.6961320638656616 -1.5135637521743774 0.08861339092254639
v 1.6959702968597412 -1.5336213111877441 0.1035354733467102


vn -0.7095323801040649 -0.06378678977489471 -0.7017799019813538
vn -0.6523934006690979 0.052646953612565994 -0.7560496926307678
vn -0.6913862228393555 0.5963137745857239 -0.4079152047634125
vn -0.9604687690734863 -0.023229805752635002 -0.27741727232933044
vn 0.9975075721740723 0.031513843685388565 -0.0631304383277893
vn -0.7046689987182617 0.08350753784179688 -0.7046048045158386
vn -0.8348392248153687 0.2576647102832794 -0.4864691495895386
vn -0.6699868440628052 0.7393182516098022 -0.06727644801139832
vn 0.42156627774238586 0.8829917907714844 0.20641586184501648
vn 0.5416761636734009 0.8404982089996338 0.012230312451720238
vn 0.5415850877761841 0.6827057600021362 0.49050822854042053
vn 0.986694872379303 0.08764167129993439 -0.13693860173225403
vn 0.9820801019668579 -0.14741316437721252 -0.11742203682661057
vn -0.9889707565307617 -0.048587724566459656 -0.13991452753543854
vn 0.0 0.0 0.0
vn 0.0 0.0 0.0
vn 0.9949281811714172 0.08688118308782578 -0.05069182813167572
vn 0.7012331485748291 0.7082907557487488 0.08121679723262787
vn -0.8625330328941345 0.2648170590400696 -0.4311712384223938
vn -0.6474963426589966 0.7029746770858765 -0.29423651099205017
vn -0.6311004161834717 0.7188672423362732 -0.2914484739303589
vn -0.6287457942962646 0.7180927395820618 -0.29836443066596985
vn -0.8433371186256409 0.009174495935440063 -0.5373066067695618
vn 0.0 0.0 0.0
vn 0.0 0.0 0.0
vn 0.5250065922737122 0.8460696935653687 0.09238018095493317
vn 0.29683953523635864 0.9548735618591309 0.010139944963157177
vn -0.6629577279090881 -0.6784189343452454 0.3165988326072693
vn 0.0 0.0 0.0
vn -0.7190266847610474 0.6235832571983337 -0.3068299889564514
vn -0.8284072279930115 0.46493926644325256 -0.31236669421195984
vn -0.6448882222175598 0.6977627277374268 -0.31184354424476624
vn 0.0 0.0 0.0
vn -0.6943645477294922 0.6123884320259094 0.37793928384780884
vn -0.398517370223999 -0.1165878102183342 -0.9097203612327576
vn -0.5095978379249573 -0.029378043487668037 -0.8599110245704651
vn 0.7031911611557007 -0.5982068181037903 0.3842794895172119
vn 0.4732385575771332 0.8552128076553345 0.2113201767206192
vn -0.16873052716255188 -0.09833430498838425 -0.9807447791099548
vn -0.039984267204999924 0.3471134603023529 -0.9369702935218811
vn 0.029121074825525284 0.9955368041992188 -0.08976855129003525
vn -0.8461330533027649 0.2911367118358612 -0.4464282989501953
vn -0.6593813300132751 0.6639564633369446 0.35267287492752075
vn 0.9705359935760498 0.02308720164000988 -0.2398476004600525
vn 0.9947775602340698 0.02102608233690262 -0.09987810254096985
vn -0.9237453937530518 0.3815198242664337 0.03371882438659668
vn -0.9441366791725159 -0.252129465341568 -0.21221818029880524
vn 0.9627483487129211 0.020748794078826904 0.269601970911026
vn 0.0 0.0 0.0
vn 0.3815319240093231 -0.9112867712974548 0.15488657355308533
vn 0.0 0.0 0.0
vn 0.0 0.0 0.0
vn 0.0 0.0 0.0
vn 0.0 0.0 0.0
vn 0.0 0.0 0.0
vn 0.0 0.0 0.0
vn 0.0 0.0 0.0
vn -0.7705174684524536 0.5903748869895935 -0.24033400416374207
vn -0.15345856547355652 0.9803056120872498 -0.12430299818515778
vn 0.8720811009407043 0.029869742691516876 -0.48844897747039795
vn -0.8758002519607544 0.04490845650434494 -0.4805801212787628
vn -0.7651649713516235 0.5740659832954407 -0.2914973199367523
vn 0.753297746181488 -0.5061798691749573 0.4199100732803345
vn 0.0 0.0 0.0
vn -0.9333012104034424 0.010894320905208588 -0.35892918705940247
vn 0.0 0.0 0.0
vn 0.0 0.0 0.0
vn 0.0 0.0 0.0
vn 0.0 0.0 0.0
vn 0.0 0.0 0.0
vn 0.0 0.0 0.0
vn -0.7501857280731201 0.661153256893158 -0.009886432439088821
vn -0.8111730217933655 0.5846990346908569 -0.011193325743079185
vn 0.0 0.0 0.0
vn 0.6026951670646667 0.7409709692001343 0.296176552772522
vn -0.6614160537719727 0.7480347752571106 0.05452370643615723
vn -0.37116891145706177 0.9283968210220337 -0.01769186742603779
vn -0.9654025435447693 -0.03352213650941849 -0.25860047340393066
vn -0.7830843925476074 -0.03651786968111992 -0.6208423972129822
vn 0.0 0.0 0.0
vn 0.0 0.0 0.0
vn 0.0 0.0 0.0
vn 0.0 0.0 0.0
vn 0.0 0.0 0.0
vn 0.0 0.0 0.0
vn 0.0 0.0 0.0
vn 0.5881824493408203 0.8035219311714172 0.09161916375160217
vn 0.0 0.0 0.0
vn 0.0 0.0 0.0
vn 0.0 0.0 0.0
vn -0.02010924369096756 0.8807875514030457 0.47308453917503357
vn 0.018845992162823677 0.9284343123435974 0.37101826071739197
vn 0.0615922212600708 -0.6405550837516785 -0.7654381990432739
vn 0.2528446912765503 0.9125934839248657 0.32131391763687134
vn 0.055069971829652786 0.8982269763946533 0.43606820702552795
vn 0.2359481304883957 -0.741061806678772 -0.6286143660545349
vn 0.43143680691719055 0.8809140920639038 0.19455760717391968
vn -0.4675389230251312 -0.46946486830711365 -0.7490061521530151
vn -0.3834715485572815 -0.7893702983856201 -0.47942054271698
vn 0.2781918942928314 0.5387516021728516 -0.7952081561088562
vn 0.25300565361976624 -0.6434080004692078 -0.7225056290626526
vn -0.7759342789649963 -0.16377796232700348 -0.6091820597648621
vn 0.0 0.0 0.0
vn -0.8982300162315369 -0.04469633102416992 -0.4372469484806061
vn -0.8135841488838196 -0.3069054186344147 -0.4938521087169647
vn -0.9726778864860535 -0.08478464186191559 -0.21612320840358734
vn 0.37726399302482605 -0.6945246458053589 -0.6126235127449036
vn 0.0 0.0 0.0
vn 0.0 0.0 0.0
vn 0.0 0.0 0.0
vn 0.0 0.0 0.0
vn 0.0 0.0 0.0
vn 0.0 0.0 0.0
vn 0.0 0.0 0.0
vn 0.14163868129253387 -0.9892416596412659 0.0365997739136219
vn -0.5690483450889587 0.43255379796028137 0.6993433833122253
vn -0.6412736177444458 -0.7630870938301086 -0.08041362464427948
vn 0.45103633403778076 -0.8924964666366577 0.004032512195408344
vn 0.18682332336902618 0.8312232494354248 0.523607611656189
vn -0.045523542910814285 0.9364141225814819 0.34793150424957275
vn -0.2381163239479065 0.9611826539039612 0.13938581943511963
vn 0.0 0.0 0.0
vn 0.0 0.0 0.0
vn -0.8118304014205933 0.32058730721473694 -0.48801150918006897
vn 0.0 0.0 0.0
vn 0.0 0.0 0.0
vn 0.0 0.0 0.0
vn -0.016582299023866653 -0.0038633057847619057 0.9998550415039062
vn -0.34694626927375793 0.9367595911026001 -0.045933302491903305
vn -0.32663190364837646 0.9258560538291931 -0.19000592827796936
vn -0.2786100506782532 0.9575966000556946 -0.07338384538888931
vn -0.13216173648834229 0.9836591482162476 0.1222618818283081
vn -0.8341386914253235 0.22833818197250366 -0.502069890499115
vn -0.05857545882463455 0.8905782103538513 -0.4510425925254822
vn -0.3988730013370514 0.8151376247406006 -0.42006048560142517
vn 0.0 0.0 0.0
vn 0.0 0.0 0.0
vn 0.0 0.0 0.0


f 1//1 35//35 36//36
f 1//1 36//36 2//2
f 4//4 1//1 2//2
f 4//4 2//2 3//3
f 17//17 5//5 18//18
f 7//7 2//2 6//6
f 7//7 6//6 61//61
f 7//7 3//3 2//2
f 8//8 65//65 10//10
f 10//10 9//9 8//8
f 10//10 65//65 11//11
f 8//8 13//13 65//65
f 11//11 65//65 12//12
f 28//28 65//65 13//13
f 14//14 65//65 28//28
f 65//65 14//14 19//19
f 11//11 12//12 17//17
f 19//19 14//14 31//31
f 18//18 11//11 17//17
f 7//7 19//19 20//20
f 21//21 20//20 19//19
f 7//7 20//20 21//21
f 22//22 7//7 21//21
f 19//19 7//7 23//23
f 3//3 7//7 22//22
f 26//26 27//27 75//75
f 32//32 19//19 30//30
f 30//30 19//19 31//31
f 10//10 27//27 9//9
f 32//32 21//21 19//19
f 40//40 37//37 38//38
f 43//43 40//40 59//59
f 40//40 41//41 59//59
f 40//40 38//38 41//41
f 42//42 6//6 43//43
f 40//40 43//43 6//6
f 6//6 39//39 40//40
f 44//44 5//5 45//45
f 42//42 61//61 6//6
f 106//106 79//79 39//39
f 46//46 106//106 39//39
f 39//39 6//6 36//36
f 34//34 46//46 39//39
f 35//35 34//34 39//39
f 35//35 39//39 36//36
f 5//5 17//17 45//45
f 6//6 2//2 36//36
f 117//117 58//58 116//116
f 116//116 58//58 48//48
f 47//47 58//58 117//117
f 58//58 47//47 62//62
f 59//59 60//60 58//58
f 58//58 60//60 48//48
f 42//42 58//58 62//62
f 60//60 44//44 12//12
f 62//62 60//60 63//63
f 60//60 61//61 63//63
f 65//65 61//61 60//60
f 65//65 60//60 12//12
f 62//62 63//63 61//61
f 62//62 61//61 42//42
f 59//59 58//58 43//43
f 58//58 42//42 43//43
f 12//12 44//44 45//45
f 12//12 45//45 17//17
f 8//8 9//9 27//27
f 65//65 19//19 61//61
f 19//19 23//23 61//61
f 7//7 61//61 23//23
f 72//72 77//77 73//73
f 76//76 72//72 73//73
f 72//72 76//76 77//77
f 26//26 75//75 77//77
f 77//77 27//27 26//26
f 91//91 92//92 94//94
f 94//94 87//87 97//97
f 94//94 95//95 91//91
f 97//97 95//95 94//94
f 107//107 101//101 96//96
f 96//96 99//99 107//107
f 96//96 100//100 99//99
f 101//101 93//93 96//96
f 101//101 98//98 93//93
f 102//102 98//98 105//105
f 104//104 102//102 105//105
f 104//104 105//105 98//98
f 98//98 79//79 104//104
f 104//104 79//79 106//106
f 104//104 106//106 78//78
f 40//40 101//101 107//107
f 37//37 40//40 107//107
f 101//101 40//40 98//98
f 39//39 98//98 40//40
f 79//79 98//98 39//39
f 62//62 47//47 115//115
f 47//47 117//117 115//115
f 118//118 115//115 50//50
f 115//115 117//117 50//50
f 129//129 121//121 132//132
f 132//132 121//121 120//120
f 132//132 120//120 119//119
f 119//119 120//120 128//128
f 130//130 131//131 134//134
f 130//130 129//129 131//131
f 129//129 132//132 131//131
f 129//129 133//133 124//124
f 130//130 133//133 129//129
f 133//133 130//130 135//135
f 130//130 134//134 135//135


