o Object.1
v -5.789706230163574 -0.6321468949317932 2.317762851715088
v -5.682214736938477 -0.6341996788978577 2.3197340965270996
v -5.669769287109375 -0.621647834777832 2.319983959197998
v -5.630091667175293 -0.6340155005455017 2.340695381164551
v -5.78989315032959 -0.5546349287033081 2.3103909492492676
v -5.7700347900390625 -0.5545644760131836 2.3182570934295654
v -5.750054359436035 -0.5944979190826416 2.3285574913024902
v -5.7502217292785645 -0.5544984340667725 2.328622817993164
v -5.6707658767700195 -0.5592168569564819 2.360079526901245
v -5.75057315826416 -0.5145159959793091 2.338686466217041
v -5.77286958694458 -0.4745757579803467 2.3183417320251465
v -5.750694751739502 -0.474511981010437 2.336252212524414
v -5.7505202293396 -0.4394824504852295 2.318812370300293
v -5.74804162979126 -0.4344722032546997 2.318866491317749
v -5.671152114868164 -0.4342052936553955 2.352785110473633
v -5.631202697753906 -0.45655155181884766 2.3609819412231445
v -5.7508463859558105 -0.39449572563171387 2.3263845443725586
v -5.790777683258057 -0.3546410799026489 2.3132171630859375
v -5.765873908996582 -0.35454559326171875 2.3186757564544678
v -5.711251258850098 -0.3543510437011719 2.3396830558776855
v -5.671442031860352 -0.35420167446136475 2.3504161834716797
v -5.634131908416748 -0.3540627956390381 2.3611035346984863
v -5.529047012329102 -0.5536924600601196 2.4026989936828613
v -5.511435031890869 -0.5811192989349365 2.402975559234619
v -5.551802635192871 -0.513795018196106 2.4073500633239746
v -5.511855602264404 -0.5136327743530273 2.4105844497680664
v -5.512282371520996 -0.4336421489715576 2.4157145023345947
v -5.552213668823242 -0.3937877416610718 2.4025468826293945
v -5.5548810958862305 -0.35379838943481445 2.402566432952881
v -5.552427291870117 -0.3537921905517578 2.405111789703369
v -5.5522661209106445 -0.3812878131866455 2.4025673866271973
v -5.512663841247559 -0.3536471128463745 2.418344736099243
v -5.590787410736084 -0.6339132189750671 2.3789238929748535
v -5.590633392333984 -0.5938836336135864 2.361492156982422
v -5.551161766052246 -0.6337810158729553 2.399655342102051
v -5.511168956756592 -0.6336144804954529 2.400390386581421
v -5.511244773864746 -0.5936062335968018 2.395456314086914
v -5.591122627258301 -0.5539140701293945 2.379054546356201
v -5.6710004806518555 -0.5142216682434082 2.362652540206909
v -5.591504096984863 -0.4739190340042114 2.3816847801208496
v -5.55195426940918 -0.4337787628173828 2.3974826335906982
v -5.631648540496826 -0.39406919479370117 2.371082305908203
v -5.948273658752441 -0.5951676368713379 2.2298989295959473
v -5.908618450164795 -0.6350479125976562 2.258064031600952
v -5.90883207321167 -0.5950524806976318 2.2606289386749268
v -5.987945556640625 -0.595304012298584 2.211667060852051
v -5.9210381507873535 -0.5550622940063477 2.235468864440918
v -5.908724308013916 -0.5550273656845093 2.245696783065796
v -5.9586992263793945 -0.5152187347412109 2.2348451614379883
v -5.869312286376953 -0.514899730682373 2.2689931392669678
v -5.829886436462402 -0.554801344871521 2.3096561431884766
v -5.829778671264648 -0.5147761106491089 2.2947239875793457
v -5.943869590759277 -0.4751565456390381 2.2351861000061035
v -5.9092888832092285 -0.4750494956970215 2.2583255767822266
v -5.869575500488281 -0.4849127531051636 2.276541233062744
v -5.988967418670654 -0.3953232765197754 2.221992015838623
v -5.909578323364258 -0.3950459957122803 2.2559566497802734
v -5.988951206207275 -0.35530638694763184 2.212059259414673
v -5.94927978515625 -0.35517001152038574 2.2302908897399902
v -5.949277400970459 -0.37767839431762695 2.23525333404541
v -5.936873912811279 -0.3551265001296997 2.2355198860168457
v -5.909791946411133 -0.35505056381225586 2.258521318435669
v -5.8700785636901855 -0.3649141788482666 2.2767372131347656
v -5.829229354858398 -0.6347705721855164 2.2920281887054443
v -5.7921953201293945 -0.6346573829650879 2.3177130222320557
v -5.8300676345825195 -0.4347726106643677 2.2923550605773926
v -5.8301897048950195 -0.39476871490478516 2.2899208068847656
v -5.8304948806762695 -0.3547818660736084 2.297484874725342
v -5.7213053703308105 -0.6742972731590271 2.2789406776428223
v -5.708849906921387 -0.6642454266548157 2.279186725616455
v -5.948046684265137 -0.7151920795440674 2.2447004318237305
v -5.948030471801758 -0.6751754283905029 2.234767436981201
v -5.948030471801758 -0.6751754283905029 2.234767436981201
v -5.868842124938965 -0.6599110960960388 2.2762551307678223


vn 0.4948354661464691 -0.09083272516727448 -0.8642263412475586
vn 0.0 0.0 0.0
vn 0.0 0.0 0.0
vn 0.27313676476478577 0.2563510537147522 -0.9271895289421082
vn 0.28442999720573425 -0.030131012201309204 -0.9582232236862183
vn 0.36785605549812317 -0.05659698322415352 -0.928158700466156
vn 0.25943705439567566 0.25032955408096313 -0.9327527284622192
vn 0.3715890645980835 0.1190132349729538 -0.9207374453544617
vn 0.23970676958560944 0.18221518397331238 -0.9535922408103943
vn 0.30567115545272827 0.09219913929700851 -0.9476625919342041
vn 0.3443502187728882 -0.010848057456314564 -0.9387785792350769
vn 0.2362605333328247 -0.1401865929365158 -0.9615240693092346
vn 0.6018930673599243 -0.28972166776657104 -0.7441680431365967
vn 0.29392412304878235 -0.09627969563007355 -0.9509672522544861
vn 0.3364483714103699 0.016707541421055794 -0.9415537118911743
vn 0.3233264684677124 -0.03956236690282822 -0.9454601407051086
vn 0.3603338301181793 0.0030353080946952105 -0.9328184723854065
vn 0.31160470843315125 -0.001731246244162321 -0.9502102136611938
vn 0.21326370537281036 -0.10716300457715988 -0.9710997343063354
vn 0.25957706570625305 0.06320023536682129 -0.9636521339416504
vn 0.2671578526496887 0.04756131023168564 -0.9624783396720886
vn 0.3804057836532593 -0.37045806646347046 -0.8473796248435974
vn 0.7632184028625488 0.4853408932685852 -0.4265466034412384
vn 0.4200911819934845 0.28667908906936646 -0.8610101938247681
vn 0.3343370258808136 0.03651220351457596 -0.9417460560798645
vn 0.20873171091079712 0.013259651139378548 -0.9778830409049988
vn 0.37581899762153625 0.0613052062690258 -0.9246630072593689
vn 0.3722699284553528 0.08032543212175369 -0.9246420860290527
vn 0.3827464282512665 -0.0657234862446785 -0.9215126037597656
vn 0.34648486971855164 0.04294603317975998 -0.9370719790458679
vn 0.7190366387367249 0.04830115661025047 -0.6932916045188904
vn 0.3154890835285187 0.03268669918179512 -0.9483660459518433
vn 0.5653186440467834 -0.3311636745929718 -0.7554769515991211
vn 0.3890756666660309 0.14463238418102264 -0.9097810983657837
vn 0.29912638664245605 -0.0570506677031517 -0.952506422996521
vn 0.018747545778751373 -0.12234257906675339 -0.9923108220100403
vn 0.10820036381483078 -0.04485233873128891 -0.9931167960166931
vn 0.42776140570640564 0.1530521661043167 -0.8908395767211914
vn 0.2649347186088562 -0.043106094002723694 -0.9633023142814636
vn 0.34969601035118103 0.024170970544219017 -0.9365513920783997
vn 0.33582597970962524 -0.011864062398672104 -0.9418492317199707
vn 0.36377212405204773 0.08360012620687485 -0.9277288913726807
vn 0.0 0.0 0.0
vn 0.5557036995887756 -0.07487740367650986 -0.8280016779899597
vn 0.5213208198547363 -0.004124038387089968 -0.8533507585525513
vn 0.0 0.0 0.0
vn 0.0 0.0 0.0
vn 0.999822735786438 0.0041584293358027935 0.01836222968995571
vn 0.33509334921836853 -0.04649914801120758 -0.9410368204116821
vn 0.41757550835609436 0.003237073542550206 -0.9086363911628723
vn 0.018271703273057938 0.022540196776390076 -0.9995789527893066
vn 0.3530532121658325 -0.08593128621578217 -0.9316486716270447
vn 0.0 0.0 0.0
vn 0.4952365458011627 -0.038931284099817276 -0.8678855299949646
vn 0.4539887607097626 0.04825563728809357 -0.8896996974945068
vn 0.2833101749420166 -0.08254853636026382 -0.9554690718650818
vn 0.4635595381259918 0.0033886879682540894 -0.8860592246055603
vn 0.4079643487930298 -0.22010047733783722 -0.8860705494880676
vn 0.35298335552215576 -0.0880899578332901 -0.9314734935760498
vn 0.8492216467857361 -0.1136007159948349 -0.5156718492507935
vn 0.3812263309955597 -0.19900284707546234 -0.9028092622756958
vn 0.45509374141693115 0.01739998161792755 -0.8902735114097595
vn 0.4175795614719391 0.003234571311622858 -0.9086345434188843
vn 0.3179306983947754 0.053154416382312775 -0.9466227889060974
vn 0.5003747940063477 -0.4818318784236908 -0.7193489670753479
vn 0.3810376226902008 -0.05499750375747681 -0.9229222536087036
vn 0.41055288910865784 0.02396354265511036 -0.911521852016449
vn 0.3973503112792969 0.13656120002269745 -0.9074490666389465
vn 0.0 0.0 0.0
vn 0.0 0.0 0.0
vn 0.6337329745292664 -0.1865987926721573 -0.7507086396217346
vn 0.6337329745292664 -0.1865987926721573 -0.7507086396217346
vn 0.0 0.0 0.0
vn 0.4457646608352661 0.05965925380587578 -0.8931599259376526


f 64//64 5//5 1//1
f 5//5 6//6 1//1
f 7//7 8//8 9//9
f 9//9 4//4 7//7
f 4//4 9//9 34//34
f 9//9 8//8 10//10
f 9//9 10//10 12//12
f 39//39 12//12 14//14
f 12//12 13//13 14//14
f 13//13 11//11 14//14
f 15//15 16//16 39//39
f 15//15 39//39 14//14
f 40//40 39//39 16//16
f 17//17 11//11 67//67
f 14//14 11//11 17//17
f 15//15 14//14 17//17
f 18//18 19//19 17//17
f 17//17 20//20 21//21
f 21//21 22//22 17//17
f 24//24 23//23 25//25
f 26//26 24//24 25//25
f 26//26 25//25 41//41
f 27//27 26//26 41//41
f 27//27 41//41 28//28
f 30//30 31//31 29//29
f 30//30 28//28 31//31
f 27//27 28//28 30//30
f 32//32 27//27 30//30
f 34//34 33//33 4//4
f 35//35 33//33 34//34
f 36//36 35//35 37//37
f 35//35 34//34 38//38
f 35//35 38//38 40//40
f 23//23 24//24 40//40
f 40//40 24//24 37//37
f 40//40 37//37 35//35
f 39//39 9//9 12//12
f 39//39 34//34 9//9
f 34//34 39//39 38//38
f 23//23 40//40 25//25
f 38//38 39//39 40//40
f 25//25 40//40 41//41
f 42//42 15//15 17//17
f 42//42 16//16 15//15
f 40//40 16//16 42//42
f 41//41 40//40 28//28
f 29//29 17//17 22//22
f 29//29 42//42 17//17
f 40//40 42//42 29//29
f 29//29 31//31 28//28
f 29//29 28//28 40//40
f 54//54 45//45 48//48
f 45//45 54//54 52//52
f 54//54 50//50 52//52
f 54//54 55//55 50//50
f 52//52 50//50 55//55
f 55//55 54//54 57//57
f 60//60 49//49 59//59
f 59//59 49//49 56//56
f 59//59 56//56 58//58
f 60//60 59//59 61//61
f 62//62 63//63 55//55
f 62//62 55//55 57//57
f 1//1 65//65 64//64
f 64//64 51//51 5//5
f 52//52 6//6 5//5
f 52//52 5//5 51//51
f 11//11 66//66 67//67
f 17//17 67//67 68//68
f 17//17 68//68 18//18
f 71//71 72//72 44//44
f 74//74 44//44 45//45


