o Object.1
v -1.386911153793335 1.1703274250030518 2.2082953453063965
v -1.402000904083252 1.1680330038070679 2.2628231048583984
v -1.2688212394714355 1.1814937591552734 2.3711953163146973
v -1.3080500364303589 1.1637494564056396 2.347557306289673
v -1.2732512950897217 1.1662744283676147 2.327836275100708
v -1.934004306793213 0.9933019876480103 2.7031259536743164
v -1.9251303672790527 0.9810248017311096 2.7441506385803223
v -1.8280413150787354 0.7054245471954346 3.610363245010376
v -1.782356858253479 0.705457329750061 3.5844945907592773
v -1.841196060180664 0.6656994819641113 3.678408145904541
v -1.8385233879089355 0.6658501029014587 3.7084970474243164
v -1.8453094959259033 0.6654126644134521 3.620406150817871
v -1.8363425731658936 0.6256360411643982 3.66156005859375
v -1.8192095756530762 0.7056471705436707 3.6513290405273438
v -1.8127001523971558 0.7106518149375916 3.6476101875305176
v -1.8790309429168701 0.6633471250534058 3.2056894302368164
v -1.8614468574523926 0.6638870239257812 3.30777645111084
v -1.8608704805374146 0.663941502571106 3.318941831588745
v -1.85004460811615 0.6245447397232056 3.4394850730895996
v -1.8856419324874878 0.7036527991294861 3.275245189666748
v -1.8242099285125732 0.7045621275901794 3.4243266582489014
v -1.8508853912353516 0.7186775803565979 3.255465269088745
v -1.8068654537200928 0.7220742702484131 3.4143896102905273
v -1.8565764427185059 0.6647557020187378 3.4888856410980225
v -1.856711745262146 0.7047550678253174 3.4886975288391113
v -1.8902416229248047 0.6227855086326599 3.094512462615967
v -1.9077860116958618 0.7029879689216614 3.149883985519409
v -1.9041099548339844 0.7094090580940247 2.9179189205169678
v -1.8994991779327393 0.7098449468612671 3.007241725921631
v -1.8601152896881104 0.7203056812286377 3.076807975769043
v -1.9039491415023804 0.661909818649292 2.918142557144165
v -1.928274154663086 0.7014592289924622 2.8397181034088135
v -1.9188661575317383 0.701736330986023 2.8918492794036865
v -1.9087204933166504 0.7089731693267822 2.828596353530884
v -1.9074978828430176 0.7030152082443237 3.1554667949676514
v -1.8555045127868652 0.7207416296005249 3.166131019592285
v -1.9465813636779785 0.6597161889076233 2.4826152324676514
v -1.9241775274276733 0.6608137488365173 2.699763059616089
v -1.9684205055236816 0.7000109553337097 2.560793876647949
v -1.9572919607162476 0.6876407861709595 2.5804314613342285
v -1.9375238418579102 0.6703715920448303 2.6153206825256348
v -1.9353200197219849 0.7005890011787415 2.6598408222198486
v -1.925623893737793 0.7008933424949646 2.7175545692443848
v -1.9241831302642822 0.7010294795036316 2.7454679012298584
v -1.917047142982483 0.6213738322257996 2.8137800693511963
v -1.9147188663482666 0.6614018678665161 2.8179428577423096
v -1.9284040927886963 0.7012428045272827 2.7938246726989746
v -1.8461426496505737 0.3458492159843445 3.7149300575256348
v -1.8443732261657715 0.46584874391555786 3.7131335735321045
v -1.8443677425384521 0.42563319206237793 3.667428493499756
v -1.8401521444320679 0.4656355381011963 3.6647768020629883
v -1.8424628973007202 0.5056333541870117 3.665820360183716
v -1.8405580520629883 0.5856335759162903 3.6642119884490967
v -1.85970938205719 0.30475860834121704 3.4930434226989746
v -1.8556121587753296 0.3797605037689209 3.4902267456054688
v -1.8782981634140015 0.42344582080841064 3.2269740104675293
v -1.8693366050720215 0.42388486862182617 3.313833236694336
v -1.8690769672393799 0.4243175983428955 3.4056196212768555
v -1.8558998107910156 0.4647589921951294 3.4898266792297363
v -1.8651463985443115 0.4713871479034424 3.311145782470703
v -1.867572546005249 0.5841001272201538 3.357741594314575
v -1.8546679019927979 0.46477341651916504 3.492002248764038
v -1.8511078357696533 0.5048159956932068 3.498340129852295
v -1.9014995098114014 0.3019302487373352 2.9220118522644043
v -1.9074881076812744 0.42191082239151 2.9217355251312256
v -1.8891240358352661 0.46284258365631104 3.106430768966675
v -1.8964918851852417 0.502566397190094 3.052879571914673
v -1.894423484802246 0.5727832317352295 3.0972113609313965
v -1.8985157012939453 0.34191834926605225 2.917184591293335
v -1.9081791639328003 0.5489758849143982 2.8293492794036865
v -1.9293560981750488 0.30103152990341187 2.7510457038879395
v -1.943328857421875 0.37993884086608887 2.5285942554473877
v -1.9321918487548828 0.3803795576095581 2.6142213344573975
v -1.950120449066162 0.4197171926498413 2.486208200454712
v -1.9482156038284302 0.4997173547744751 2.484600067138672
v -1.9368557929992676 0.47287487983703613 2.6162497997283936
v -1.944000005722046 0.5397197604179382 2.481947898864746
v -1.9188342094421387 0.4213483929634094 2.810370445251465
v -1.8564567565917969 0.024981379508972168 3.5390219688415527
v -1.8476250171661377 0.025203943252563477 3.5799880027770996
v -1.8500711917877197 0.10520100593566895 3.580843448638916
v -1.8480310440063477 0.1452019214630127 3.579423427581787
v -1.848301649093628 0.22520053386688232 3.5790467262268066
v -1.8498114347457886 0.10563385486602783 3.6726298332214355
v -1.8453505039215088 0.07313752174377441 3.670319080352783
v -1.8455111980438232 0.1206367015838623 3.670095443725586
v -1.849697232246399 0.265591025352478 3.6628870964050293
v -1.8503527641296387 0.2656310200691223 3.671876907348633
v -1.8459680080413818 0.2556344270706177 3.6694602966308594
v -1.849535346031189 -0.014580726623535156 3.6273012161254883
v -1.8408390283584595 0.025641441345214844 3.668078899383545
v -1.8489747047424316 0.14521467685699463 3.5828306674957275
v -1.8371647596359253 0.225641131401062 3.6646740436553955
v -1.8833413124084473 0.023664236068725586 3.278444766998291
v -1.881974220275879 -0.01632082462310791 3.280808448791504
v -1.878725290298462 -0.016115784645080566 3.3220624923706055
v -1.8742444515228271 -0.015896201133728027 3.365492343902588
v -1.8743798732757568 0.024103283882141113 3.3653039932250977
v -1.8701081275939941 0.024200916290283203 3.38299560546875
v -1.8655481338500977 0.024325847625732422 3.4062700271606445
v -1.8797812461853027 0.06370663642883301 3.284782886505127
v -1.8523709774017334 0.06476724147796631 3.4904770851135254
v -1.881696343421936 0.10323166847229004 3.1850502490997314
v -1.872525691986084 0.10379242897033691 3.297647476196289
v -1.874650478363037 0.10410177707672119 3.3649277687072754
v -1.852506399154663 0.10476672649383545 3.490288734436035
v -1.8549524545669556 0.18476366996765137 3.4911441802978516
v -1.8522181510925293 0.10479390621185303 3.4958715438842773
v -1.8498899936676025 0.14482200145721436 3.5000343322753906
v -1.8539912700653076 0.2647768259048462 3.492943286895752
v -1.9102712869644165 -0.018179774284362793 2.906114101409912
v -1.908174991607666 -0.018083572387695312 2.925037384033203
v -1.901518702507019 -0.017862439155578613 2.967235565185547
v -1.8989536762237549 -0.01721179485321045 3.1036829948425293
v -1.8950263261795044 0.022763609886169434 3.0954484939575195
v -1.8901220560073853 -0.01698911190032959 3.144649028778076
v -1.8924328088760376 0.02300882339477539 3.145692825317383
v -1.8925881385803223 0.030292272567749023 3.099764108657837
v -1.8905224800109863 0.06279325485229492 3.098379135131836
v -1.8877707719802856 0.06284928321838379 3.1083128452301025
v -1.8927910327911377 0.09029126167297363 3.0994815826416016
v -1.893104076385498 0.18278968334197998 3.0990467071533203
v -1.891690969467163 0.22242510318756104 3.0204126834869385
v -1.9025958776474 0.26191651821136475 2.9200246334075928
v -1.895521640777588 0.2623811960220337 3.013698101043701
v -1.9127856492996216 -0.01851952075958252 2.835714817047119
v -1.9085755348205566 0.0616987943649292 2.878767967224121
v -1.9176833629608154 0.18169057369232178 2.8831307888031006
v -1.8856412172317505 -0.01676952838897705 3.1880786418914795
v -1.8879520893096924 0.02322828769683838 3.189122200012207
v -1.9545817375183105 -0.02022576332092285 2.5031394958496094
v -1.9506773948669434 -0.02006077766418457 2.5354037284851074
v -1.9596443176269531 0.01971614360809326 2.4942495822906494
v -1.9352487325668335 -0.002117156982421875 2.6184847354888916
v -1.9285333156585693 -0.019395947456359863 2.6607651710510254
v -1.9342741966247559 -0.01922428607940674 2.7013635635375977
v -1.9349297285079956 -0.019184231758117676 2.7103538513183594
v -1.9150910377502441 -0.018737435340881348 2.791053533554077
v -1.9239280223846436 0.021255850791931152 2.795792579650879
v -1.957604169845581 0.05971693992614746 2.4928295612335205
v -1.9286565780639648 0.1408451795578003 2.7114882469177246
v -1.9493083953857422 0.17972111701965332 2.487337589263916
v -1.9336906671524048 0.18038129806518555 2.616394519805908
v -1.942787528038025 0.21994149684906006 2.5293469429016113
v -1.9386004209518433 0.2603495717048645 2.612898826599121


vn 0.0 0.0 0.0
vn 0.0 0.0 0.0
vn 0.0 0.0 0.0
vn 0.0 0.0 0.0
vn 0.0 0.0 0.0
vn 0.0 0.0 0.0
vn 0.0 0.0 0.0
vn -1.792120789049549 0.8396881025697049 0.2639511013026684
vn 0.0 0.0 0.0
vn 0.0 0.0 0.0
vn -1.8460590743768397 0.6037934530937283 -0.06410291889869828
vn -2.9325046573707905 0.07189437551551842 0.4792648273999225
vn -2.913360108447414 0.07277520967804177 0.26992114168499554
vn -1.742542644878374 0.9368380377190688 0.25182020195582683
vn 0.0 0.0 0.0
vn -1.8983817260277909 -0.27496131088309034 0.49892561145585457
vn -2.9724016538291798 0.0056163044573769305 0.3668441256096823
vn -2.8949533470649436 0.5096124111180387 0.21220681163497696
vn -1.9785789674389154 0.044995293627991755 0.0557904503220259
vn -1.243156552449754 0.780411880980512 0.507507393485342
vn -2.1718244741291977 1.5063963293229903 0.007835708894753685
vn -0.3783349277780311 0.18227516416994727 -0.5263402862815191
vn 0.0 0.0 0.0
vn -1.9902055468090232 -0.06885045507206825 -0.013567066926078467
vn 0.0 0.0 0.0
vn -1.9838076221254657 0.08155776111780938 0.06231890930478563
vn -1.09168496983461 2.7840216375082054 0.05598018244013902
vn -0.9805104672621685 1.742649173673401 0.042107969298051634
vn -0.7930943079863078 1.8239487404851946 0.0492549782132808
vn -0.3249079962729464 0.9456675224928162 0.012154458449395777
vn -1.240109676469748 -0.2860484061387987 -0.26965207801427593
vn -2.168451165329587 1.1173983890440387 0.49227065807493164
vn -1.4802775622558848 0.8740095819853417 0.1619318575414115
vn -0.8211524211303858 1.8134044082924072 0.07576215248404136
vn -1.3160081294958657 0.8230194242712927 0.06390356402770578
vn 0.0 0.0 0.0
vn -1.7490850240884797 -0.6730849073810745 0.17342442826949056
vn -2.9801255909354487 -0.14184799650924484 0.2543047196918967
vn -0.8016868078247349 -0.5921928107673654 0.0812769157586208
vn -1.5534516501259241 -1.2434351004249664 0.1848776012843143
vn -0.7517648423011891 -0.6512422896576009 0.10360068552569349
vn 0.0 0.0 0.0
vn 0.0 0.0 0.0
vn -0.9832639247434195 -0.16108147505496298 -0.0851164654593023
vn -2.9830505473867004 -0.09896268178916288 0.04361635958368133
vn -1.608022317413869 0.11151036548407939 -0.17286972753869306
vn -1.8534475288585648 -0.161708309499423 0.4076107432553731
vn 0.0 0.0 0.0
vn 0.0 0.0 0.0
vn -2.992174469555777 0.1026030272434017 -0.07946967664346369
vn -1.9866272113843704 0.05139543796712707 0.14286858174121414
vn -1.9952886118935051 -0.03413877333707124 0.10315874810864825
vn -1.9855622808760942 0.12036759745860218 -0.07632973280597305
vn -2.152208948519645 -0.10438391885106717 -0.885548863254685
vn -2.05653229443768 -0.02918125630048757 -0.33117407018578937
vn -1.9866933637229396 0.05146166393233629 0.17757307375494336
vn -2.983128615598126 0.12617958699914242 0.15963908419424708
vn -2.9328134221650357 0.2573800996742392 0.18816642011975565
vn -1.976371353545742 0.17934133473512573 0.22159462720100026
vn -1.991312164525954 0.04685070022835634 -0.06498404497957297
vn -2.959304241520912 0.19490404625100283 0.3533567092133034
vn -0.8701754206473841 -0.0006257324105456845 0.49274166229384175
vn -2.976543232005356 0.0773759036686816 0.11073426473052744
vn -1.9816420551249005 0.0310185053318891 0.20349424614215608
vn -2.980729480548237 -0.1431252352817062 0.051305930045362574
vn -2.9830812063201213 -0.11984522124110332 0.291218422298371
vn -1.240109676469748 -0.2860484061387987 -0.26965207801427593
vn -2.979422337675465 0.055604536582796564 0.14141239165994332
vn -1.6626477850187933 0.012370409548257834 -0.5029296113341464
vn -2.768063097423824 -0.13740035306902484 0.37911021117744337
vn -2.9783729456196513 0.11554388281994299 0.2830909307029904
vn -1.9794231078519173 -0.005357226786054135 0.2848165371743853
vn -2.9876438967687777 -0.0002396250777746945 0.17181407912237176
vn -1.9792812356350007 0.023789799154331295 0.28451437344988045
vn -1.9837196401434949 0.05940099651600924 0.18328293674216187
vn -2.9913591386767395 -0.06626703318398523 0.13778465482732016
vn -1.9847589772851404 0.14703736121761515 0.17876318231017632
vn -2.85101842534021 0.002618902787868611 0.7414338532561936
vn -0.07575994155318078 -0.3211958661479472 -0.2696183775316258
vn 0.9181205088985206 0.6651717203272944 -0.20154977120101805
vn -1.9954855997805239 -0.07860365438873448 0.07711325973343088
vn -0.998182683294977 0.05565435313487392 0.023106790066521655
vn 0.9974724035012087 -0.011708901536616195 -0.07008356353901908
vn -0.492730393547421 -0.005763871784937963 -0.8701629370736554
vn -0.998664700618882 -0.0031357941999312494 0.051565322965483336
vn -1.491395094166303 -0.008899665984869212 -0.8185976141081721
vn -2.802793895135426 -0.6132682968816812 0.25709199907086167
vn -0.9967204281677012 0.03525816837263818 -0.07283714461867088
vn -0.9511183961924444 -0.2941646076346919 0.09402648584010709
vn 0.0 0.0 0.0
vn 0.0 0.0 0.0
vn 0.016093143660538378 -0.1517344353235543 -0.20156587505756923
vn -1.836886795979738 -0.5548583452940017 0.47802273202420287
vn 0.0 0.0 0.0
vn -1.8648625823376839 0.06668473316605761 0.5707269410037732
vn -0.9921703135131051 0.07206709964088505 0.10200197121946905
vn -0.9994958477376609 -0.0035324567255325427 -0.03155268775645993
vn -1.9489459082486502 0.21218318436298364 0.1965072709944113
vn -1.9363736980129196 0.3187034582317777 0.35205690734245754
vn -0.992014643416704 1.110894766562802 0.09673450493613997
vn -0.8701840889539109 -0.0006250235243883496 0.4927263547619978
vn -1.053777975128298 -0.4024158913086424 -0.0775662140063042
vn -0.9645292530123344 0.11732532846205179 0.23647005600020504
vn -2.860161600046674 0.0383493908555028 0.6761872407715508
vn -2.970267650632482 0.06680916354982158 0.40134119396812695
vn -0.9842225999432843 -0.03195537154105007 0.17402507862533861
vn -2.9615110950252728 -0.053461114158120895 0.434622528921991
vn -2.992259020698211 -0.006197864158613158 -0.02412030436523012
vn -1.9860531349052652 -0.04283409707177245 0.14315676304102043
vn -2.9618331073827524 -0.12193148603471743 0.12187659488809127
vn -1.9952999996507765 0.07863290940659368 0.10595830402903247
vn -0.9351209203798806 -0.3213899520940368 0.14918901756120567
vn -1.9297924855814554 -0.21991726842601783 0.16740362292776234
vn -0.9683454529845038 0.1379820360411192 0.20800971471107688
vn -2.121691495601874 0.27470592495807244 1.1029998175817026
vn -1.9898130969337537 -0.118986752610053 0.15449189950084158
vn -2.9694862501294637 0.19242231753809597 0.3561073664572383
vn -1.8765160155073388 0.35761947550916484 0.4362997649132726
vn -1.0857124181838187 0.021657812775096 1.3727122903601954
vn -1.9710717587029891 0.08191835530155997 -0.1585218693590611
vn -2.978634414394976 0.0025724690739808292 0.21051171774342997
vn -2.8184480841579025 0.16322191570456404 0.9027113236761578
vn -1.991445579157967 -0.11061757789123655 -0.09154433833828694
vn 0.0 0.0 0.0
vn -1.9859231718543373 -0.1750962166398494 -0.04532876627958244
vn -1.9494597709278683 -0.28312927742339344 0.26201026188672005
vn -2.941338935645285 -0.22200774795703535 0.5115986631094247
vn -1.9690549005972213 0.165142282434591 0.30889692588335826
vn -0.9928940052955307 -0.06004500730628543 0.10274284084931044
vn -0.9933746177963425 0.05250898887283891 0.10222365091074746
vn -0.9804418702853732 -0.08473332229906225 0.1776344647963409
vn -0.9839103212574036 0.04233335198377596 0.17357524890655002
vn -0.9777200927858072 0.0570378441820067 0.20201510956852137
vn -2.9620296110257693 -0.06503663417720318 0.42027537090915307
vn -1.7876813133260248 -0.5421233020152584 0.062387965886964714
vn -0.8037709920686212 -0.5844566539990343 -0.1111872830195853
vn -1.8597919145817663 0.15813739314355402 0.16463019916562013
vn -0.9738596463143474 -0.2212704208577138 0.05134968484756561
vn -2.9368938903693826 -0.13106053871835013 0.3050097789935261
vn -1.9678070863178794 0.13094761004014072 0.3214516690861935
vn -1.5723626510766342 -0.7957279735946727 -0.22356364764978673
vn -1.9778681658405186 0.07130080276794505 0.275261939172418
vn -0.5689662870314984 -0.7470188226613861 -0.227919146671588
vn -1.9899370875915257 0.05028350820081444 0.15337189924030667
vn -2.9920106884694366 -0.002564595710019022 0.1854430816035274


f 8//8 12//12 14//14
f 24//24 12//12 8//8
f 11//11 12//12 13//13
f 14//14 12//12 11//11
f 68//68 16//16 35//35
f 16//16 68//68 17//17
f 19//19 21//21 18//18
f 20//20 18//18 21//21
f 21//21 19//19 24//24
f 18//18 20//20 22//22
f 22//22 20//20 21//21
f 27//27 33//33 26//26
f 68//68 27//27 26//26
f 27//27 68//68 35//35
f 28//28 33//33 29//29
f 29//29 33//33 27//27
f 29//29 27//27 30//30
f 31//31 33//33 32//32
f 32//32 33//33 34//34
f 34//34 33//33 28//28
f 27//27 35//35 30//30
f 77//77 38//38 41//41
f 37//37 77//77 41//41
f 45//45 44//44 38//38
f 39//39 37//37 40//40
f 40//40 37//37 41//41
f 47//47 44//44 45//45
f 46//46 47//47 45//45
f 45//45 32//32 46//46
f 92//92 50//50 55//55
f 62//62 55//55 63//63
f 55//55 50//50 63//63
f 51//51 63//63 50//50
f 52//52 63//63 51//51
f 53//53 63//63 52//52
f 24//24 63//63 12//12
f 12//12 63//63 53//53
f 13//13 12//12 53//53
f 11//11 13//13 53//53
f 55//55 58//58 110//110
f 59//59 58//58 55//55
f 56//56 65//65 57//57
f 65//65 56//56 66//66
f 56//56 57//57 60//60
f 57//57 58//58 59//59
f 59//59 60//60 57//57
f 68//68 56//56 60//60
f 17//17 68//68 60//60
f 61//61 60//60 59//59
f 55//55 54//54 92//92
f 63//63 19//19 59//59
f 18//18 17//17 60//60
f 18//18 60//60 61//61
f 19//19 61//61 59//59
f 19//19 18//18 61//61
f 19//19 63//63 24//24
f 69//69 64//64 65//65
f 45//45 69//69 65//65
f 67//67 45//45 65//65
f 67//67 65//65 66//66
f 67//67 66//66 68//68
f 66//66 56//56 68//68
f 70//70 69//69 45//45
f 31//31 67//67 33//33
f 67//67 26//26 33//33
f 67//67 68//68 26//26
f 67//67 32//32 45//45
f 67//67 31//31 32//32
f 72//72 73//73 142//142
f 73//73 74//74 142//142
f 76//76 73//73 71//71
f 38//38 76//76 71//71
f 73//73 75//75 74//74
f 73//73 76//76 75//75
f 38//38 71//71 78//78
f 77//77 75//75 76//76
f 38//38 77//77 76//76
f 71//71 69//69 78//78
f 64//64 69//69 71//71
f 78//78 69//69 70//70
f 78//78 70//70 45//45
f 38//38 78//78 45//45
f 108//108 79//79 80//80
f 109//109 108//108 82//82
f 86//86 85//85 84//84
f 87//87 89//89 88//88
f 108//108 85//85 81//81
f 81//81 85//85 86//86
f 93//93 89//89 87//87
f 92//92 93//93 87//87
f 50//50 87//87 88//88
f 92//92 87//87 50//50
f 95//95 96//96 104//104
f 104//104 96//96 97//97
f 98//98 104//104 97//97
f 99//99 80//80 100//100
f 101//101 95//95 104//104
f 104//104 99//99 102//102
f 99//99 100//100 102//102
f 99//99 104//104 98//98
f 102//102 100//100 80//80
f 104//104 102//102 105//105
f 65//65 104//104 105//105
f 104//104 65//65 103//103
f 105//105 102//102 106//106
f 107//107 105//105 106//106
f 57//57 65//65 105//105
f 57//57 105//105 107//107
f 79//79 102//102 80//80
f 102//102 79//79 108//108
f 107//107 109//109 83//83
f 110//110 107//107 92//92
f 92//92 107//107 83//83
f 57//57 107//107 58//58
f 58//58 107//107 110//110
f 55//55 110//110 54//54
f 54//54 110//110 92//92
f 111//111 112//112 115//115
f 115//115 112//112 113//113
f 113//113 114//114 115//115
f 115//115 114//114 116//116
f 117//117 115//115 116//116
f 119//119 115//115 118//118
f 120//120 118//118 117//117
f 117//117 118//118 115//115
f 115//115 119//119 121//121
f 121//121 120//120 122//122
f 122//122 120//120 117//117
f 127//127 115//115 121//121
f 121//121 122//122 123//123
f 64//64 128//128 121//121
f 123//123 122//122 125//125
f 125//125 122//122 65//65
f 127//127 126//126 111//111
f 111//111 115//115 127//127
f 127//127 121//121 128//128
f 117//117 116//116 129//129
f 130//130 117//117 129//129
f 117//117 104//104 103//103
f 130//130 104//104 117//117
f 122//122 117//117 103//103
f 65//65 122//122 103//103
f 65//65 64//64 125//125
f 131//131 132//132 134//134
f 131//131 134//134 133//133
f 134//134 132//132 135//135
f 139//139 136//136 137//137
f 134//134 136//136 139//139
f 135//135 136//136 134//134
f 139//139 137//137 138//138
f 134//134 140//140 133//133
f 143//143 139//139 128//128
f 139//139 143//143 134//134
f 134//134 143//143 140//140
f 141//141 143//143 128//128
f 143//143 142//142 140//140
f 143//143 144//144 142//142
f 141//141 144//144 143//143
f 145//145 141//141 128//128
f 144//144 141//141 145//145
f 71//71 145//145 128//128
f 126//126 139//139 138//138
f 139//139 127//127 128//128
f 144//144 72//72 142//142
f 144//144 145//145 73//73
f 72//72 144//144 73//73
f 73//73 145//145 71//71
f 139//139 126//126 127//127
f 64//64 71//71 128//128


