o Object.1
v -5.1353631019592285 -0.23969697952270508 -4.257583141326904
v -5.08256721496582 -0.24160236120224 -4.16392707824707
v -5.076458930969238 -0.22903341054916382 -4.153100490570068
v -5.0742082595825195 -0.2413049340248108 -4.108372688293457
v -5.129016399383545 -0.1622006893157959 -4.261652946472168
v -5.125728607177734 -0.16208744049072266 -4.240548133850098
v -5.124521732330322 -0.20197272300720215 -4.218015670776367
v -5.124618053436279 -0.16197335720062256 -4.218214988708496
v -5.111454010009766 -0.16652023792266846 -4.133769989013672
v -5.133425712585449 -0.121970534324646 -4.213503837585449
v -5.127148628234863 -0.08210253715515137 -4.243124961853027
v -5.131344318389893 -0.08197188377380371 -4.214931488037109
v -5.116183757781982 -0.04697871208190918 -4.223699569702148
v -5.114968299865723 -0.04196500778198242 -4.2215471267700195
v -5.105221748352051 -0.04152488708496094 -4.1380767822265625
v -5.092058181762695 -0.06380057334899902 -4.099437236785889
v -5.122825622558594 -0.0019768476486206055 -4.220241546630859
v -5.131675720214844 0.037796974182128906 -4.261423587799072
v -5.123754501342773 0.037937164306640625 -4.2371907234191895
v -5.114168167114258 0.038248300552368164 -4.1794586181640625
v -5.103236675262451 0.03847312927246094 -4.139703750610352
v -5.093532562255859 0.03868412971496582 -4.102126598358154
v -5.076333522796631 -0.16071796417236328 -3.9900193214416504
v -5.067673683166504 -0.18812084197998047 -3.974637508392334
v -5.091834545135498 -0.12084126472473145 -4.007363319396973
v -5.074369430541992 -0.12061905860900879 -3.9712915420532227
v -5.078917503356934 -0.0406186580657959 -3.96923565864563
v -5.087768077850342 -0.0008449554443359375 -4.010417938232422
v -5.089092254638672 0.03914070129394531 -4.0127949714660645
v -5.0900421142578125 0.03915548324584961 -4.009389877319336
v -5.087798118591309 0.011654973030090332 -4.010479927062988
v -5.0812883377075195 0.03938114643096924 -3.968407392501831
v -5.08723258972168 -0.24107033014297485 -4.055112838745117
v -5.072084426879883 -0.20107710361480713 -4.063906669616699
v -5.085012435913086 -0.2408420443534851 -4.0104475021362305
v -5.065369606018066 -0.24062079191207886 -3.9756031036376953
v -5.061110019683838 -0.20062315464019775 -3.9782586097717285
v -5.087425231933594 -0.1610715389251709 -4.055512428283691
v -5.113739967346191 -0.1215200424194336 -4.1327667236328125
v -5.0897955894470215 -0.08107185363769531 -4.054684162139893
v -5.083315849304199 -0.04084599018096924 -4.012673377990723
v -5.100919723510742 -0.001298069953918457 -4.0948381423950195
v -5.139979362487793 -0.20311248302459717 -4.438888072967529
v -5.144196033477783 -0.24288100004196167 -4.3903398513793945
v -5.146470069885254 -0.2028806209564209 -4.389311790466309
v -5.144377708435059 -0.20333993434906006 -4.482326030731201
v -5.130927085876465 -0.16295933723449707 -4.412676811218262
v -5.133499622344971 -0.1628866195678711 -4.396877288818359
v -5.149438381195068 -0.12316727638244629 -4.44554328918457
v -5.133553504943848 -0.12265801429748535 -4.351183891296387
v -5.1486592292785645 -0.16242194175720215 -4.296497344970703
v -5.135688781738281 -0.12242794036865234 -4.304062843322754
v -5.1421685218811035 -0.0830848217010498 -4.432676315307617
v -5.144581317901611 -0.08288335800170898 -4.391138553619385
v -5.1401591300964355 -0.09265577793121338 -4.347650527954102
v -5.153570175170898 -0.003339529037475586 -4.4784135818481445
v -5.142596244812012 -0.002885580062866211 -4.392765522003174
v -5.144955635070801 0.03665637969970703 -4.483524322509766
v -5.140557289123535 0.03688383102416992 -4.440086364746094
v -5.1448588371276855 0.01438593864440918 -4.43751859664917
v -5.138774871826172 0.036954641342163086 -4.426742076873779
v -5.144870281219482 0.037114739418029785 -4.391737461090088
v -5.140448093414307 0.02734220027923584 -4.348249435424805
v -5.133221626281738 -0.24242699146270752 -4.304691314697266
v -5.136584758758545 -0.2422107458114624 -4.259748458862305
v -5.133703231811523 -0.04243016242980957 -4.305689811706543
v -5.131622314453125 -0.002431631088256836 -4.307117462158203
v -5.138251781463623 0.03757047653198242 -4.303633689880371
v -5.0672688484191895 -0.28183722496032715 -4.218214511871338
v -5.061154365539551 -0.2717682123184204 -4.207375526428223
v -5.152757167816162 -0.3231053352355957 -4.430922985076904
v -5.144142150878906 -0.2831096053123474 -4.436033248901367
v -5.144142150878906 -0.2831096053123474 -4.436033248901367
v -5.139737606048584 -0.2676531672477722 -4.346776962280273


vn 1.857462395694955 -0.5712830969967752 -0.08519242495731327
vn 0.0 0.0 0.0
vn 0.0 0.0 0.0
vn 2.7027127637130457 0.37296078171808067 -0.3939838673337291
vn 2.788844669309208 -0.43846229480820004 -0.764846594438019
vn 0.9880795413765149 0.0016204085434636418 -0.15393568198870636
vn 1.881196147211043 0.34963568715378224 -0.438935291309725
vn 0.9637376931278483 0.22843664730402063 -0.13793606132230915
vn 2.8158912472616 0.0490179069953277 -0.9498990698847696
vn 1.9169382956306305 0.16826002116230532 -0.43422542166880107
vn 1.690035671202351 0.10408535639952582 -0.8338069450785816
vn 2.7256142123432845 -0.6795410005977092 -0.30245460039587957
vn 1.780048337726848 -0.33024002126485935 -0.2359402989092539
vn 2.662428593614607 0.24291985627008122 -0.9238821521974258
vn 2.9149104756572455 0.42844941456268726 -0.5249319016611849
vn 1.9410765784577417 -0.12932869860867652 -0.1480465243115643
vn 2.8319673134810808 -0.382767088283813 -0.3663447406225216
vn 1.9312888082738602 -0.04889114702668399 -0.462256891270374
vn 0.9450388204867494 -0.10891722985411373 -0.30828341637837015
vn 0.9622970369284353 0.0615166676375287 -0.2649530379548946
vn 1.930077530044136 0.09078251433701581 -0.5150418768935678
vn 1.8303391079759976 -0.4750840579766256 -0.29038535967535645
vn 1.5137460289653717 0.9696656056269697 0.8765252941732355
vn 1.640654177730322 0.8693099098152461 0.7069973601093629
vn 2.6417443603693096 0.2524036497973571 -0.04030885458019878
vn 1.8865711710346935 -0.06475135514298805 -0.5326846793048607
vn 1.9636793708334044 0.09115605600660628 -0.36293254663336205
vn 1.8662382039680088 0.02696131372909294 -0.5860933938520245
vn 1.9794865795120211 0.08005386802390531 -0.26297289692513043
vn 1.4680972557582004 0.036630226834248374 0.6623815187599317
vn 1.361807497619486 0.005158743438642583 0.3802978295108363
vn 0.9774310000334148 0.031129977762177304 -0.20894871298528014
vn 0.9309677467270562 -0.362388826165717 -0.044422890767954915
vn 2.7306125426482364 0.07010630327513262 -0.6334020270950822
vn 2.7240049269098527 -0.20697655628458653 -0.9859595662190443
vn 0.8646887611095148 -0.12439604323179995 -0.4866610430671072
vn 1.7421356333359712 0.2726117953798304 -0.22745087084174526
vn 2.8688209310868467 0.43825304177102037 -0.4285870141520118
vn 2.7478438848475273 -0.03631389409499637 -1.1599518634995845
vn 2.936391495315485 0.20143530905082596 -0.5267901213161732
vn 2.9379262291081245 0.1280764813824622 -0.41328035902996696
vn 2.93352588753677 0.3463318261722774 -0.40212782293189575
vn 0.0 0.0 0.0
vn 1.964085731167469 -0.12893740264361797 0.097334212945406
vn 2.4808285853013325 0.04660930046983138 0.6930298845016294
vn 0.0 0.0 0.0
vn 0.0 0.0 0.0
vn 0.49105109098857996 0.00553215775206113 0.8711132080674312
vn 0.9590687994226905 -0.04367865391912739 -0.2797842260845529
vn 1.9509216810081198 0.4302803306232669 -0.006315471735830934
vn 1.6669803315940412 -0.13809782835968262 -0.9388498013975701
vn -0.13476699944238635 -0.6569954507792661 -0.49966823115937076
vn 0.0 0.0 0.0
vn 1.9680545556217495 0.19347890266823198 -0.1566488629272452
vn 2.985695642325706 0.030286052660537216 -0.15179014745418157
vn 1.9294056394632562 -0.26508185968295916 -0.3768771575347245
vn 0.9968989244596581 0.055233557049535156 0.056051659982846044
vn 0.9703368400405658 -0.2214032057638318 -0.09709293145017159
vn 2.677634602817169 -0.4856057681867566 0.44813639427879953
vn 0.9712321902424098 -0.20038257127511586 -0.12866568216157845
vn 0.9712321902424098 -0.20038257127511586 -0.12866568216157845
vn 0.9968989244596581 0.055233557049535156 0.056051659982846044
vn 0.9949105242315077 0.0018929983898594268 -0.10074455484284195
vn 1.7236775993563027 -0.26929822200479414 -0.4131313139055708
vn 0.8731969884783427 -0.4826473863815461 0.06766475989328377
vn 0.9886364250724792 -0.05640713804432405 -0.1393422182884886
vn 1.9687775944902497 0.11475089190939483 -0.23948320287885144
vn 1.9663911572048811 0.23118411278114862 -0.2541144594823667
vn 0.0 0.0 0.0
vn 0.0 0.0 0.0
vn 0.9681601259126853 -0.1873225089634179 0.1660609774401662
vn 0.9681601259126853 -0.1873225089634179 0.1660609774401662
vn 0.0 0.0 0.0
vn 0.9959256052547838 0.058385106319799936 -0.0687267644947602


f 64//64 5//5 1//1
f 5//5 6//6 1//1
f 7//7 8//8 9//9
f 9//9 4//4 7//7
f 4//4 9//9 34//34
f 9//9 8//8 10//10
f 9//9 10//10 12//12
f 39//39 12//12 14//14
f 12//12 13//13 14//14
f 13//13 11//11 14//14
f 15//15 16//16 39//39
f 15//15 39//39 14//14
f 40//40 39//39 16//16
f 17//17 11//11 67//67
f 14//14 11//11 17//17
f 15//15 14//14 17//17
f 18//18 19//19 17//17
f 17//17 20//20 21//21
f 21//21 22//22 17//17
f 24//24 23//23 25//25
f 26//26 24//24 25//25
f 26//26 25//25 41//41
f 27//27 26//26 41//41
f 27//27 41//41 28//28
f 30//30 31//31 29//29
f 30//30 28//28 31//31
f 27//27 28//28 30//30
f 32//32 27//27 30//30
f 34//34 33//33 4//4
f 35//35 33//33 34//34
f 36//36 35//35 37//37
f 35//35 34//34 38//38
f 35//35 38//38 40//40
f 23//23 24//24 40//40
f 40//40 24//24 37//37
f 40//40 37//37 35//35
f 39//39 9//9 12//12
f 39//39 34//34 9//9
f 34//34 39//39 38//38
f 23//23 40//40 25//25
f 38//38 39//39 40//40
f 25//25 40//40 41//41
f 42//42 15//15 17//17
f 42//42 16//16 15//15
f 40//40 16//16 42//42
f 41//41 40//40 28//28
f 29//29 17//17 22//22
f 29//29 42//42 17//17
f 40//40 42//42 29//29
f 29//29 31//31 28//28
f 29//29 28//28 40//40
f 54//54 45//45 48//48
f 45//45 54//54 52//52
f 54//54 50//50 52//52
f 54//54 55//55 50//50
f 52//52 50//50 55//55
f 55//55 54//54 57//57
f 60//60 49//49 59//59
f 59//59 49//49 56//56
f 59//59 56//56 58//58
f 60//60 59//59 61//61
f 62//62 63//63 55//55
f 62//62 55//55 57//57
f 1//1 65//65 64//64
f 64//64 51//51 5//5
f 52//52 6//6 5//5
f 52//52 5//5 51//51
f 11//11 66//66 67//67
f 17//17 67//67 68//68
f 17//17 68//68 18//18
f 71//71 72//72 44//44
f 74//74 44//44 45//45


