o Object.1
v -4.893536567687988 -0.16019374132156372 -4.1920599937438965
v -4.846532821655273 -0.16228586435317993 -4.095371246337891
v -4.841080665588379 -0.149738609790802 -4.0841755867004395
v -4.8415656089782715 -0.1620737910270691 -4.039411544799805
v -4.886874198913574 -0.08269917964935303 -4.195626258850098
v -4.884875297546387 -0.08261847496032715 -4.1743597984313965
v -4.8850812911987305 -0.12253570556640625 -4.151852607727051
v -4.885124206542969 -0.08253610134124756 -4.152000427246094
v -4.877121925354004 -0.08721292018890381 -4.066917896270752
v -4.894160747528076 -0.042529940605163574 -4.1477766036987305
v -4.886054039001465 -0.0026284456253051758 -4.17690372467041
v -4.891955375671387 -0.002531766891479492 -4.149017333984375
v -4.876254081726074 0.03245651721954346 -4.156798362731934
v -4.875166416168213 0.03746604919433594 -4.154568195343018
v -4.870510578155518 0.0377812385559082 -4.070659160614014
v -4.859742641448975 0.015437960624694824 -4.031323432922363
v -4.883047103881836 0.07746100425720215 -4.153685092926025
v -4.889337062835693 0.11730098724365234 -4.195272445678711
v -4.882903099060059 0.11739909648895264 -4.170602798461914
v -4.876843452453613 0.11762070655822754 -4.112394332885742
v -4.868348121643066 0.11777901649475098 -4.072048187255859
v -4.860945701599121 0.1179279088973999 -4.033950328826904
v -4.850797176361084 -0.08164632320404053 -3.921290397644043
v -4.843116283416748 -0.10907971858978271 -3.9054503440856934
v -4.865174293518066 -0.04172873497009277 -3.939487934112549
v -4.849933624267578 -0.04157531261444092 -3.90242075920105
v -4.854516506195068 0.03842735290527344 -3.9005303382873535
v -4.860806465148926 0.07826709747314453 -3.94211745262146
v -4.861942291259766 0.11825752258300781 -3.9445137977600098
v -4.863097190856934 0.11826860904693604 -3.9411723613739014
v -4.8608198165893555 0.09076714515686035 -3.9421637058258057
v -4.856850624084473 0.11842846870422363 -3.899733066558838
v -4.857802391052246 -0.1618974804878235 -3.987041473388672
v -4.842106819152832 -0.12190914154052734 -3.994840621948242
v -4.858300685882568 -0.1617327332496643 -3.9423232078552246
v -4.840811729431152 -0.16158097982406616 -3.9063494205474854
v -4.836358070373535 -0.12158441543579102 -3.9086833000183105
v -4.857888221740723 -0.08189809322357178 -3.987337350845337
v -4.87941837310791 -0.04221165180206299 -4.065991401672363
v -4.860222339630127 -0.0018970966339111328 -3.9865400791168213
v -4.856266498565674 0.03826427459716797 -3.944155693054199
v -4.868803024291992 0.07794404029846191 -4.027181625366211
v -4.887086868286133 -0.12335646152496338 -4.373258113861084
v -4.894287586212158 -0.16318649053573608 -4.325112819671631
v -4.896578788757324 -0.12318503856658936 -4.324167728424072
v -4.8888373374938965 -0.12351953983306885 -4.41688346862793
v -4.879603385925293 -0.08324921131134033 -4.346487998962402
v -4.883131504058838 -0.08319532871246338 -4.330873489379883
v -4.8960418701171875 -0.04339182376861572 -4.380361080169678
v -4.885921001434326 -0.043029189109802246 -4.285210132598877
v -4.90436315536499 -0.08285105228424072 -4.231599807739258
v -4.890915870666504 -0.042861104011535645 -4.238306045532227
v -4.8895263671875 -0.003335118293762207 -4.367018699645996
v -4.894458770751953 -0.0031876564025878906 -4.325704097747803
v -4.892698287963867 -0.013024449348449707 -4.282042026519775
v -4.898045063018799 0.076485276222229 -4.41325044631958
v -4.892296314239502 0.07681000232696533 -4.327093124389648
v -4.889094352722168 0.1164785623550415 -4.4177703857421875
v -4.8873443603515625 0.11664187908172607 -4.3741455078125
v -4.891817092895508 0.09414517879486084 -4.371876239776611
v -4.886375427246094 0.1166924238204956 -4.360717296600342
v -4.894587516784668 0.11681151390075684 -4.32614803314209
v -4.892826557159424 0.10697460174560547 -4.2824859619140625
v -4.888538837432861 -0.16286182403564453 -4.238955497741699
v -4.894627094268799 -0.16270321607589722 -4.194299221038818
v -4.8887529373168945 0.03713667392730713 -4.239694595336914
v -4.886547565460205 0.07713472843170166 -4.240935325622559
v -4.893335819244385 0.11713945865631104 -4.237804412841797
v -4.828004360198975 -0.20246344804763794 -4.148686408996582
v -4.822549819946289 -0.19241619110107422 -4.137481212615967
v -4.900448799133301 -0.24334579706192017 -4.366256237030029
v -4.89149808883667 -0.203352689743042 -4.370776176452637
v -4.89149808883667 -0.203352689743042 -4.370776176452637
v -4.892510414123535 -0.18802320957183838 -4.281394958496094


vn 1.8585987753803144 -0.5732754041522647 0.027046999628281054
vn 0.0 0.0 0.0
vn 0.0 0.0 0.0
vn 2.7220448393522054 0.37049136018614 -0.22846037224770144
vn 2.8297226540766207 -0.4405083838978783 -0.5945413254677969
vn 0.9956111572763273 0.0007483164038863666 -0.0935834575630333
vn 1.9047550376740778 0.3481417871324207 -0.32328337079687863
vn 0.9705747310616388 0.2275494868286691 -0.07877767747678843
vn 2.868469656571393 0.047181341635647335 -0.7769218865489216
vn 1.9399611587546486 0.16672145172559982 -0.31666400316635945
vn 1.7376937201812033 0.10333176242685406 -0.7294039163300331
vn 2.7382828996010216 -0.682180472850007 -0.137294859344088
vn 1.7906492412387984 -0.33173534243014 -0.12814674909776697
vn 2.7139074578261577 0.24120456950390376 -0.7600134727615151
vn 2.941866409090485 0.4259098961696766 -0.3461906826935742
vn 1.9463497203599514 -0.1312975744202457 -0.029975212566189555
vn 2.8486102226460988 -0.38541097429474713 -0.1941001746893378
vn 1.9557606867992727 -0.05041553699359842 -0.3441000119607046
vn 0.9619146708238283 -0.10955276676930256 -0.250436333919575
vn 0.976683472938311 0.0608161893326265 -0.2058902251303288
vn 1.9579048667292005 0.08934794594608239 -0.39665320694707185
vn 1.8441229154292786 -0.4767100020103686 -0.17928564341198647
vn 1.4586314283530883 0.9667974939084856 0.9683348822330677
vn 1.5955254571754691 0.8665138364281444 0.8066632152776355
vn 2.639564980016661 0.24952656248952604 0.12068644222373698
vn 1.9153929123691427 -0.06611467102191185 -0.41712083813939704
vn 1.982202402175787 0.08944901153962594 -0.24277660307649046
vn 1.8984066102760817 0.025659910929761734 -0.4715969467002743
vn 1.991892382022943 0.07819783478180943 -0.14205093385696502
vn 1.4256527769107619 0.03411702264532573 0.7502075793543848
vn 1.3366394557657928 0.003137440280585881 0.46206725230903484
vn 0.9883567862624076 0.030322278432594472 -0.14910205390839448
vn 0.9315747512023891 -0.36336089999581556 0.011719184119971538
vn 2.764133088862647 0.06792986763302983 -0.46617870956280516
vn 2.778686091568292 -0.2086378323700433 -0.8188730660425751
vn 0.8925408461764959 -0.12467453834520101 -0.43339023684775796
vn 1.7530389748707114 0.27097323032379006 -0.12077220272852895
vn 2.890015516052733 0.4356443649284788 -0.25281510718660555
vn 2.813221052015359 -0.03779346198357682 -0.9908636078386268
vn 2.9631857056306115 0.19887640098236722 -0.3470532830506907
vn 2.9577427782222907 0.125374347388786 -0.23377288426554868
vn 2.9528973982440014 0.3436097764717819 -0.22259257118875483
vn 0.0 0.0 0.0
vn 1.9544064576294073 -0.13125481200730135 0.21633381086053385
vn 2.434171800835758 0.04289336108203692 0.8425877849131483
vn 0.0 0.0 0.0
vn 0.0 0.0 0.0
vn 0.4372080923126422 0.003790485949007163 0.8993523871278769
vn 0.9742554167075348 -0.04436385644084535 -0.22103898130810298
vn 1.9481407999775238 0.42811459307601796 0.11288809122044743
vn 1.720812933590635 -0.13867197237259266 -0.8360076474921536
vn -0.10483006769540482 -0.6561501196597244 -0.507877500217866
vn 0.0 0.0 0.0
vn 1.97413564313037 0.191500913134646 -0.03645445451537066
vn 2.989430487481364 0.027167549656482753 0.030005826587875435
vn 1.9484701888193325 -0.26672097189328287 -0.25928673950161296
vn 0.9917046655970249 0.05404739868245332 0.11662218883537198
vn 0.9742147721117977 -0.2223571154524375 -0.03824775819350995
vn 2.6449330529335917 -0.4892047987430277 0.6093106835256902
vn 0.97704598637338 -0.2012886305251058 -0.06974258192092067
vn 0.97704598637338 -0.2012886305251058 -0.06974258192092067
vn 0.9917046655970249 0.05404739868245332 0.11662218883537198
vn 0.9991955730111722 0.0009197389070330492 -0.040091906355498995
vn 1.745300212170656 -0.27069067622309284 -0.30800277995910896
vn 0.8669535098713647 -0.48374784803992443 0.11991510012698064
vn 0.9952184806930682 -0.05732642396056532 -0.07908133030541889
vn 1.9798080294546432 0.11288625900395209 -0.11921937992792442
vn 1.9784355647370195 0.22934991274022154 -0.13380172766363513
vn 0.0 0.0 0.0
vn 0.0 0.0 0.0
vn 0.9560854763554651 -0.18862539295457872 0.22432347856360027
vn 0.9560854763554651 -0.18862539295457872 0.22432347856360027
vn 0.0 0.0 0.0
vn 0.9983209812739421 0.057370580947277365 -0.007989667703066415


f 64//64 5//5 1//1
f 5//5 6//6 1//1
f 7//7 8//8 9//9
f 9//9 4//4 7//7
f 4//4 9//9 34//34
f 9//9 8//8 10//10
f 9//9 10//10 12//12
f 39//39 12//12 14//14
f 12//12 13//13 14//14
f 13//13 11//11 14//14
f 15//15 16//16 39//39
f 15//15 39//39 14//14
f 40//40 39//39 16//16
f 17//17 11//11 67//67
f 14//14 11//11 17//17
f 15//15 14//14 17//17
f 18//18 19//19 17//17
f 17//17 20//20 21//21
f 21//21 22//22 17//17
f 24//24 23//23 25//25
f 26//26 24//24 25//25
f 26//26 25//25 41//41
f 27//27 26//26 41//41
f 27//27 41//41 28//28
f 30//30 31//31 29//29
f 30//30 28//28 31//31
f 27//27 28//28 30//30
f 32//32 27//27 30//30
f 34//34 33//33 4//4
f 35//35 33//33 34//34
f 36//36 35//35 37//37
f 35//35 34//34 38//38
f 35//35 38//38 40//40
f 23//23 24//24 40//40
f 40//40 24//24 37//37
f 40//40 37//37 35//35
f 39//39 9//9 12//12
f 39//39 34//34 9//9
f 34//34 39//39 38//38
f 23//23 40//40 25//25
f 38//38 39//39 40//40
f 25//25 40//40 41//41
f 42//42 15//15 17//17
f 42//42 16//16 15//15
f 40//40 16//16 42//42
f 41//41 40//40 28//28
f 29//29 17//17 22//22
f 29//29 42//42 17//17
f 40//40 42//42 29//29
f 29//29 31//31 28//28
f 29//29 28//28 40//40
f 54//54 45//45 48//48
f 45//45 54//54 52//52
f 54//54 50//50 52//52
f 54//54 55//55 50//50
f 52//52 50//50 55//55
f 55//55 54//54 57//57
f 60//60 49//49 59//59
f 59//59 49//49 56//56
f 59//59 56//56 58//58
f 60//60 59//59 61//61
f 62//62 63//63 55//55
f 62//62 55//55 57//57
f 1//1 65//65 64//64
f 64//64 51//51 5//5
f 52//52 6//6 5//5
f 52//52 5//5 51//51
f 11//11 66//66 67//67
f 17//17 67//67 68//68
f 17//17 68//68 18//18
f 71//71 72//72 44//44
f 74//74 44//44 45//45


